<svg xmlns="http://www.w3.org/2000/svg" width="47.93" height="32.68" viewBox="0 0 47.93 32.68">
  <g id="agreement_1_" data-name="agreement (1)" transform="translate(-1.631 -11.211)">
    <path id="Path_1" data-name="Path 1" d="M50.915,36.748a.956.956,0,1,0-1.184,1.5c.395.316.395.474.395.947a1.275,1.275,0,0,1-.711,1.105c-.553.395-1.421.316-2.448-.316-.632-.395-1.263-.711-1.895-1.105l-.158-.079c-.553-.316-1.026-.553-1.579-.869a1.034,1.034,0,0,0-1.342.395c-.079.079-.079.237-.158.395a.9.9,0,0,0,.474.947c.553.316,1.105.632,1.579.947l.711.395c.395.237,1.026.711.553,1.421a1.053,1.053,0,0,1-.474.395,1.317,1.317,0,0,1-1.026-.237l-.947-.553c-.395-.237-.711-.474-1.105-.711-.237-.158-.395-.237-.632-.395h-.079c-.158-.079-.316-.237-.474-.316a.245.245,0,0,0-.158-.079l-.079-.079A.989.989,0,1,0,39.23,42.2c.474.237.947.553,1.421.79l.079.079c.079.079.158.079.237.158a.946.946,0,0,1,.474.947c-.079.316-.237.632-.474.711a1.03,1.03,0,0,1-.947-.079c-.474-.237-.947-.553-1.342-.79-.474-.316-1.105-.632-1.658-.947a.989.989,0,0,0-.947,1.737l.079.079c0,.079.079.079.158.079.158.158.395.237.553.395.079.079.158.079.237.158a.927.927,0,1,1-.947,1.579,11.056,11.056,0,0,1-1.263-.79c-.079-.079-.474-.316-.79-.553-.395-.237-.711-.553-.79-.553a1.1,1.1,0,0,0-1.342.316,1.007,1.007,0,0,0,.316,1.342c.079.079.474.316.79.553.395.316.711.474.79.553.474.237.869.553,1.263.79a2.847,2.847,0,0,0,1.579.474,2.6,2.6,0,0,0,2.369-1.342,3.966,3.966,0,0,0,.395-1.026,2.878,2.878,0,0,0,2.29-.079,2.733,2.733,0,0,0,1.5-2.053,3.137,3.137,0,0,0,1.895.158,2.655,2.655,0,0,0,1.658-1.263,2.35,2.35,0,0,0,.395-1.184,3.386,3.386,0,0,0,3.158-.395,3.148,3.148,0,0,0,1.5-2.606,2.7,2.7,0,0,0-.947-2.685Z" transform="translate(-6.356 -5.333)" fill="#fff"/>
    <path id="Path_2" data-name="Path 2" d="M53.12,24.864C50.988,20.6,48.935,16.415,46.8,12.152c-.316-.632-.474-.711-1.105-.316-1.026.632-2.053,1.263-3.158,1.895-.632.395-.711.553-.395,1.263l.237.474c-.158.079-.395.237-.553.316-3.237,1.974-5.685-1.579-8.685-2.211-1.816-.395-4.5-.553-6.08.711q-3.553,2.842-7.106,5.922c-1.658,1.421.947,2.606,2.29,2.764,2.842.237,4.816-2.527,7.5-1.579,2.132.79,3.79,2.448,5.685,3.553,2.764,1.658,5.448,3.237,8.212,4.9.711.395,1.421.869,2.132,1.263.158.237,2.132-2.685,2.764-3.4.079.237.316.395.474.553a1.286,1.286,0,0,0,.474-.237c1.105-.632,2.211-1.342,3.316-1.974.553-.316.632-.632.316-1.184Zm-3.474.79L48.7,24.627l-1.579,1.816c-.237.316-.632.869-1.105,1.5a6.829,6.829,0,0,0-.553.79c-.079,0-.079-.079-.158-.079-.237-.158-.395-.237-.632-.395L39.618,25.18,36.46,23.285c-.632-.395-1.184-.79-1.816-1.263a14.6,14.6,0,0,0-4.185-2.448,4.632,4.632,0,0,0-1.816-.316,9.229,9.229,0,0,0-3.711,1.026,5.6,5.6,0,0,1-2.527.711.859.859,0,0,1-.395-.079c2.053-1.816,4.185-3.553,6.317-5.29.711-.553,2.527-.711,4.5-.316a7.7,7.7,0,0,1,2.448,1.184,9.191,9.191,0,0,0,4.658,1.658,5.708,5.708,0,0,0,2.921-.869,1.652,1.652,0,0,0,.474-.316l1.579-.869-.553-1.263c.474-.237.869-.553,1.342-.79l1.184,2.29c1.421,2.842,2.764,5.606,4.185,8.448-.553.316-.947.632-1.421.869Z" transform="translate(-3.744 -0.081)" fill="#fff"/>
    <path id="Path_3" data-name="Path 3" d="M7.923,27.467c-.395-.237-1.184-.79-1.342-.869l-.316-.237a26.07,26.07,0,0,0-2.527-1.421c0-.079.079-.079.079-.158.079-.158.158-.237.237-.395L9.107,14.2c.079-.079.079-.237.158-.395l.237-.474a13.448,13.448,0,0,1,1.737,1.184,9.027,9.027,0,0,0,3.948,2.053,3.642,3.642,0,0,0,2.606-.474c.553-.316,1.026-.711,1.579-1.026l.711-.474c.079-.079.158-.079.237-.158a.954.954,0,0,0-.79-1.737l-.474.237-.711.474c-.474.316-.947.711-1.5,1.026a1.755,1.755,0,0,1-1.263.237A6.373,6.373,0,0,1,12.5,12.939a13.628,13.628,0,0,0-2.211-1.5,1.718,1.718,0,0,0-1.342-.158A2.59,2.59,0,0,0,7.607,12.86a4.7,4.7,0,0,0-.237.553L2.317,23.6c-.079.079-.079.158-.158.316-.158.237-.237.474-.395.711a1.4,1.4,0,0,0,.79,1.974,17.908,17.908,0,0,1,2.685,1.5l.316.237a7.677,7.677,0,0,1,1.184.79,2.677,2.677,0,0,1,.947,1.263,1.006,1.006,0,0,0,.869.632.712.712,0,0,0,.395-.079A1.067,1.067,0,0,0,9.5,29.678,3.937,3.937,0,0,0,7.923,27.467Z" fill="#fff"/>
    <path id="Path_4" data-name="Path 4" d="M26.2,39.08c-.158-.079-.395-.158-.553-.237a.8.8,0,0,1-.237-.079c0-.158-.079-.395-.079-.553a2.37,2.37,0,0,0-1.342-2.29,2.829,2.829,0,0,0-.869-.316v-.079a.592.592,0,0,0-.079-.395A3.273,3.273,0,0,0,21.7,33.395,2.955,2.955,0,0,0,20.279,33a2.65,2.65,0,0,0-2.29,1.263l-.158.316a1.416,1.416,0,0,0-.553-.395,2.258,2.258,0,0,0-1.342-.395,2.708,2.708,0,0,0-2.369,1.184l-.158.316a8.171,8.171,0,0,0-.869,1.579l-.316.711a2.568,2.568,0,0,0,.158,2.606,2.811,2.811,0,0,0,2.448,1.342h.079a2.592,2.592,0,0,0,.474,1.105,2.693,2.693,0,0,0,2.211,1.026h.079a.475.475,0,0,0,.316-.079c.079.158.079.316.237.474a2.588,2.588,0,0,0,1.5,1.026,2.031,2.031,0,0,0,1.184.079,5.329,5.329,0,0,0,1.105,1.026,2.847,2.847,0,0,0,1.579.474,2.506,2.506,0,0,0,2.132-1.184,19.189,19.189,0,0,0,1.579-2.764A2.679,2.679,0,0,0,26.2,39.08Zm-.632,2.842a12.409,12.409,0,0,1-1.421,2.448.708.708,0,0,1-.632.395,1.464,1.464,0,0,1-.553-.158,3.954,3.954,0,0,1-.632-.553.9.9,0,0,0-.237-.632l-.316-.395h-.79l-.237.158a.648.648,0,0,1-.553,0l-.474-.237c0-.079,0-.158-.079-.158-.158-.395-.237-.869-.711-1.105a1.744,1.744,0,0,0-1.263,0h-.158a.77.77,0,0,1-.711-.316c-.079-.079-.079-.316-.079-.395l-.079-.237c-.079-.395-.079-.79-.474-1.026a1.252,1.252,0,0,0-1.342-.079h-.079a.829.829,0,0,1-.711-.395.738.738,0,0,1,0-.711l.316-.711c.316-.553.316-.553.79-1.421l.158-.316a1.229,1.229,0,0,1,.711-.237,3.42,3.42,0,0,1,.395.079.951.951,0,0,1,.395.395,1.342,1.342,0,0,0,2.369,0l.553-1.026a.718.718,0,0,1,.632-.316,1.122,1.122,0,0,1,.474.158.594.594,0,0,1,.395.553v.158c.158,1.184.632,1.737,1.421,1.737a.592.592,0,0,1,.395.079c.237.158.316.158.316.711a2.186,2.186,0,0,0,.079.711,1.951,1.951,0,0,0,1.421,1.579c.079,0,.158.079.316.158a.737.737,0,0,1,.395,1.105Z" transform="translate(-2.171 -4.585)" fill="#fff"/>
  </g>
</svg>
