<svg xmlns="http://www.w3.org/2000/svg" xmlns:xlink="http://www.w3.org/1999/xlink" width="34" height="34" viewBox="0 0 34 34">
  <defs>
    <clipPath id="clip-Custom_Size_1">
      <rect width="34" height="34"/>
    </clipPath>
  </defs>
  <g id="Custom_Size_1" data-name="Custom Size – 1" clip-path="url(#clip-Custom_Size_1)">
    <g id="blockchain" transform="translate(-4 -4)">
      <path id="Path_5" data-name="Path 5" d="M33.005,15.989l4.841-2.931V7.3L32.4,4,26.949,7.3v2.733H14.891V7.31l-5.446-3.3L4,7.31v5.754L8.841,16v9.863L4,28.789v5.754l5.446,3.3,5.452-3.3v-1.82H26.949v1.826l5.452,3.3,5.446-3.3v-5.76l-4.841-2.931ZM28.158,8.775l3.639,2.2v3.61l-3.639-2.2Zm8.48,3.6-3.632,2.2v-3.61l3.632-2.2v3.6ZM32.4,5.411,36.136,7.67l-.054.036L32.4,9.935,28.72,7.706l-.06-.036L32.4,5.411ZM10.05,10.986l3.632-2.2v3.61l-3.632,2.2Zm-.6-5.568,3.741,2.265-.06.03L9.446,9.941,5.765,7.712l-.054-.03ZM5.209,12.391V8.781l3.632,2.2v3.6ZM9.446,26.9l3.741,2.265-.06.036L9.446,31.425,5.765,29.2l-.054-.036L9.446,26.9Zm-4.237,3.37,3.632,2.2v3.6l-3.632-2.2Zm8.48,3.6-3.639,2.2v-3.6l3.639-2.2Zm13.261-2.349H21.528V29.173a.6.6,0,0,0-1.209,0v2.348H14.9V28.789L10.05,25.858V22.987h3.155a.6.6,0,1,0,0-1.2H10.05V16l4.841-2.931V11.232h5.428v2.354a.6.6,0,0,0,1.209,0V11.232h5.422v1.826L31.8,15.989v5.8H28.642a.6.6,0,1,0,0,1.2H31.8v2.871l-4.847,2.931Zm1.209-1.255,3.639,2.2v3.6l-3.639-2.2v-3.6Zm8.48,3.6-3.632,2.2v-3.6l3.632-2.2Zm-.5-4.709-.054.036L32.4,31.425,28.72,29.2l-.06-.036L32.4,26.9l3.735,2.265Z" fill="#fff"/>
    </g>
    <path id="house_1_" data-name="house (1)" d="M13.229,6.455,8.108,1.9a.6.6,0,0,0-.74,0L2.247,6.455a.553.553,0,0,0-.057.8.615.615,0,0,0,.4.171h.569v5.121a.538.538,0,0,0,.569.569h7.966a.538.538,0,0,0,.569-.569V7.423h.569a.538.538,0,0,0,.569-.569A.517.517,0,0,0,13.229,6.455Zm-3.812,5.52H6V10.268a1.707,1.707,0,1,1,3.414,0Z" transform="translate(9.201 9.479)" fill="#fff"/>
  </g>
</svg>
