<svg id="Group_1" data-name="Group 1" xmlns="http://www.w3.org/2000/svg" width="24" height="24" viewBox="0 0 24 24">
  <path id="Path_1" data-name="Path 1" d="M0,0H24V24H0Z" fill="none" stroke="#000" stroke-width="0"/>
  <path id="Path_2" data-name="Path 2" d="M12,22H5a2,2,0,0,1-2-2L3.01,6A1.991,1.991,0,0,1,5,4H6V2H8V4h8V2h2V4h1a2.006,2.006,0,0,1,2,2v6H19V10H5V20h7Zm10.13-5.01.71-.71a1,1,0,0,0,0-1.41l-.71-.71a1,1,0,0,0-1.41,0l-.71.71,2.12,2.12Zm-.71.71L16.12,23H14V20.88l5.3-5.3,2.12,2.12Z" fill="#878787" stroke="#000" stroke-width="0"/>
</svg>
