<svg xmlns="http://www.w3.org/2000/svg" xmlns:xlink="http://www.w3.org/1999/xlink" width="42" height="51" viewBox="0 0 42 51">
  <defs>
    <clipPath id="clip-Custom_Size_1">
      <rect width="42" height="51"/>
    </clipPath>
  </defs>
  <g id="Custom_Size_1" data-name="Custom Size – 1" clip-path="url(#clip-Custom_Size_1)">
    <g id="programming" transform="translate(-5.841 -2)">
      <path id="Path_21" data-name="Path 21" d="M34.877,39.686,29.4,36.526V28.1l5.477,3.16Z" transform="translate(1.022 1.39)" fill="#121212"/>
      <path id="Path_22" data-name="Path 22" d="M34.877,31.478,29.4,28.318,36.773,24l5.477,3.265Z" transform="translate(1.022 1.171)" fill="#121212"/>
      <path id="Path_23" data-name="Path 23" d="M41.973,27.1v8.426L34.6,39.739V31.313Z" transform="translate(1.299 1.336)" fill="#262626"/>
      <path id="Path_24" data-name="Path 24" d="M34.877,28.691,29.4,25.426V17l5.477,3.265Z" transform="translate(1.022 0.799)" fill="#121212"/>
      <path id="Path_25" data-name="Path 25" d="M34.877,20.478,29.4,17.213,36.667,13l5.477,3.16Z" transform="translate(1.022 0.586)" fill="#121212"/>
      <path id="Path_26" data-name="Path 26" d="M41.867,21.582l.105,2.844L34.6,28.744V20.318L41.867,16v2.212" transform="translate(1.299 0.745)" fill="#262626"/>
      <path id="Path_27" data-name="Path 27" d="M34.882,17.586l-5.477-3.16L29.3,6l5.477,3.16Z" transform="translate(1.017 0.213)" fill="#121212"/>
      <path id="Path_28" data-name="Path 28" d="M34.777,9.373,29.3,6.213,36.673,2,42.15,5.16Z" transform="translate(1.017)" fill="#262626"/>
      <path id="Path_29" data-name="Path 29" d="M41.873,5v8.426l-7.267,4.213L34.5,9.213Z" transform="translate(1.294 0.16)" fill="#262626"/>
      <path id="Path_30" data-name="Path 30" d="M25.482,45.086l-5.477-3.16L19.9,33.5l5.477,3.16Z" transform="translate(0.516 1.677)" fill="#121212"/>
      <path id="Path_31" data-name="Path 31" d="M25.377,36.873,19.9,33.713,27.273,29.5l5.477,3.16Z" transform="translate(0.516 1.464)" fill="#121212"/>
      <path id="Path_32" data-name="Path 32" d="M32.473,32.5v8.426l-7.267,4.213L25.1,36.713Z" transform="translate(0.793 1.624)" fill="#262626"/>
      <path id="Path_33" data-name="Path 33" d="M25.377,34.086,19.9,30.926V22.5l5.477,3.16Z" transform="translate(0.516 1.091)" fill="#121212"/>
      <path id="Path_34" data-name="Path 34" d="M25.377,25.873,19.9,22.713,27.273,18.5l5.477,3.16Z" transform="translate(0.516 0.878)" fill="#121212"/>
      <path id="Path_35" data-name="Path 35" d="M32.473,21.5v8.426L25.1,34.139V25.713Z" transform="translate(0.793 1.038)" fill="#262626"/>
      <path id="Path_36" data-name="Path 36" d="M25.377,23.086,19.9,19.926V11.5l5.477,3.16Z" transform="translate(0.516 0.506)" fill="#121212"/>
      <path id="Path_37" data-name="Path 37" d="M26.114,8.132,27.167,7.5l5.477,3.16-7.267,4.213L19.9,11.713l3.581-2.106" transform="translate(0.516 0.293)" fill="#262626"/>
      <path id="Path_38" data-name="Path 38" d="M32.367,10.5l.105,8.426L25.1,23.139V14.713Z" transform="translate(0.793 0.453)" fill="#262626"/>
      <path id="Path_39" data-name="Path 39" d="M15.977,50.586,10.5,47.426V39l5.477,3.16Z" transform="translate(0.016 1.97)" fill="#121212"/>
      <path id="Path_40" data-name="Path 40" d="M15.977,42.373,10.5,39.213,17.767,35l5.477,3.16Zm7.267-4.213.105,8.426L15.977,50.8V42.373Z" transform="translate(0.016 1.757)" fill="#262626"/>
      <path id="Path_41" data-name="Path 41" d="M15.982,39.586l-5.477-3.16L10.4,28l5.477,3.16Z" transform="translate(0.011 1.384)" fill="#121212"/>
      <path id="Path_42" data-name="Path 42" d="M15.877,31.373,10.4,28.213,17.773,24l5.477,3.16ZM23.25,27.16v8.426L15.982,39.8l-.105-8.426Z" transform="translate(0.011 1.171)" fill="#262626"/>
      <path id="Path_43" data-name="Path 43" d="M15.877,28.586,10.4,25.321V17l5.477,3.16Z" transform="translate(0.011 0.799)" fill="#121212"/>
      <path id="Path_44" data-name="Path 44" d="M15.877,20.378,10.4,17.218,17.773,12.9l5.477,3.265Zm7.373-4.213v8.321L15.877,28.8V20.378Z" transform="translate(0.011 0.58)" fill="#262626"/>
      <path id="Path_45" data-name="Path 45" d="M19.363,19.168Zm24.119,9.268c0-.105,0-.211-.105-.211-.105-.105,0,0-2.317-1.369l2.317-1.369c.105-.105.105-.105.105-.211V22.433a.316.316,0,0,0-.632,0v2.738c-5.687,3.265-3.9,2.212-6.846,3.9V21.274l6.846-3.9v1.685a.336.336,0,0,0,.316.316.279.279,0,0,0,.316-.316V16.956c0-.105,0-.211-.105-.211a17.989,17.989,0,0,0-2.317-1.369l2.317-1.369c.105,0,.105-.105.105-.211V5.37c0-.105,0-.211-.105-.211-.105-.105.316.211-5.477-3.16h-.316L30.317,6.213h-.105c-.105,0-.105.105-.105.211V9.057L27.894,7.582a.2.2,0,0,0-.316,0l-1.053.632c-.105.105-.211.211-.105.316s.211.211.316.105l.948-.527c.105.105,3.686,2.106,4.95,2.844-.632.316-6.846,3.9-6.846,3.9l-4.95-2.844,3.265-1.9c.105-.105.211-.211.105-.316s-.211-.211-.316-.105L20.311,11.8c-.105.105-.105.105-.105.211v2.633l-2.212-1.264h-.316l-7.267,4.213h-.105c-.105,0-.105.105-.105.211v8.426a.368.368,0,0,0,.105.211L12.622,27.8l-2.317,1.369c-.105,0-.105.105-.105.211V37.81c0,.105,0,.211.105.211l2.317,1.369-2.317,1.369c-.105.105-.105.105-.105.211V49.4a.368.368,0,0,0,.105.211l5.477,3.16h.211l7.373-4.213c.105,0,.105-.105.105-.211V45.709l2.212,1.264h.211l7.373-4.213c.105,0,.105-.105.105-.211V39.917l2.212,1.264h.211l7.373-4.213c.105,0,.105-.105.105-.211l.211-8.321ZM42.64,16.745c-.105.105-6.425,3.686-6.846,3.9l-2.422-1.369V16.745l2.212,1.264c.105,0,.211.105.316,0l4.424-2.528ZM30.949,20.958l2.106-1.264,2.528,1.475v7.794c-.105-.105-2-1.159-2.106-1.264V22.538c0-.105,0-.211-.105-.211Zm2,9.9c-.211.105-6.846,3.9-6.846,3.9V26.962c1.685-.948,2.738-1.58,3.476-2A65025.69,65025.69,0,0,1,30,24.75c.105,0,.211-.105.316-.211l.105-.105a.1.1,0,0,0,.105-.105c.527-.316,1.264-.737,2.317-1.369.105.105.105,5.9.105,7.9ZM42.956,13.48c-.105.105-6.846,3.9-6.846,3.9V9.583l6.846-3.9ZM37.69,2.316,42.64,5.16l-6.846,3.9-4.95-2.844,6.846-3.9ZM30.633,9.162V6.74c.105,0,4.634,2.633,4.95,2.844v7.794c-.105-.105-2-1.159-2.106-1.264V10.847c0-.105,0-.105-.105-.211h-.105L30.633,9.162Zm2.317,2.212v7.794l-.316.211c-.105.105-6.425,3.686-6.425,3.686V15.271c.105,0,6.319-3.686,6.741-3.9ZM25.893,23.8H26c.105-.105,4.213-2.422,4.424-2.528a23.667,23.667,0,0,0,2.212,1.264c-.105.105-6,3.476-6.741,3.9l-2.422-1.369V22.538L25.683,23.8h.211Zm-4.845,2.949,2.106-1.264,2.528,1.475v7.794c-.105-.105-2-1.159-2.106-1.264V28.226a.368.368,0,0,0-.105-.211l-2.422-1.264Zm2,9.8c-3.9,2.212-6.741,3.9-6.741,3.9V32.649c1.685-.948,2.738-1.58,3.476-2A.368.368,0,0,1,20,30.543a.368.368,0,0,1,.211-.105.1.1,0,0,0,.105-.105c.105,0,.105-.105.211-.105a.1.1,0,0,0,.105-.105h.105c.527-.316,1.264-.737,2.317-1.369-.105.105,0,5.9,0,7.794ZM19.363,19.168h0c.105,0,.105,0,.105-.105h.211c.421-.316,1.369-.843,3.16-1.9v7.794c-.843.527-6.425,3.686-6.846,3.9V21.064a33.511,33.511,0,0,0,3.37-1.9Zm6.214-3.792V23.17c-.211-.105-2.106-1.264-2.106-1.264V16.64a.368.368,0,0,0-.105-.211c-.737-.421-2.633-1.475-2.738-1.58V12.427l4.95,2.949ZM17.783,13.8c.105.105,4.634,2.738,4.95,2.844-.105.105-6.741,3.9-6.741,3.9l-4.95-2.844,6.741-3.9ZM10.727,26.014V18.22l.527.316,4.424,2.528v7.794c-.105,0-4.634-2.633-4.95-2.844Zm2.422,2,2.633,1.475c.105,0,.211.105.316,0s4.213-2.422,4.424-2.528a23.666,23.666,0,0,0,2.212,1.264c-.211.105-6.425,3.686-6.846,3.9l-4.95-2.738,2.212-1.369ZM10.727,37.6V29.805c.105.105,4.634,2.738,4.95,2.844v7.794C15.572,40.443,10.727,37.6,10.727,37.6Zm0,11.586V41.391l4.95,2.844v7.794Zm5.266-5.372-4.95-2.844,2.212-1.264,2.633,1.475H16.1c.105-.105,4.213-2.422,4.424-2.528a23.666,23.666,0,0,0,2.212,1.264c-.105,0-6.741,3.9-6.741,3.9Zm.211,8.321V44.34c2.212-1.264,3.054-1.791,3.37-2h-.105c.316-.211,1.264-.737,3.476-2v7.794l-6.741,4Zm7.373-7.057V39.811c0-.105,0-.211-.105-.211s-2-1.159-2.317-1.369l2.106-1.264,2.528,1.475v7.794l-2.212-1.159Zm2.317-6.951-2.422-1.369V34.229l2.212,1.264H26c.105-.105,4.213-2.422,4.424-2.528a23.666,23.666,0,0,0,2.212,1.264s-5.9,3.37-6.741,3.9Zm.316,8.215V38.547c.105-.105,6.846-3.9,6.846-3.9v7.794Zm7.373-6.951V34.229c0-.105,0-.211-.105-.211l-2.422-1.475,2.106-1.264,2.528,1.475v7.794L33.582,39.39ZM35.9,32.333l-2.422-1.369V28.436L35.688,29.7a.2.2,0,0,0,.316,0l4.424-2.528,2.212,1.264-6.741,3.9Zm.316,8.215V32.755l6.846-3.9v7.794Z" fill="#93009d"/>
      <path id="Path_46" data-name="Path 46" d="M28.1,29.6a.227.227,0,0,1-.211-.211l1.159-3.581c0-.105.105-.105.211-.105s.105.105.105.211l-1.159,3.581A.1.1,0,0,1,28.1,29.6Zm-.632-.105-1.264-.211c-.105,0-.105,0-.105-.105v-.211l1.264-1.685c.105-.105.211-.105.211,0,.105.105.105.211,0,.211L26.521,28.86l.948.105c.105,0,.211.105.105.211C27.68,29.386,27.575,29.492,27.469,29.492ZM30,28.017h0c-.211-.105-.211-.211-.105-.316l1.053-1.369L30,26.227c-.105,0-.211-.105-.105-.211s.105-.105.211-.105l1.264.211c.105,0,.105,0,.105.105v.211l-1.264,1.685A.326.326,0,0,0,30,28.017Z" transform="translate(0.846 1.262)" fill="#93009d"/>
    </g>
  </g>
</svg>
