<svg xmlns="http://www.w3.org/2000/svg" width="34" height="33.751" viewBox="0 0 34 33.751">
  <g id="Group_1" data-name="Group 1" transform="translate(-201.524 -149.503)">
    <path id="Path_1" data-name="Path 1" d="M-48.85,103.144l-.395-.409c-.155-.161-3.807-3.981-4.762-8.237a7.528,7.528,0,0,1,1.6-6.365,5.928,5.928,0,0,1,3.546-2.275,5.6,5.6,0,0,1,3.459,2.18,7.6,7.6,0,0,1,1.6,6.438c-.958,4.275-4.516,8.094-4.667,8.254Zm-.006-16.2a5.246,5.246,0,0,0-2.713,1.884,6.461,6.461,0,0,0-1.375,5.457c.706,3.147,3.126,6.162,4.084,7.262a19.1,19.1,0,0,0,4-7.284,6.536,6.536,0,0,0-1.375-5.529A4.8,4.8,0,0,0-48.857,86.942Z" transform="translate(267.406 63.645)" fill="#fff"/>
    <path id="Path_3" data-name="Path 3" d="M4.546,17.289l-.453-.6A23.417,23.417,0,0,1,.118,8.209,7.839,7.839,0,0,1,1.751,1.685,4.388,4.388,0,0,1,4.42,0,4.189,4.189,0,0,1,7.015,1.6a8,8,0,0,1,1.627,6.6,25.331,25.331,0,0,1-3.671,8.467ZM4.422,1.084A3.709,3.709,0,0,0,2.573,2.39,6.776,6.776,0,0,0,1.186,8.031,21.486,21.486,0,0,0,4.5,15.4,23.539,23.539,0,0,0,7.573,8.028,6.924,6.924,0,0,0,6.193,2.31,3.312,3.312,0,0,0,4.422,1.084Z" transform="translate(231.144 154.011) rotate(60)" fill="#fff"/>
    <path id="Path_4" data-name="Path 4" d="M4.546,17.289l-.453-.6A23.417,23.417,0,0,1,.118,8.209,7.839,7.839,0,0,1,1.751,1.685,4.388,4.388,0,0,1,4.42,0,4.189,4.189,0,0,1,7.015,1.6a8,8,0,0,1,1.627,6.6,25.331,25.331,0,0,1-3.671,8.467ZM4.422,1.084A3.709,3.709,0,0,0,2.573,2.39,6.776,6.776,0,0,0,1.186,8.031,21.486,21.486,0,0,0,4.5,15.4,23.539,23.539,0,0,0,7.573,8.028,6.924,6.924,0,0,0,6.193,2.31,3.312,3.312,0,0,0,4.422,1.084Z" transform="translate(201.524 161.802) rotate(-60)" fill="#fff"/>
    <path id="Path_5" data-name="Path 5" d="M4.546,17.289l-.453-.6A23.417,23.417,0,0,1,.118,8.209,7.839,7.839,0,0,1,1.751,1.685,4.388,4.388,0,0,1,4.42,0,4.189,4.189,0,0,1,7.015,1.6a8,8,0,0,1,1.627,6.6,25.331,25.331,0,0,1-3.671,8.467ZM4.422,1.084A3.709,3.709,0,0,0,2.573,2.39,6.776,6.776,0,0,0,1.186,8.031,21.486,21.486,0,0,0,4.5,15.4,23.539,23.539,0,0,0,7.573,8.028,6.924,6.924,0,0,0,6.193,2.31,3.312,3.312,0,0,0,4.422,1.084Z" transform="translate(206.2 178.63) rotate(-120)" fill="#fff"/>
    <path id="Path_6" data-name="Path 6" d="M4.546,17.289l-.453-.6A23.417,23.417,0,0,1,.118,8.209,7.839,7.839,0,0,1,1.751,1.685,4.388,4.388,0,0,1,4.42,0,4.189,4.189,0,0,1,7.015,1.6a8,8,0,0,1,1.627,6.6,25.331,25.331,0,0,1-3.671,8.467ZM4.422,1.084A3.709,3.709,0,0,0,2.573,2.39,6.776,6.776,0,0,0,1.186,8.031,21.486,21.486,0,0,0,4.5,15.4,23.539,23.539,0,0,0,7.573,8.028,6.924,6.924,0,0,0,6.193,2.31,3.312,3.312,0,0,0,4.422,1.084Z" transform="translate(235.524 170.846) rotate(120)" fill="#fff"/>
    <path id="Path_7" data-name="Path 7" d="M-49.047,83.229l.4.437c.146.16,3.575,3.979,4.494,8.229A7.78,7.78,0,0,1-45.8,98.469a5.32,5.32,0,0,1-3.25,2.062,5.634,5.634,0,0,1-3.338-2.153,7.685,7.685,0,0,1-1.654-6.461c.924-4.275,4.444-8.095,4.594-8.255Zm0,16.218a4.53,4.53,0,0,0,2.418-1.675A6.714,6.714,0,0,0-45.22,92.1a19.2,19.2,0,0,0-3.837-7.241,18.906,18.906,0,0,0-3.922,7.262,6.618,6.618,0,0,0,1.422,5.558A4.942,4.942,0,0,0-49.049,99.447Z" transform="translate(267.771 82.723)" fill="#fff"/>
  </g>
</svg>
