<svg xmlns="http://www.w3.org/2000/svg" xmlns:xlink="http://www.w3.org/1999/xlink" width="42" height="51" viewBox="0 0 42 51">
  <defs>
    <clipPath id="clip-Custom_Size_1">
      <rect width="42" height="51"/>
    </clipPath>
  </defs>
  <g id="Custom_Size_1" data-name="Custom Size – 1" clip-path="url(#clip-Custom_Size_1)">
    <g id="Group_2" data-name="Group 2" transform="translate(-5.099 -0.446)">
      <path id="Path_74" data-name="Path 74" d="M41.2,6.6C38.1,4.8,33.7,5,28.9,7.8c-9.6,5.5-17.3,18.9-17.3,29.9,0,5.5,1.9,9.3,5.1,11.1l-5.9-3.4c-3.1-1.8-5-5.7-5-11.1,0-11,7.7-24.4,17.3-29.9,4.8-2.8,9.2-3,12.3-1.2l5.8,3.4Z" fill="#121212"/>
      <path id="Path_75" data-name="Path 75" d="M28.9,7.8c9.6-5.5,17.3-1.1,17.4,9.9,0,11-7.7,24.4-17.3,29.9s-17.4,1.1-17.4-9.9S19.3,13.3,28.9,7.8Z" fill="#262626"/>
      <path id="Path_76" data-name="Path 76" d="M41.4,6.4c-5.6-3.2-6.1-3.5-5.9-3.5-3.4-2-7.8-1.5-12.6,1.2-.1.1-.2.2-.1.3s.2.2.3.1C27.7,1.9,32,1.4,35.2,3.3l3.4,2a11.451,11.451,0,0,0-3.2-.1c-4.8.5-9.5,3.8-12.9,7.3C16.2,19,11.4,29,11.4,37.7c0,3.3.8,6.9,2.9,9.4l-3.4-2A8.062,8.062,0,0,1,8,42.2a14.81,14.81,0,0,1-2-8c0-8.2,4.5-18.3,11.2-25a.283.283,0,0,0-.4-.4C10,15.7,5.4,25.9,5.5,34.3c0,5.4,1.8,9.4,5.2,11.3L16.6,49h.1c3.9,2.3,8.7,1,12.6-1.2,9.6-5.6,17.4-19.1,17.4-30.1-.2-5.3-2-9.4-5.3-11.3Zm-12.5,41c-4.6,2.6-8.8,3.1-12.1,1.2-3.6-2.1-4.9-6.6-4.9-10.9,0-7.9,4.1-18,11.3-25.1,3.3-3.3,7.7-6.4,12.3-6.9A8.969,8.969,0,0,1,41,6.8c3.2,1.8,4.9,5.7,4.9,10.9.2,10.9-7.5,24.2-17,29.7Z" fill="#aa01b5"/>
      <path id="Path_77" data-name="Path 77" d="M28.1,37.4l-1.6-.9.7-11.2,1.6.9Zm-2.2-9.5-1.6-1,4.1-8.5,1.6,1Z" fill="#171717"/>
      <path id="Path_78" data-name="Path 78" d="M31.5,30.1l.4,5.2-3.8,2.1.7-11.2-2.9,1.7L30,19.4l4,3.8-2.9,1.7.2,2.5Z" fill="#262626"/>
      <path id="Path_79" data-name="Path 79" d="M41.5,21.1l2.2-1.2c.1-.1.2-.2.1-.3s-.2-.2-.3-.1l-1.9,1.1v-.1c0-3.6-1.2-6.3-3.3-7.8l.9-1.6a.224.224,0,1,0-.4-.2l-.9,1.6h-.1c-2.4-1.4-5.6-1.1-9,.9V11.3c0-.1-.1-.2-.3-.2-.1,0-.2.1-.2.3v2.4a27.355,27.355,0,0,0-8.5,9.3l-.9-.5a.224.224,0,0,0-.2.4l.9.5a24.6,24.6,0,0,0-3.2,11.4v.4l-2.1,1.2c-.1.1-.2.2-.1.3s.2.2.3.1l1.9-1.1c.2,3.4,1.5,5.9,3.7,7.2l-.9,1.6a.224.224,0,0,0,.4.2l1-1.7a6.71,6.71,0,0,0,2.8.6,10.578,10.578,0,0,0,4.9-1.3v2.2c0,.1.1.2.3.2.1,0,.2-.1.2-.3V42c.1,0,.2-.1.3-.2a25.642,25.642,0,0,0,8.4-8.6l.8.5h.1c.1,0,.2,0,.2-.1a.192.192,0,0,0-.1-.3l-.8-.5a24.126,24.126,0,0,0,3.8-11.7Zm-5,11a.192.192,0,0,0-.3.1c0,.1,0,.3.1.3l.9.5A24.467,24.467,0,0,1,29,41.4V39.2c0-.1-.1-.2-.3-.2-.1,0-.2.1-.2.3v2.5c-2.8,1.5-5.4,1.8-7.5.8l.9-1.6a.224.224,0,0,0-.4-.2l-.9,1.6c-2.1-1.2-3.3-3.7-3.5-7.1L19.3,34c.1-.1.2-.2.1-.3s-.2-.2-.3-.1l-1.9,1.1v-.1a24.9,24.9,0,0,1,3.1-11.2l.8.5h.1c.1,0,.2,0,.2-.1a.192.192,0,0,0-.1-.3L20.2,23a25.972,25.972,0,0,1,8-9v2.2c0,.1.1.2.3.2.1,0,.2-.1.2-.3V13.6c.1-.1.2-.1.3-.2a11.246,11.246,0,0,1,5.4-1.7,6.5,6.5,0,0,1,3.1.8h.1l-1,1.7a.192.192,0,0,0,.1.3h.1c.1,0,.2,0,.2-.1l1-1.7c1.9,1.4,3,4,3,7.4v.4L38.8,22c-.1.1-.2.2-.1.3,0,.1.1.1.2.1H39l1.9-1.1a25.977,25.977,0,0,1-3.7,11.3Z"/>
      <path id="Path_80" data-name="Path 80" d="M30.1,19.2c-.1-.1-1.1-.6-1.7-1a.192.192,0,0,0-.3.1l-4,8.5c0,.1,0,.3.1.3,1.7,1,1.6,1,1.7,1H26c.1-.1.9-.5.8-.4l-.6,8.8c0,.1,0,.2.1.2l1.6.9h.2l3.8-2.2c.1,0,.1-.1.1-.2L31.3,25l2.8-1.6c.1,0,.1-.1.1-.2s0-.1-.1-.2l-4-3.8Zm-4.3,8.3-1.2-.7,3.8-8.1,1.2.7ZM27.9,37l-1.1-.6.6-9,1.2-.7ZM31,24.7c-.1.1-.1.1-.1.2l.7,10.2L28.4,37l.7-10.7c0-.1-.1-.3-.2-.3s-2.2,1.2-2.3,1.3c0-.1,3.6-7.6,3.5-7.5l3.6,3.4L31,24.7Z" fill="#aa01b5"/>
    </g>
  </g>
</svg>
