<svg xmlns="http://www.w3.org/2000/svg" width="61.088" height="43.102" viewBox="0 0 61.088 43.102">
  <g id="dao" transform="translate(0.218 -75.757)">
    <path id="Path_10" data-name="Path 10" d="M60.62,97.308a3.2,3.2,0,0,0-3-3.189l-2.084-8.475a3.2,3.2,0,1,0-4.478-4.172L33.485,78.735a3.2,3.2,0,0,0-6.322,0L9.6,81.472a3.2,3.2,0,1,0-4.478,4.172L3.033,94.118a3.2,3.2,0,0,0,0,6.379l2.084,8.475A3.2,3.2,0,1,0,9.6,113.143l17.568,2.737a3.2,3.2,0,0,0,6.322,0l17.568-2.737a3.2,3.2,0,1,0,4.478-4.172l2.084-8.469a3.2,3.2,0,0,0,3-3.2Zm-8.192,11.6-2-2a.947.947,0,0,0-1.34,1.34l2,2a3.183,3.183,0,0,0-.334,1.033L33.193,114.01a3.211,3.211,0,0,0-1.922-1.647v-5.35H45.354a3.787,3.787,0,0,0,3.787-3.787v-4.97h5.232a3.2,3.2,0,0,0,1.4,1.789l-2.091,8.507A3.17,3.17,0,0,0,52.429,108.905Zm-24.971,5.108L9.892,111.272a3.183,3.183,0,0,0-.334-1.033l3.776-3.776a3.757,3.757,0,0,0,1.96.549H29.378v5.35a3.211,3.211,0,0,0-1.922,1.647Zm-20.5-5.463-2.091-8.507a3.2,3.2,0,0,0,1.4-1.789h5.232v4.97a3.763,3.763,0,0,0,.5,1.884l-3.792,3.8a3.177,3.177,0,0,0-1.258-.355ZM8.22,85.71,12.007,89.5a3.763,3.763,0,0,0-.5,1.888v4.97H6.276a3.2,3.2,0,0,0-1.4-1.789l2.091-8.5A3.17,3.17,0,0,0,8.22,85.71Zm21.157-3.457V87.6H24.505a.947.947,0,1,0,0,1.893H45.354a1.894,1.894,0,0,1,1.893,1.894v11.834a1.893,1.893,0,0,1-1.893,1.894H15.295a1.893,1.893,0,0,1-1.893-1.894V91.391A1.894,1.894,0,0,1,15.295,89.5h2.751a.947.947,0,1,0,0-1.893H15.295a3.757,3.757,0,0,0-1.96.548L9.559,84.375a3.184,3.184,0,0,0,.334-1.032l17.563-2.736a3.211,3.211,0,0,0,1.922,1.646Zm3.815-1.647,17.563,2.737a3.183,3.183,0,0,0,.334,1.033l-3.776,3.776a3.757,3.757,0,0,0-1.96-.549H31.271v-5.35A3.211,3.211,0,0,0,33.193,80.606Zm20.494,5.465,2.091,8.5a3.2,3.2,0,0,0-1.4,1.789H49.141v-4.97a3.763,3.763,0,0,0-.5-1.884l3.787-3.793A3.17,3.17,0,0,0,53.687,86.071Zm5.04,11.237a1.3,1.3,0,1,1-1.3-1.3,1.3,1.3,0,0,1,1.3,1.3ZM53.917,81.586a1.3,1.3,0,1,1-.921.38A1.3,1.3,0,0,1,53.917,81.586ZM30.324,77.9a1.3,1.3,0,1,1-1.3,1.3A1.3,1.3,0,0,1,30.324,77.9ZM5.811,81.966a1.3,1.3,0,1,1,0,1.841A1.3,1.3,0,0,1,5.811,81.966ZM1.922,97.308a1.3,1.3,0,1,1,1.3,1.3A1.3,1.3,0,0,1,1.922,97.308ZM5.811,112.65a1.3,1.3,0,1,1,1.841,0,1.3,1.3,0,0,1-1.841,0Zm24.514,4.066a1.3,1.3,0,1,1,1.3-1.3,1.3,1.3,0,0,1-1.3,1.3Zm24.514-4.066a1.3,1.3,0,1,1,0-1.841A1.3,1.3,0,0,1,54.838,112.65Z" fill="#fff" stroke="#fff" stroke-width="0.5"/>
    <path id="Path_11" data-name="Path 11" d="M147.527,175.894h.025a.947.947,0,1,0,0-1.894h-.025a.947.947,0,0,0,0,1.894ZM143,180.154v7.1a.947.947,0,0,0,.947.947h2.367a4.5,4.5,0,1,0,0-8.994h-2.367A.947.947,0,0,0,143,180.154Zm1.893.947h1.42a2.6,2.6,0,0,1,0,5.207h-1.42Zm20.947,7.1a3.905,3.905,0,0,0,3.905-3.905v-1.183a3.905,3.905,0,0,0-7.811,0V184.3A3.905,3.905,0,0,0,165.84,188.2Zm-2.012-5.089a2.012,2.012,0,0,1,4.024,0V184.3a2.012,2.012,0,0,1-4.024,0Zm-10.3,5.089a.947.947,0,0,0,.947-.947v-1.065h3.787v1.065a.947.947,0,0,0,1.894,0v-4.024a3.787,3.787,0,0,0-7.574,0v4.024A.947.947,0,0,0,153.533,188.2Zm2.84-6.864a1.893,1.893,0,0,1,1.893,1.893V184.3h-3.787v-1.065A1.894,1.894,0,0,1,156.373,181.337Z" transform="translate(-126.048 -86.396)" fill="#fff" stroke="#fff" stroke-width="0.5"/>
  </g>
</svg>
