<svg xmlns="http://www.w3.org/2000/svg" width="48.522" height="43.262" viewBox="0 0 48.522 43.262">
  <g id="dapp" transform="translate(0.197 -27.798)">
    <g id="Path_8" data-name="Path 8" transform="translate(-77.008 -104.193)" fill="#fff">
      <path d="M 85.75190734863281 160.5509796142578 C 85.28216552734375 160.5509796142578 84.89999389648438 160.1688232421875 84.89999389648438 159.6990814208984 L 84.89999389648438 159.589111328125 C 84.89999389648438 159.1193695068359 85.28216552734375 158.7371978759766 85.75190734863281 158.7371978759766 C 86.22165679931641 158.7371978759766 86.60382843017578 159.1193695068359 86.60382843017578 159.589111328125 L 86.60382843017578 159.6990814208984 C 86.60382843017578 160.1688232421875 86.22165679931641 160.5509796142578 85.75190734863281 160.5509796142578 Z M 97.78254699707031 144.6038360595703 L 96.93663787841797 144.6038360595703 C 96.46689605712891 144.6038360595703 96.08472442626953 144.2216644287109 96.08472442626953 143.7519226074219 C 96.08472442626953 143.2821807861328 96.46689605712891 142.9000091552734 96.93663787841797 142.9000091552734 L 97.78254699707031 142.9000091552734 C 98.25228881835938 142.9000091552734 98.63446044921875 143.2821807861328 98.63446044921875 143.7519226074219 C 98.63446044921875 144.2216644287109 98.25228881835938 144.6038360595703 97.78254699707031 144.6038360595703 Z M 94.02297973632812 144.6038360595703 L 93.17707061767578 144.6038360595703 C 92.70732879638672 144.6038360595703 92.32515716552734 144.2216644287109 92.32515716552734 143.7519226074219 C 92.32515716552734 143.2821807861328 92.70732879638672 142.9000091552734 93.17707061767578 142.9000091552734 L 94.02297973632812 142.9000091552734 C 94.49271392822266 142.9000091552734 94.87488555908203 143.2821807861328 94.87488555908203 143.7519226074219 C 94.87488555908203 144.2216644287109 94.49271392822266 144.6038360595703 94.02297973632812 144.6038360595703 Z M 90.26339721679688 144.6038360595703 L 89.41749572753906 144.6038360595703 C 88.94774627685547 144.6038360595703 88.56557464599609 144.2216644287109 88.56557464599609 143.7519226074219 C 88.56557464599609 143.2821807861328 88.94774627685547 142.9000091552734 89.41749572753906 142.9000091552734 L 90.26339721679688 142.9000091552734 C 90.73314666748047 142.9000091552734 91.11531829833984 143.2821807861328 91.11531829833984 143.7519226074219 C 91.11531829833984 144.2216644287109 90.73314666748047 144.6038360595703 90.26339721679688 144.6038360595703 Z" stroke="none"/>
      <path d="M 85.75190734863281 160.4509887695312 C 86.16719055175781 160.4509887695312 86.50382995605469 160.1143493652344 86.50382995605469 159.6990814208984 L 86.50382995605469 159.589111328125 C 86.50382995605469 159.1738433837891 86.16719055175781 158.8372039794922 85.75190734863281 158.8372039794922 C 85.33663940429688 158.8372039794922 85 159.1738433837891 85 159.589111328125 L 85 159.6990814208984 C 85 160.1143493652344 85.33663940429688 160.4509887695312 85.75190734863281 160.4509887695312 M 97.78254699707031 144.5038299560547 C 98.19781494140625 144.5038299560547 98.53445434570312 144.1671905517578 98.53445434570312 143.7519226074219 C 98.53445434570312 143.3366394042969 98.19781494140625 143 97.78254699707031 143 L 96.93663787841797 143 C 96.52136993408203 143 96.18473052978516 143.3366394042969 96.18473052978516 143.7519226074219 C 96.18473052978516 144.1671905517578 96.52136993408203 144.5038299560547 96.93663787841797 144.5038299560547 L 97.78254699707031 144.5038299560547 M 94.02297973632812 144.5038299560547 C 94.43824005126953 144.5038299560547 94.77488708496094 144.1671905517578 94.77488708496094 143.7519226074219 C 94.77488708496094 143.3366394042969 94.43824005126953 143 94.02297973632812 143 L 93.17707061767578 143 C 92.76179504394531 143 92.42515563964844 143.3366394042969 92.42515563964844 143.7519226074219 C 92.42515563964844 144.1671905517578 92.76179504394531 144.5038299560547 93.17707061767578 144.5038299560547 L 94.02297973632812 144.5038299560547 M 90.26339721679688 144.5038299560547 C 90.67866516113281 144.5038299560547 91.01531982421875 144.1671905517578 91.01531982421875 143.7519226074219 C 91.01531982421875 143.3366394042969 90.67866516113281 143 90.26339721679688 143 L 89.41749572753906 143 C 89.00222778320312 143 88.66558074951172 143.3366394042969 88.66558074951172 143.7519226074219 C 88.66558074951172 144.1671905517578 89.00222778320312 144.5038299560547 89.41749572753906 144.5038299560547 L 90.26339721679688 144.5038299560547 M 85.75190734863281 160.6509857177734 C 85.22702789306641 160.6509857177734 84.79999542236328 160.2239685058594 84.79999542236328 159.6990814208984 L 84.79999542236328 159.589111328125 C 84.79999542236328 159.0642395019531 85.22702789306641 158.63720703125 85.75190734863281 158.63720703125 C 86.27679443359375 158.63720703125 86.70382690429688 159.0642395019531 86.70382690429688 159.589111328125 L 86.70382690429688 159.6990814208984 C 86.70382690429688 160.2239685058594 86.27679443359375 160.6509857177734 85.75190734863281 160.6509857177734 Z M 97.78254699707031 144.7038269042969 L 96.93663787841797 144.7038269042969 C 96.41175842285156 144.7038269042969 95.98472595214844 144.2768096923828 95.98472595214844 143.7519226074219 C 95.98472595214844 143.2270355224609 96.41175842285156 142.8000030517578 96.93663787841797 142.8000030517578 L 97.78254699707031 142.8000030517578 C 98.30742645263672 142.8000030517578 98.73445892333984 143.2270355224609 98.73445892333984 143.7519226074219 C 98.73445892333984 144.2768096923828 98.30742645263672 144.7038269042969 97.78254699707031 144.7038269042969 Z M 94.02297973632812 144.7038269042969 L 93.17707061767578 144.7038269042969 C 92.65218353271484 144.7038269042969 92.22515869140625 144.2768096923828 92.22515869140625 143.7519226074219 C 92.22515869140625 143.2270355224609 92.65218353271484 142.8000030517578 93.17707061767578 142.8000030517578 L 94.02297973632812 142.8000030517578 C 94.54785919189453 142.8000030517578 94.97488403320312 143.2270355224609 94.97488403320312 143.7519226074219 C 94.97488403320312 144.2768096923828 94.54785919189453 144.7038269042969 94.02297973632812 144.7038269042969 Z M 90.26339721679688 144.7038269042969 L 89.41749572753906 144.7038269042969 C 88.89260864257812 144.7038269042969 88.465576171875 144.2768096923828 88.465576171875 143.7519226074219 C 88.465576171875 143.2270355224609 88.89260864257812 142.8000030517578 89.41749572753906 142.8000030517578 L 90.26339721679688 142.8000030517578 C 90.78828430175781 142.8000030517578 91.21531677246094 143.2270355224609 91.21531677246094 143.7519226074219 C 91.21531677246094 144.2768096923828 90.78828430175781 144.7038269042969 90.26339721679688 144.7038269042969 Z" stroke="none" fill="#fff"/>
    </g>
    <g id="Path_9" data-name="Path 9" fill="#fff">
      <path d="M 24.0641040802002 70.9605712890625 C 23.09114265441895 70.9605712890625 22.24345588684082 70.31664276123047 21.97912216186523 69.38619995117188 L 6.759789943695068 67.44626617431641 C 6.666270732879639 67.6041259765625 6.553339958190918 67.74954986572266 6.42342472076416 67.87931060791016 C 6.01393461227417 68.28880310058594 5.469444751739502 68.51434326171875 4.890284538269043 68.51434326171875 C 4.311124801635742 68.51434326171875 3.766624689102173 68.28880310058594 3.357094764709473 67.8792724609375 C 2.947564840316772 67.46974182128906 2.72202467918396 66.92525482177734 2.722034692764282 66.34609222412109 C 2.722034692764282 65.76692962646484 2.947574853897095 65.22244262695312 3.357104778289795 64.81291198730469 C 3.468353509902954 64.70303344726562 3.590862512588501 64.60536956787109 3.722268342971802 64.52166748046875 L 1.558167695999146 51.53426361083984 C 0.5950708985328674 51.29957580566406 -0.09686523675918579 50.42466735839844 -0.09686523675918579 49.42801284790039 C -0.09686523675918579 48.43134689331055 0.595071017742157 47.55644607543945 1.558167815208435 47.32176971435547 L 3.722268342971802 34.33437347412109 C 3.590868473052979 34.25068283081055 3.468408823013306 34.15306854248047 3.357534646987915 34.04356002807617 C 2.547894716262817 33.19631195068359 2.563674688339233 31.83652114868164 3.390684843063354 31.01031112670898 C 3.800044775009155 30.60134124755859 4.344194889068604 30.37612152099609 4.922924995422363 30.37612152099609 C 5.484124660491943 30.37612152099609 6.016474723815918 30.58989143371582 6.421914577484131 30.97805213928223 C 6.553191184997559 31.10916900634766 6.666267871856689 31.25473594665527 6.759789943695068 31.41258430480957 L 21.97912216186523 29.4726619720459 C 22.24345588684082 28.54222297668457 23.09114265441895 27.89829254150391 24.0641040802002 27.89829254150391 C 25.03706741333008 27.89829254150391 25.88475036621094 28.54221153259277 26.14908409118652 29.4726505279541 L 41.36841201782227 31.40977668762207 C 41.46191787719727 31.25194358825684 41.57485198974609 31.10651206970215 41.70477294921875 30.97671127319336 C 42.11427307128906 30.56722259521484 42.65876388549805 30.3416919708252 43.2379264831543 30.3416919708252 C 43.81708526611328 30.3416919708252 44.36157608032227 30.56722259521484 44.77110290527344 30.97675132751465 C 45.18063354492188 31.38628196716309 45.40617370605469 31.93078231811523 45.40617370605469 32.50994110107422 C 45.40617370605469 33.08910369873047 45.18063354492188 33.63359069824219 44.77110290527344 34.04312133789062 C 44.65986633300781 34.15300369262695 44.537353515625 34.25066757202148 44.40594100952148 34.33437347412109 L 46.57009887695312 47.32177352905273 C 47.53333282470703 47.55637741088867 48.22537612915039 48.43127822875977 48.22537612915039 49.42801284790039 C 48.22534561157227 50.42478561401367 47.53328323364258 51.29969787597656 46.57003784179688 51.53428268432617 L 44.40594100952148 64.52166748046875 C 44.53736877441406 64.60537719726562 44.65980911254883 64.70297241210938 44.77066421508789 64.81246948242188 C 45.18063354492188 65.22244262695312 45.40617370605469 65.76692962646484 45.40617370605469 66.34609222412109 C 45.40617370605469 66.92525482177734 45.18063354492188 67.46974182128906 44.77110290527344 67.8792724609375 C 44.36157608032227 68.28880310058594 43.817138671875 68.51434326171875 43.23809814453125 68.51434326171875 C 43.2380256652832 68.51434326171875 43.23797607421875 68.51434326171875 43.2379035949707 68.51434326171875 C 42.65870666503906 68.51428985595703 42.11421585083008 68.28874969482422 41.70474624633789 67.87928009033203 C 41.57484817504883 67.74952697753906 41.46192169189453 67.60411071777344 41.36841583251953 67.44626617431641 L 26.14908790588379 69.38619995117188 C 25.8847541809082 70.31664276123047 25.03706741333008 70.9605712890625 24.0641040802002 70.9605712890625 Z M 24.0641040802002 68.32588195800781 C 23.80829429626465 68.32588195800781 23.60017395019531 68.53400421142578 23.60017395019531 68.78982543945312 C 23.60017395019531 69.04563140869141 23.80829429626465 69.25375366210938 24.0641040802002 69.25375366210938 C 24.31992530822754 69.25375366210938 24.52804565429688 69.04563140869141 24.52804565429688 68.78982543945312 C 24.52804565429688 68.53400421142578 24.31992530822754 68.32588195800781 24.0641040802002 68.32588195800781 Z M 6.973682880401611 65.75257873535156 L 22.1954460144043 67.69245147705078 C 22.4305591583252 67.29457092285156 22.78777885437012 66.97998809814453 23.21219444274902 66.79706573486328 L 23.21219444274902 62.96849060058594 L 10.99959468841553 62.96849060058594 C 10.56674861907959 62.96849060058594 10.13354110717773 62.8761100769043 9.740009307861328 62.7008056640625 L 6.901395320892334 65.5394287109375 C 6.929238319396973 65.60906219482422 6.953422069549561 65.68036651611328 6.973682880401611 65.75257873535156 Z M 24.91602516174316 66.79706573486328 C 25.34044075012207 66.97998809814453 25.69766044616699 67.29457092285156 25.93277359008789 67.69245147705078 L 41.1545295715332 65.75257873535156 C 41.1747932434082 65.68037414550781 41.198974609375 65.60908508300781 41.22682571411133 65.53943634033203 L 38.38819885253906 62.7008056640625 C 37.99467468261719 62.8761100769043 37.56159591674805 62.96849060058594 37.13105392456055 62.96849060058594 L 24.91602516174316 62.96849060058594 L 24.91602516174316 66.79706573486328 Z M 43.25087356567383 65.86829376220703 C 43.12269592285156 65.86829376220703 42.9990234375 65.92205047607422 42.91157531738281 66.01579284667969 C 42.72842407226562 66.19923400878906 42.72859573364258 66.49356079101562 42.90959548950195 66.67435455322266 C 42.9972038269043 66.76184844970703 43.1136360168457 66.81004333496094 43.23744583129883 66.81003570556641 C 43.34622192382812 66.81002044677734 43.44926071166992 66.77285003662109 43.53207397460938 66.70451354980469 L 43.56729507446289 66.67150115966797 C 43.69136428833008 66.55576324462891 43.74233627319336 66.38174438476562 43.70031356811523 66.21736145019531 C 43.6583137512207 66.052978515625 43.53009414672852 65.92475891113281 43.36571502685547 65.88275146484375 C 43.32816314697266 65.87315368652344 43.28953552246094 65.86829376220703 43.25087356567383 65.86829376220703 Z M 4.889784812927246 65.88216400146484 C 4.765904903411865 65.88216400146484 4.64942455291748 65.93040466308594 4.56180477142334 66.01798248291016 C 4.474134922027588 66.10562133789062 4.425854682922363 66.22214508056641 4.425854682922363 66.34609985351562 C 4.425854682922363 66.47006225585938 4.474134922027588 66.58659362792969 4.56180477142334 66.67422485351562 C 4.649434566497803 66.76181030273438 4.765914916992188 66.81004333496094 4.889784812927246 66.81003570556641 C 5.013824939727783 66.81003570556641 5.130404949188232 66.76168823242188 5.218044757843018 66.67394256591797 C 5.398594856262207 66.4931640625 5.398594856262207 66.19902038574219 5.218044757843018 66.01824951171875 C 5.13039493560791 65.93048858642578 5.013814926147461 65.88216400146484 4.889784812927246 65.88216400146484 Z M 5.399907112121582 64.23983001708984 C 5.500123023986816 64.26424407958984 5.598721027374268 64.29602813720703 5.69435977935791 64.33477020263672 L 8.42583179473877 61.60328674316406 C 8.074960708618164 61.0874137878418 7.890624523162842 60.48673629760742 7.891934871673584 59.86062240600586 L 7.891934871673584 58.54498291015625 C 7.891934871673584 58.07524108886719 8.274105072021484 57.69307327270508 8.743844985961914 57.69307327270508 C 9.213594436645508 57.69307327270508 9.595765113830566 58.07524108886719 9.595765113830566 58.54498291015625 L 9.595765113830566 59.86083221435547 C 9.596530914306641 60.26475524902344 9.771132469177246 60.64844131469727 10.07508373260498 60.91443634033203 C 10.11588573455811 60.94141387939453 10.15454864501953 60.97195816040039 10.19020175933838 61.00536727905273 C 10.42780780792236 61.1749382019043 10.70753765106201 61.26457214355469 10.99962520599365 61.26466369628906 L 37.12862396240234 61.26466369628906 C 37.42068099975586 61.26457214355469 37.70041275024414 61.1749382019043 37.93801879882812 61.00536727905273 C 37.97366333007812 60.97196197509766 38.01232147216797 60.9414176940918 38.05310821533203 60.91444396972656 C 38.35705947875977 60.64846038818359 38.53168869018555 60.26475524902344 38.53245544433594 59.86064147949219 L 38.53245544433594 38.99520111083984 C 38.53168869018555 38.59126663208008 38.35707092285156 38.20757675170898 38.05311965942383 37.94159317016602 C 38.01231002807617 37.91460800170898 37.97364807128906 37.88406372070312 37.93801116943359 37.85066223144531 C 37.70042419433594 37.68110275268555 37.42070007324219 37.59147262573242 37.12858581542969 37.59137344360352 L 10.99959468841553 37.59137344360352 C 10.70753765106201 37.59147262573242 10.42781162261963 37.68110275268555 10.19020652770996 37.85066223144531 C 10.15457153320312 37.88406372070312 10.11590766906738 37.91460800170898 10.07510089874268 37.94159317016602 C 9.771149635314941 38.20757675170898 9.596530914306641 38.59127044677734 9.595765113830566 38.99539184570312 L 9.595765113830566 41.33893203735352 L 35.34282302856445 41.33893203735352 C 35.81256484985352 41.33893203735352 36.19473648071289 41.72110366821289 36.19473648071289 42.19084167480469 C 36.19473648071289 42.66058349609375 35.81256484985352 43.04275131225586 35.34282302856445 43.04275131225586 L 9.595765113830566 43.04275131225586 L 9.595765113830566 52.8586311340332 C 9.595765113830566 53.32837295532227 9.213594436645508 53.71054077148438 8.743844985961914 53.71054077148438 C 8.274105072021484 53.71054077148438 7.891934871673584 53.32837295532227 7.891934871673584 52.8586311340332 L 7.891934871673584 50.27993011474609 L 4.063384532928467 50.27993011474609 C 3.892139673233032 50.67737579345703 3.602553606033325 51.01905822753906 3.238558530807495 51.25310897827148 L 5.399907112121582 64.23983001708984 Z M 39.70235824584961 61.60331344604492 L 42.43107223510742 64.33474731445312 C 42.52671051025391 64.29601287841797 42.62527847290039 64.26423645019531 42.72549438476562 64.23983001708984 L 44.8896369934082 51.25309753417969 C 44.52569198608398 51.01905822753906 44.23606872558594 50.6773567199707 44.06482696533203 50.27993011474609 L 40.23628616333008 50.27993011474609 L 40.23628616333008 59.86083221435547 C 40.23758697509766 60.4868049621582 40.05326461791992 61.08744049072266 39.70235824584961 61.60331344604492 Z M 46.05761337280273 48.96408081054688 C 45.80179595947266 48.96408081054688 45.59367370605469 49.17220306396484 45.59367370605469 49.42801284790039 C 45.59367370605469 49.68383026123047 45.80179595947266 49.89195251464844 46.0576057434082 49.89195251464844 C 46.31342315673828 49.89195251464844 46.52154541015625 49.68383026123047 46.52154541015625 49.42801284790039 C 46.52154541015625 49.17220306396484 46.31342315673828 48.96408081054688 46.05761337280273 48.96408081054688 Z M 2.070604801177979 48.96408081054688 C 1.81478476524353 48.96408081054688 1.606664776802063 49.17220306396484 1.606664776802063 49.42801284790039 C 1.606664776802063 49.68383026123047 1.81478476524353 49.89195251464844 2.070604801177979 49.89195251464844 C 2.326424837112427 49.89195251464844 2.534544706344604 49.68383026123047 2.534544706344604 49.42801284790039 C 2.534544706344604 49.17220306396484 2.326424837112427 48.96408081054688 2.070604801177979 48.96408081054688 Z M 40.23628616333008 48.57610321044922 L 44.06490325927734 48.57610321044922 C 44.23683929443359 48.17823791503906 44.52739715576172 47.83649444580078 44.89243316650391 47.6027946472168 L 42.72831344604492 34.61621475219727 C 42.62807083129883 34.59179306030273 42.52948379516602 34.56000518798828 42.43386077880859 34.52126693725586 L 39.70237731933594 37.25274658203125 C 40.05324172973633 37.76860046386719 40.23758697509766 38.36927795410156 40.23628616333008 38.99541091918945 L 40.23628616333008 48.57610321044922 Z M 4.063385486602783 48.57610321044922 L 7.891934871673584 48.57610321044922 L 7.891934871673584 38.99520111083984 C 7.890624523162842 38.3692512512207 8.074936866760254 37.76861190795898 8.425851821899414 37.25271987915039 L 5.697136402130127 34.52128219604492 C 5.60152530670166 34.56000900268555 5.502955913543701 34.59179306030273 5.402715682983398 34.61621475219727 L 3.238574504852295 47.60293579101562 C 3.602535486221313 47.83698272705078 3.892159938812256 48.17868423461914 4.063385486602783 48.57610321044922 Z M 24.91602516174316 35.88754272460938 L 37.12862396240234 35.88754272460938 L 37.13105392456055 35.88754272460938 C 37.56157684326172 35.88754272460938 37.99465942382812 35.97992706298828 38.38819885253906 36.15522766113281 L 41.22682189941406 33.31660461425781 C 41.198974609375 33.24697113037109 41.17478942871094 33.17566299438477 41.1545295715332 33.10345458984375 L 25.93277549743652 31.1635799407959 C 25.69766044616699 31.56147003173828 25.34044075012207 31.87605476379395 24.91602516174316 32.05897903442383 L 24.91602516174316 35.88754272460938 Z M 6.901394844055176 33.31660079956055 L 9.740010261535645 36.15522766113281 C 10.13355255126953 35.97992706298828 10.56664180755615 35.88754272460938 10.99716472625732 35.88754272460938 L 23.21219444274902 35.88754272460938 L 23.21219444274902 32.05897903442383 C 22.78777885437012 31.87605476379395 22.4305591583252 31.56147003173828 22.19544410705566 31.1635799407959 L 6.973681926727295 33.10345458984375 C 6.953417778015137 33.17567443847656 6.929233074188232 33.24698257446289 6.901394844055176 33.31660079956055 Z M 4.596383094787598 32.15130996704102 L 4.560924530029297 32.18455123901367 C 4.436834812164307 32.3002815246582 4.385844707489014 32.47430038452148 4.427864551544189 32.63869094848633 C 4.469864845275879 32.80309295654297 4.598084926605225 32.93130111694336 4.762484550476074 32.97331237792969 C 4.800034523010254 32.98291015625 4.838674545288086 32.9877815246582 4.877344608306885 32.9877815246582 C 5.005524635314941 32.9877815246582 5.129194736480713 32.93401336669922 5.216624736785889 32.84026336669922 C 5.306574821472168 32.7501220703125 5.354764938354492 32.63359069824219 5.354694843292236 32.50967025756836 C 5.354614734649658 32.3857421875 5.306294918060303 32.26927185058594 5.21861457824707 32.18169021606445 C 5.131014823913574 32.09419250488281 5.014574527740479 32.04600143432617 4.890764713287354 32.04600143432617 C 4.782094478607178 32.04600143432617 4.679152488708496 32.08310317993164 4.596383094787598 32.15130996704102 Z M 43.23842620849609 32.04600143432617 C 43.11439514160156 32.04600143432617 42.9978141784668 32.09433364868164 42.91016387939453 32.18209075927734 C 42.7296142578125 32.36287307739258 42.7296142578125 32.65701293945312 42.91016387939453 32.83778381347656 C 42.9978141784668 32.92554092407227 43.11439514160156 32.97388076782227 43.23842620849609 32.97388076782227 C 43.3623161315918 32.97388076782227 43.47879409790039 32.92564010620117 43.56642532348633 32.83806228637695 C 43.65408325195312 32.75043106079102 43.70237350463867 32.63390350341797 43.70237350463867 32.50994110107422 C 43.70237350463867 32.38598251342773 43.65408325195312 32.26945114135742 43.56641387939453 32.18182373046875 C 43.47879409790039 32.09423065185547 43.3623161315918 32.04600143432617 43.23842620849609 32.04600143432617 Z M 24.0641040802002 29.60228157043457 C 23.80829429626465 29.60228157043457 23.60017395019531 29.81040191650391 23.60017395019531 30.06621170043945 C 23.60017395019531 30.32203102111816 23.80829429626465 30.5301513671875 24.0641040802002 30.5301513671875 C 24.31992530822754 30.5301513671875 24.52804565429688 30.32203102111816 24.52804565429688 30.06621170043945 C 24.52804565429688 29.81040191650391 24.31992530822754 29.60228157043457 24.0641040802002 29.60228157043457 Z" stroke="none"/>
      <path d="M 24.06411361694336 27.998291015625 C 23.11573219299316 27.998291015625 22.28893280029297 28.64345550537109 22.05837249755859 29.56336975097656 L 6.706153869628906 31.52023315429688 C 6.611083984375 31.34770965576172 6.492111206054688 31.18949890136719 6.352752685546875 31.05028533935547 C 5.540805816650391 30.27291107177734 4.256580352783203 30.28660583496094 3.46136474609375 31.08103942871094 C 2.666141510009766 31.87550354003906 2.651233673095703 33.15971374511719 3.427814483642578 33.972412109375 C 3.549354553222656 34.09246063232422 3.685073852539062 34.19724273681641 3.831962585449219 34.28446197509766 L 1.645771026611328 47.40442276000977 C 0.6885223388671875 47.60552215576172 0.003131866455078125 48.44987106323242 0.003131866455078125 49.42801284790039 C 0.003131866455078125 50.40616226196289 0.6885223388671875 51.25050354003906 1.645771026611328 51.45161056518555 L 3.831962585449219 64.57157897949219 C 3.685073852539062 64.65879058837891 3.549354553222656 64.76358032226562 3.427814483642578 64.88362121582031 C 2.620101928710938 65.69132232666016 2.620101928710938 67.00086212158203 3.427814483642578 67.80856323242188 C 4.235500335693359 68.61627197265625 5.545047760009766 68.61627197265625 6.352764129638672 67.80856323242188 C 6.492111206054688 67.66934967041016 6.611083984375 67.51113891601562 6.706153869628906 67.338623046875 L 22.05837249755859 69.29548645019531 C 22.28893280029297 70.21540832519531 23.11573219299316 70.86057281494141 24.06411361694336 70.86057281494141 C 25.01249313354492 70.86057281494141 25.83928298950195 70.21540832519531 26.06984329223633 69.29548645019531 L 41.42205429077148 67.338623046875 C 41.51712417602539 67.51113891601562 41.63609313964844 67.66934967041016 41.77545166015625 67.80857086181641 C 42.58315277099609 68.61627197265625 43.89269256591797 68.61626434326172 44.70039367675781 67.80856323242188 C 45.50809478759766 67.00086212158203 45.50809478759766 65.69132232666016 44.70039367675781 64.88362121582031 C 44.57885360717773 64.76357269287109 44.44313430786133 64.65879058837891 44.29624176025391 64.57157897949219 L 46.4824333190918 51.45161056518555 C 47.43980407714844 51.2506217956543 48.12534332275391 50.40625381469727 48.12537384033203 49.42801284790039 C 48.12537384033203 48.4498405456543 47.43985366821289 47.60545349121094 46.48249435424805 47.40444183349609 L 44.29624176025391 34.28446197509766 C 44.44313430786133 34.19724273681641 44.57885360717773 34.09246063232422 44.70039367675781 33.972412109375 C 45.50809478759766 33.16471099853516 45.50809478759766 31.85517120361328 44.70039367675781 31.04746246337891 C 43.89269256591797 30.23976135253906 42.58315277099609 30.23976135253906 41.77545166015625 31.04746246337891 C 41.63609313964844 31.18668365478516 41.51712417602539 31.34489440917969 41.42205429077148 31.51741027832031 L 26.06984329223633 29.56336975097656 C 25.83928298950195 28.64345550537109 25.01248359680176 27.998291015625 24.06411361694336 27.998291015625 M 24.06411361694336 30.63014984130859 C 23.75265312194824 30.63014984130859 23.50017356872559 30.37767028808594 23.50017356872559 30.06621551513672 C 23.50017356872559 29.75476837158203 23.75265312194824 29.50228118896484 24.06411361694336 29.50228118896484 C 24.37556266784668 29.50228118896484 24.62804222106934 29.75476837158203 24.62804222106934 30.06621551513672 C 24.62804222106934 30.37767028808594 24.37556266784668 30.63014984130859 24.06411361694336 30.63014984130859 M 23.31219291687012 35.98754119873047 L 10.99959182739258 35.98754119873047 C 10.99880981445312 35.98754119873047 10.99795150756836 35.98754119873047 10.99716567993164 35.98754119873047 C 10.55490112304688 35.98754119873047 10.11820602416992 36.08575820922852 9.718513488769531 36.27515029907227 L 6.783233642578125 33.33985900878906 C 6.829563140869141 33.23424530029297 6.866672515869141 33.12480163574219 6.894134521484375 33.01277923583984 L 22.24917221069336 31.05592346191406 C 22.4833927154541 31.48247528076172 22.85945320129395 31.81365203857422 23.31219291687012 31.9920654296875 L 23.31219291687012 35.98754119873047 M 38.40969085693359 36.27515029907227 C 38.00929260253906 36.08541870117188 37.57201766967773 35.98593521118164 37.12862396240234 35.98754119873047 L 24.8160228729248 35.98754119873047 L 24.8160228729248 31.9920654296875 C 25.26876258850098 31.81365203857422 25.64482307434082 31.48247528076172 25.87904357910156 31.05592346191406 L 41.23407363891602 33.01277923583984 C 41.26154327392578 33.12480926513672 41.29865264892578 33.23424530029297 41.3449821472168 33.33985900878906 L 38.40969085693359 36.27515029907227 M 43.23843383789062 33.07387542724609 C 43.0939826965332 33.07387542724609 42.94956207275391 33.01873779296875 42.83941268920898 32.90845489501953 C 42.61951446533203 32.68827819824219 42.61951446533203 32.33158874511719 42.83941268920898 32.11141967773438 C 43.05957412719727 31.8909912109375 43.41676330566406 31.89084625244141 43.63711166381836 32.11109161376953 C 43.85745239257812 32.33134460449219 43.85745239257812 32.68854522705078 43.63711166381836 32.90879058837891 C 43.52700424194336 33.01884460449219 43.38270568847656 33.07387542724609 43.23843383789062 33.07387542724609 M 4.877330780029297 33.08777618408203 C 4.830841064453125 33.08777618408203 4.783962249755859 33.08202362060547 4.737724304199219 33.07020568847656 C 4.537982940673828 33.01914978027344 4.382011413574219 32.86318969726562 4.330974578857422 32.66345977783203 C 4.279922485351562 32.46371459960938 4.341941833496094 32.25202941894531 4.492713928222656 32.11141967773438 L 4.491764068603516 32.11141967773438 C 4.711841583251953 31.89106750488281 5.068916320800781 31.89083099365234 5.289283752441406 32.11093902587891 C 5.5096435546875 32.33103942871094 5.509853363037109 32.68810272216797 5.289752960205078 32.90847015380859 C 5.181694030761719 33.02432250976562 5.031658172607422 33.08777618408203 4.877330780029297 33.08777618408203 M 7.991931915283203 48.67610168457031 L 3.996444702148438 48.67610168457031 C 3.828212738037109 48.24849319458008 3.523174285888672 47.88859176635742 3.128921508789062 47.65256118774414 L 5.315113067626953 34.53353118896484 C 5.454372406005859 34.50437927246094 5.590164184570312 34.46059417724609 5.720211029052734 34.40288543701172 L 8.555873870849609 37.24136352539062 C 8.187973022460938 37.75204086303711 7.990612030029297 38.36580276489258 7.991931915283203 38.99520111083984 L 7.991931915283203 48.67610168457031 M 44.13176345825195 48.67610168457031 L 40.13628387451172 48.67610168457031 L 40.13628387451172 38.99520111083984 C 40.13759231567383 38.36580276489258 39.94024276733398 37.75204086303711 39.57234191894531 37.24136352539062 L 42.41082382202148 34.40288543701172 C 42.54087448120117 34.46059417724609 42.67665100097656 34.50437927246094 42.81591415405273 34.53353118896484 L 45.00210189819336 47.65256118774414 C 44.60680389404297 47.88812255859375 44.30072402954102 48.24807357788086 44.13176345825195 48.67610168457031 M 37.12862396240234 61.36466217041016 L 10.99959182739258 61.36466217041016 C 10.68617248535156 61.36456298828125 10.38071441650391 61.26592254638672 10.12643432617188 61.08269119262695 C 10.09196472167969 61.04984283447266 10.05451202392578 61.020263671875 10.01458358764648 60.99434280395508 C 9.685802459716797 60.7093505859375 9.496574401855469 60.29593276977539 9.495761871337891 59.86083221435547 L 9.495761871337891 58.54498291015625 C 9.495761871337891 58.12971115112305 9.159122467041016 57.79307174682617 8.743843078613281 57.79307174682617 C 8.328571319580078 57.79307174682617 7.991931915283203 58.12971115112305 7.991931915283203 58.54498291015625 L 7.991931915283203 59.86083221435547 C 7.990612030029297 60.49023056030273 8.187973022460938 61.1039924621582 8.555862426757812 61.61467361450195 L 5.717391967773438 64.45315551757812 C 5.58734130859375 64.39544677734375 5.451553344726562 64.35165405273438 5.312294006347656 64.322509765625 L 3.128921508789062 51.20347213745117 C 3.523174285888672 50.96744155883789 3.828212738037109 50.6075325012207 3.996444702148438 50.179931640625 L 7.991931915283203 50.179931640625 L 7.991931915283203 52.8586311340332 C 7.991931915283203 53.27389144897461 8.328571319580078 53.61054229736328 8.743843078613281 53.61054229736328 C 9.159122467041016 53.61054229736328 9.495761871337891 53.27389144897461 9.495761871337891 52.8586311340332 L 9.495761871337891 42.94275283813477 L 35.34282302856445 42.94275283813477 C 35.75809478759766 42.94275283813477 36.09473419189453 42.60611343383789 36.09473419189453 42.19084167480469 C 36.09473419189453 41.77557373046875 35.75809478759766 41.43892288208008 35.34282302856445 41.43892288208008 L 9.495761871337891 41.43892288208008 L 9.495761871337891 38.99520111083984 C 9.496574401855469 38.56010055541992 9.685802459716797 38.14668273925781 10.01458358764648 37.86169052124023 C 10.05451202392578 37.83576202392578 10.09196472167969 37.80618286132812 10.12643432617188 37.77334213256836 C 10.38071441650391 37.59012222290039 10.68617248535156 37.49148178100586 10.99959182739258 37.49137115478516 L 37.12862396240234 37.49137115478516 C 37.44204330444336 37.49148178100586 37.74750518798828 37.59011077880859 38.00178146362305 37.77334213256836 C 38.0362548828125 37.80618286132812 38.07370376586914 37.83576202392578 38.11363220214844 37.86169052124023 C 38.44241333007812 38.14668273925781 38.63163375854492 38.56010055541992 38.63245391845703 38.99520111083984 L 38.63245391845703 59.86083221435547 C 38.63163375854492 60.29593276977539 38.44240188598633 60.7093505859375 38.11362457275391 60.99434280395508 C 38.07369232177734 61.020263671875 38.0362548828125 61.04984283447266 38.00178146362305 61.08268356323242 C 37.74750518798828 61.26592254638672 37.44204330444336 61.36456298828125 37.12862396240234 61.36466217041016 M 2.070602416992188 49.99195098876953 C 1.759151458740234 49.99195098876953 1.506664276123047 49.73947143554688 1.506664276123047 49.42801284790039 C 1.506664276123047 49.11656188964844 1.759151458740234 48.86408233642578 2.070602416992188 48.86408233642578 C 2.382053375244141 48.86408233642578 2.634544372558594 49.11656188964844 2.634544372558594 49.42801284790039 C 2.634544372558594 49.73947143554688 2.382053375244141 49.99195098876953 2.070602416992188 49.99195098876953 M 46.05761337280273 49.99195098876953 L 46.05760192871094 49.99195098876953 C 45.74615478515625 49.99195098876953 45.49367141723633 49.73947143554688 45.49367141723633 49.42801284790039 C 45.49367141723633 49.11656188964844 45.74615478515625 48.86408233642578 46.05761337280273 48.86408233642578 C 46.36906433105469 48.86408233642578 46.62154388427734 49.11656188964844 46.62154388427734 49.42801284790039 C 46.62154388427734 49.73947143554688 46.36906433105469 49.99195098876953 46.05761337280273 49.99195098876953 M 42.40799331665039 64.45315551757812 L 39.57234191894531 61.61467361450195 C 39.94024276733398 61.1039924621582 40.13759231567383 60.49023056030273 40.13628387451172 59.86083221435547 L 40.13628387451172 50.179931640625 L 44.13176345825195 50.179931640625 C 44.30000305175781 50.6075325012207 44.60503387451172 50.96744155883789 44.99928283691406 51.20347213745117 L 42.81309127807617 64.322509765625 C 42.67383193969727 64.35165405273438 42.53804397583008 64.39544677734375 42.40799331665039 64.45315551757812 M 10.99715805053711 62.86849212646484 C 10.99796676635742 62.86849212646484 10.99877166748047 62.86849212646484 10.99958419799805 62.86849212646484 L 23.31219291687012 62.86849212646484 L 23.31219291687012 66.86398315429688 C 22.85945320129395 67.04238891601562 22.4833927154541 67.37356567382812 22.24917221069336 67.80010986328125 L 6.894134521484375 65.84324645996094 C 6.866672515869141 65.73123168945312 6.829563140869141 65.62180328369141 6.783233642578125 65.51617431640625 L 9.718513488769531 62.58088302612305 C 10.11817932128906 62.77025604248047 10.55491638183594 62.86849212646484 10.99715805053711 62.86849212646484 M 25.87904357910156 67.80010986328125 C 25.64482307434082 67.37356567382812 25.26876258850098 67.04238891601562 24.8160228729248 66.86398315429688 L 24.8160228729248 62.86849212646484 L 37.12862396240234 62.86849212646484 C 37.57183074951172 62.8693733215332 38.00929260253906 62.77060317993164 38.40969085693359 62.58088302612305 L 41.3449821472168 65.51617431640625 C 41.29865264892578 65.62180328369141 41.26154327392578 65.73123168945312 41.23407363891602 65.84324645996094 L 25.87904357910156 67.80010986328125 M 43.63550186157227 66.74462127685547 L 43.63644409179688 66.74459838867188 C 43.41635131835938 66.96498870849609 43.05929183959961 66.96519470214844 42.83892440795898 66.74510192871094 C 42.61856079101562 66.52499389648438 42.61835479736328 66.16792297363281 42.83846282958984 65.94757080078125 C 42.97908401489258 65.79682922363281 43.19074249267578 65.73481750488281 43.39047241210938 65.78585815429688 C 43.59020233154297 65.8369140625 43.74616241455078 65.99287414550781 43.79720306396484 66.19259643554688 C 43.84825134277344 66.39231872558594 43.7862548828125 66.60398864746094 43.63550186157227 66.74462127685547 M 5.288803100585938 66.74461364746094 L 5.288803100585938 66.74459838867188 C 5.068637847900391 66.96505737304688 4.711452484130859 66.96518707275391 4.491111755371094 66.74494934082031 C 4.270763397216797 66.52468872070312 4.270763397216797 66.16750335693359 4.491104125976562 65.947265625 C 4.711452484130859 65.72700500488281 5.068630218505859 65.72714996337891 5.288803100585938 65.94758605957031 C 5.508693695068359 66.16775512695312 5.508693695068359 66.52444458007812 5.288803100585938 66.74461364746094 M 24.06411361694336 69.35375213623047 C 23.75265312194824 69.35375213623047 23.50017356872559 69.10127258300781 23.50017356872559 68.78982543945312 C 23.50017356872559 68.47836303710938 23.75265312194824 68.22588348388672 24.06411361694336 68.22588348388672 C 24.37556266784668 68.22588348388672 24.62804222106934 68.47836303710938 24.62804222106934 68.78982543945312 C 24.62804222106934 69.10127258300781 24.37556266784668 69.35375213623047 24.06411361694336 69.35375213623047 M 24.06411361694336 27.79829406738281 C 25.05962562561035 27.79829406738281 25.92977142333984 28.44267272949219 26.22619819641113 29.38166046142578 L 41.31689453125 31.30241394042969 C 41.40753555297852 31.15902709960938 41.51385879516602 31.02610015869141 41.63410186767578 30.90597534179688 C 42.06244277954102 30.47763061523438 42.63205337524414 30.24169158935547 43.23792266845703 30.24169158935547 C 43.84379196166992 30.24169158935547 44.41340255737305 30.47763061523438 44.84181213378906 30.90604400634766 C 45.72620391845703 31.79044342041016 45.72620391845703 33.22945404052734 44.84181213378906 34.11383056640625 C 44.74105453491211 34.21335601806641 44.63174819946289 34.30312347412109 44.51527786254883 34.38214874267578 L 46.65806579589844 47.24129486083984 C 47.63206481933594 47.50929260253906 48.32537460327148 48.40763092041016 48.32537460327148 49.42801284790039 C 48.32534408569336 50.44844055175781 47.63201522827148 51.34677886962891 46.65800476074219 51.6147575378418 L 44.51527786254883 64.47389221191406 C 44.63169860839844 64.5528564453125 44.74084091186523 64.64246368408203 44.8409423828125 64.7413330078125 C 45.72620391845703 65.6265869140625 45.72620391845703 67.06558990478516 44.84181213378906 67.94998168945312 C 44.41339111328125 68.37840270996094 43.84378433227539 68.61434173583984 43.23791122436523 68.61434173583984 C 42.63204193115234 68.61434173583984 42.06244277954102 68.37840270996094 41.634033203125 67.94998931884766 C 41.51385498046875 67.82993316650391 41.40753936767578 67.69701385498047 41.3169059753418 67.55363464355469 L 26.2262077331543 69.47716522216797 C 25.92978286743164 70.41615295410156 25.05963516235352 71.06056976318359 24.06411361694336 71.06056976318359 C 23.06859016418457 71.06056976318359 22.19843482971191 70.41615295410156 21.90200805664062 69.47716522216797 L 6.811302185058594 67.55363464355469 C 6.720668792724609 67.69701385498047 6.614345550537109 67.82994079589844 6.494113922119141 67.95005035400391 C 6.065753936767578 68.37840270996094 5.496143341064453 68.61434173583984 4.890281677246094 68.61434173583984 C 4.284412384033203 68.61434173583984 3.714813232421875 68.37840270996094 3.286392211914062 67.94998168945312 C 2.85797119140625 67.52157592773438 2.622032165527344 66.95196533203125 2.622032165527344 66.34609222412109 C 2.622032165527344 65.74021911621094 2.85797119140625 65.17060852050781 3.286392211914062 64.74220275878906 C 3.387172698974609 64.64266967773438 3.496479034423828 64.55290222167969 3.612930297851562 64.47389984130859 L 1.470199584960938 51.61474609375 C 0.496337890625 51.34664916992188 -0.196868896484375 50.44831848144531 -0.196868896484375 49.42801284790039 C -0.196868896484375 48.40770721435547 0.496337890625 47.50937271118164 1.470199584960938 47.24128723144531 L 3.612926483154297 34.38214874267578 C 3.496494293212891 34.30316925048828 3.387363433837891 34.21356964111328 3.287261962890625 34.11470031738281 L 3.283214569091797 34.11058044433594 C 2.871303558349609 33.67951202392578 2.64825439453125 33.11376190185547 2.655174255371094 32.51756286621094 C 2.662094116210938 31.92137145996094 2.898200988769531 31.36095428466797 3.320011138916016 30.93955230712891 C 3.748252868652344 30.51173400878906 4.317512512207031 30.276123046875 4.922924041748047 30.276123046875 C 5.510032653808594 30.276123046875 6.066944122314453 30.49974822998047 6.491062164306641 30.90582275390625 C 6.613700866699219 31.02828216552734 6.720539093017578 31.16172027587891 6.811290740966797 31.30521392822266 L 21.90200805664062 29.38169097900391 C 22.19843482971191 28.44270324707031 23.06859016418457 27.79829406738281 24.06411361694336 27.79829406738281 Z M 24.06411361694336 30.43015289306641 C 24.2647819519043 30.43015289306641 24.42804336547852 30.26689147949219 24.42804336547852 30.06621551513672 C 24.42804336547852 29.86553955078125 24.2647819519043 29.70227813720703 24.06411361694336 29.70227813720703 C 23.86343193054199 29.70227813720703 23.70017242431641 29.86553955078125 23.70017242431641 30.06621551513672 C 23.70017242431641 30.26689147949219 23.86343193054199 30.43015289306641 24.06411361694336 30.43015289306641 Z M 23.11219215393066 32.12371826171875 C 22.71490287780762 31.93856811523438 22.37775802612305 31.64167022705078 22.14386367797852 31.27096557617188 L 7.050975799560547 33.19441223144531 C 7.040725708007812 33.22709655761719 7.029708862304688 33.25956726074219 7.017951965332031 33.29174041748047 L 9.762687683105469 36.03648376464844 C 10.15183639526367 35.87330627441406 10.57568359375 35.78754043579102 10.99716186523438 35.78754043579102 L 23.11219215393066 35.78754043579102 L 23.11219215393066 32.12371826171875 Z M 41.07723617553711 33.19441223144531 L 25.98435211181641 31.27096557617188 C 25.75045585632324 31.64167022705078 25.4133129119873 31.93856811523438 25.01602363586426 32.12371826171875 L 25.01602363586426 35.78754043579102 L 37.12862396240234 35.78754043579102 C 37.55228805541992 35.78754043579102 37.97634887695312 35.87330627441406 38.36551666259766 36.0364875793457 L 41.11026000976562 33.291748046875 C 41.0984992980957 33.25956726074219 41.08748626708984 33.22710418701172 41.07723617553711 33.19441223144531 Z M 4.877334594726562 32.88777923583984 C 4.977882385253906 32.88777923583984 5.074901580810547 32.84560394287109 5.143501281738281 32.77204895019531 L 5.148242950439453 32.76714324951172 C 5.290061950683594 32.62515258789062 5.289924621582031 32.39426422119141 5.147941589355469 32.25244140625 C 5.0792236328125 32.18379974365234 4.987884521484375 32.14600372314453 4.890762329101562 32.14600372314453 C 4.806835174560547 32.14600372314453 4.727245330810547 32.17421722412109 4.662830352783203 32.22616577148438 L 4.629123687744141 32.25768280029297 C 4.531784057617188 32.34846496582031 4.491783142089844 32.48497009277344 4.524742126464844 32.61394500732422 C 4.557693481445312 32.74288940429688 4.658283233642578 32.84347534179688 4.787242889404297 32.87643432617188 C 4.81671142578125 32.88396453857422 4.847023010253906 32.88777923583984 4.877334594726562 32.88777923583984 Z M 43.23843383789062 32.87387084960938 C 43.33561325073242 32.87387084960938 43.42699432373047 32.83602905273438 43.49573135375977 32.767333984375 C 43.56449127197266 32.69860076904297 43.60236358642578 32.60718536376953 43.60236358642578 32.50994110107422 C 43.60236358642578 32.41270446777344 43.56449127197266 32.32128143310547 43.49572372436523 32.25254058837891 C 43.42698287963867 32.18384552001953 43.33561325073242 32.14600372314453 43.23842239379883 32.14600372314453 C 43.14112091064453 32.14600372314453 43.04967498779297 32.18391418457031 42.98092269897461 32.25275421142578 C 42.83928298950195 32.39456176757812 42.83928298950195 32.62531280517578 42.98092269897461 32.76712036132812 C 43.0496826171875 32.83596038818359 43.14113235473633 32.87387084960938 43.23843383789062 32.87387084960938 Z M 42.64034271240234 34.69668579101562 C 42.57892990112305 34.67975616455078 42.51822280883789 34.66018676757812 42.45848846435547 34.63805389404297 L 39.83084487915039 37.26569747924805 C 40.16333770751953 37.78246688842773 40.33757400512695 38.37699127197266 40.33628082275391 38.99562072753906 L 40.33628082275391 48.47610092163086 L 44.00024795532227 48.47610092163086 C 44.17332458496094 48.10588836669922 44.44559860229492 47.78562164306641 44.78311920166016 47.55520248413086 L 42.64034271240234 34.69668579101562 Z M 8.297416687011719 37.26562881469727 L 5.672477722167969 34.63808441162109 C 5.612773895263672 34.66020202636719 5.552074432373047 34.67977142333984 5.490684509277344 34.69668579101562 L 3.347858428955078 47.55548477172852 C 3.684364318847656 47.78615570068359 3.955726623535156 48.10632705688477 4.128116607666016 48.47610092163086 L 7.79193115234375 48.47610092163086 L 7.79193115234375 38.99520111083984 C 7.790634155273438 38.37692260742188 7.964870452880859 37.78242111206055 8.297416687011719 37.26562881469727 Z M 37.87474060058594 37.92837905883789 C 37.65531921386719 37.77338027954102 37.3975830078125 37.69147109985352 37.1285514831543 37.69137191772461 L 10.99959182739258 37.69137191772461 C 10.73064422607422 37.69147109985352 10.47290802001953 37.77338027954102 10.25347518920898 37.92837905883789 C 10.21686553955078 37.96218490600586 10.17750549316406 37.9932861328125 10.13614273071289 38.02108383178711 C 9.856807708740234 38.26794815063477 9.696456909179688 38.62239456176758 9.695762634277344 38.99557113647461 L 9.695762634277344 41.23892211914062 L 35.34282302856445 41.23892211914062 C 35.86770248413086 41.23892211914062 36.29473114013672 41.66595077514648 36.29473114013672 42.19084167480469 C 36.29473114013672 42.71572113037109 35.86770248413086 43.14275360107422 35.34282302856445 43.14275360107422 L 9.695762634277344 43.14275360107422 L 9.695762634277344 52.8586311340332 C 9.695762634277344 53.38351058959961 9.268733978271484 53.81054306030273 8.743843078613281 53.81054306030273 C 8.218963623046875 53.81054306030273 7.79193115234375 53.38351058959961 7.79193115234375 52.8586311340332 L 7.79193115234375 50.37993240356445 L 4.12811279296875 50.37993240356445 C 3.955718994140625 50.74970626831055 3.684337615966797 51.06989288330078 3.347835540771484 51.30056381225586 L 5.487895965576172 64.15936279296875 C 5.549293518066406 64.17628479003906 5.610004425048828 64.19585418701172 5.669727325439453 64.21797943115234 L 8.297359466552734 61.59033584594727 C 7.964862823486328 61.07355117797852 7.790634155273438 60.47902297973633 7.79193115234375 59.86041259765625 L 7.79193115234375 58.54498291015625 C 7.79193115234375 58.02010345458984 8.218963623046875 57.59307098388672 8.743843078613281 57.59307098388672 C 9.268733978271484 57.59307098388672 9.695762634277344 58.02010345458984 9.695762634277344 58.54498291015625 L 9.695762634277344 59.86083221435547 C 9.696456909179688 60.23366546630859 9.856800079345703 60.58810424804688 10.13616561889648 60.83496856689453 C 10.17752456665039 60.86275482177734 10.21688461303711 60.89384841918945 10.25349044799805 60.92766571044922 C 10.47293090820312 61.08267211914062 10.73064422607422 61.16457366943359 10.99965286254883 61.1646614074707 L 37.12862396240234 61.1646614074707 L 37.12856292724609 61.1646614074707 C 37.39758682250977 61.16457366943359 37.65533447265625 61.08265686035156 37.87476348876953 60.92761993408203 C 37.911376953125 60.89381408691406 37.95072174072266 60.86272811889648 37.99204254150391 60.83496475219727 C 38.27140045166016 60.58810043334961 38.4317512512207 60.23366165161133 38.43245315551758 59.86045074462891 L 38.43245315551758 38.99520111083984 C 38.4317512512207 38.62237930297852 38.27140045166016 38.26793670654297 37.99207305908203 38.02108383178711 C 37.95071411132812 37.9932861328125 37.91134643554688 37.96218490600586 37.87474060058594 37.92837905883789 Z M 2.070602416992188 49.79195022583008 C 2.271282196044922 49.79195022583008 2.434543609619141 49.62869262695312 2.434543609619141 49.42801284790039 C 2.434543609619141 49.22734069824219 2.271282196044922 49.06408309936523 2.070602416992188 49.06408309936523 C 1.869922637939453 49.06408309936523 1.706661224365234 49.22734069824219 1.706661224365234 49.42801284790039 C 1.706661224365234 49.62869262695312 1.869922637939453 49.79195022583008 2.070602416992188 49.79195022583008 Z M 46.05761337280273 49.79195022583008 C 46.25828170776367 49.79195022583008 46.42154312133789 49.62869262695312 46.42154312133789 49.42801284790039 C 46.42154312133789 49.22734069824219 46.25828170776367 49.06408309936523 46.05761337280273 49.06408309936523 C 45.85693359375 49.06408309936523 45.69367218017578 49.22734069824219 45.69367218017578 49.42801284790039 C 45.69367218017578 49.62869262695312 45.85693359375 49.79195022583008 46.05760192871094 49.79195022583008 L 46.05761337280273 49.79195022583008 Z M 44.00009155273438 50.37993240356445 L 40.33628082275391 50.37993240356445 L 40.33628082275391 59.86083221435547 C 40.33757400512695 60.47911834716797 40.16333770751953 61.0736198425293 39.8307991027832 61.59040451049805 L 42.45572662353516 64.21795654296875 C 42.51543807983398 64.19583129882812 42.57613372802734 64.17626953125 42.63752365112305 64.15935516357422 L 44.78034591674805 51.3005485534668 C 44.44385528564453 51.06988143920898 44.17249298095703 50.74970626831055 44.00009155273438 50.37993240356445 Z M 23.11219215393066 63.0684928894043 L 10.99958419799805 63.0684928894043 C 10.57594299316406 63.0684928894043 10.15187835693359 62.98273086547852 9.762687683105469 62.81954574584961 L 7.017955780029297 65.56428527832031 C 7.029712677001953 65.59646606445312 7.040729522705078 65.62893676757812 7.050975799560547 65.66162109375 L 22.14386177062988 67.58506774902344 C 22.37775039672852 67.21437072753906 22.71489715576172 66.91747283935547 23.11219215393066 66.73233032226562 L 23.11219215393066 63.0684928894043 Z M 41.11026000976562 65.56428527832031 L 38.36552047729492 62.81954956054688 C 37.97635269165039 62.98273468017578 37.55248260498047 63.0684928894043 37.1309814453125 63.0684928894043 L 25.01602363586426 63.0684928894043 L 25.01602363586426 66.73233032226562 C 25.4133186340332 66.91747283935547 25.75046348571777 67.21437072753906 25.98435401916504 67.58506774902344 L 41.07723999023438 65.66162109375 C 41.08748626708984 65.62892913818359 41.09850311279297 65.59646606445312 41.11026000976562 65.56428527832031 Z M 43.46567153930664 66.62961578369141 L 43.49907302856445 66.59838104248047 C 43.59640121459961 66.50758361816406 43.63639450073242 66.37107086181641 43.60343170166016 66.24212646484375 C 43.57047271728516 66.11317443847656 43.46990203857422 66.01258850097656 43.3409423828125 65.97962951660156 C 43.21368408203125 65.94711303710938 43.073974609375 65.98831176757812 42.98470306396484 66.08399963378906 L 42.97996139526367 66.08891296386719 C 42.91126251220703 66.15769195556641 42.87346267700195 66.24909973144531 42.87351226806641 66.3463134765625 C 42.87357330322266 66.44352722167969 42.91148376464844 66.53489685058594 42.98026275634766 66.60360717773438 C 43.04898071289062 66.67223358154297 43.14032363891602 66.71003723144531 43.23744201660156 66.71003723144531 C 43.32151031494141 66.71003723144531 43.40120697021484 66.68173217773438 43.46567153930664 66.62961578369141 Z M 5.147293090820312 66.60328674316406 C 5.288921356201172 66.46147155761719 5.288921356201172 66.23072052001953 5.147293090820312 66.08891296386719 C 5.078533172607422 66.02007293701172 4.987083435058594 65.98214721679688 4.889801025390625 65.98216247558594 C 4.792613983154297 65.98217010498047 4.70123291015625 66.02001190185547 4.632492065429688 66.08871459960938 C 4.563724517822266 66.15745544433594 4.525852203369141 66.24886322021484 4.525852203369141 66.34609985351562 C 4.525852203369141 66.44334411621094 4.563732147216797 66.53475189208984 4.632503509521484 66.60350036621094 C 4.70123291015625 66.67220306396484 4.7926025390625 66.71003723144531 4.889781951904297 66.71003723144531 C 4.987083435058594 66.71003723144531 5.078533172607422 66.672119140625 5.147281646728516 66.603271484375 L 5.147293090820312 66.60328674316406 Z M 24.06411361694336 69.15374755859375 C 24.2647819519043 69.15374755859375 24.42804336547852 68.99049377441406 24.42804336547852 68.78982543945312 C 24.42804336547852 68.58914184570312 24.2647819519043 68.42588043212891 24.06411361694336 68.42588043212891 C 23.86343193054199 68.42588043212891 23.70017242431641 68.58914184570312 23.70017242431641 68.78982543945312 C 23.70017242431641 68.99049377441406 23.86343193054199 69.15374755859375 24.06411361694336 69.15374755859375 Z" stroke="none" fill="#fff"/>
    </g>
  </g>
</svg>
