<svg xmlns="http://www.w3.org/2000/svg" xmlns:xlink="http://www.w3.org/1999/xlink" width="42" height="51" viewBox="0 0 42 51">
  <defs>
    <clipPath id="clip-Custom_Size_1">
      <rect width="42" height="51"/>
    </clipPath>
  </defs>
  <g id="Custom_Size_1" data-name="Custom Size – 1" clip-path="url(#clip-Custom_Size_1)">
    <g id="strategic-goal" transform="translate(-5.5 -1.75)">
      <path id="Path_1" data-name="Path 1" d="M41.2,6.5C38,4.7,33.6,4.9,28.8,7.7c-9.6,5.5-17.3,19-17.3,30,0,5.5,1.9,9.3,5.1,11.1l-5.7-3.3c-3.1-1.8-5-5.7-5.1-11.1,0-11,7.7-24.5,17.3-30,4.8-2.8,9.2-3,12.4-1.2l5.7,3.3Z" fill="#121212"/>
      <path id="Path_2" data-name="Path 2" d="M28.8,7.7c9.6-5.5,17.4-1.1,17.4,9.9S38.5,42,28.9,47.6c-9.6,5.5-17.4,1.1-17.4-9.9s7.7-24.5,17.3-30Z" fill="#262626"/>
      <path id="Path_3" data-name="Path 3" d="M28.8,13.8c6.7-3.9,12.2-.8,12.3,7,0,7.7-5.4,17.2-12.2,21.1s-12.2.8-12.3-7,5.5-17.2,12.2-21.1Zm.4-2.6v4.9m.1,23.2v4.8M43.2,20,39,22.5M18.8,34.1l-4.3,2.5" fill="#171717"/>
      <path id="Path_4" data-name="Path 4" d="M41.3,6.3c-.1,0-.1-.1-.2-.1L35.6,3C32.2,1,27.7,1.4,23,4.2c-.1.1-.2.2-.1.3s.2.2.3.1C27.8,2,32.1,1.5,35.3,3.4l3.2,1.8a12.29,12.29,0,0,0-5.7.4h-.1C23,8.6,14.6,20.7,12.2,30.4a27.289,27.289,0,0,0-1,8.3v.2a14.685,14.685,0,0,0,2.5,7.7c.1.1.2.3.3.4l-3-1.7c-3.2-1.8-5-5.7-5-10.9C6,26.1,10.5,16,17.2,9.3a.283.283,0,1,0-.4-.4C10.1,15.8,5.5,26,5.5,34.4c0,5.4,1.9,9.4,5.2,11.3L16.4,49c3.9,2.2,8.7,1.1,12.6-1.2,9.7-5.6,17.5-19.1,17.4-30.2.1-5.4-1.8-9.4-5.1-11.3ZM28.8,47.4c-6.9,4-13.6,3.3-16.3-4.4a15.141,15.141,0,0,1-.7-3.7,26.794,26.794,0,0,1,1-8.9,43.617,43.617,0,0,1,2.9-7.6C18.8,16.5,25.9,8.2,32.8,6.2a9.822,9.822,0,0,1,8.2.5c3.2,1.8,4.9,5.7,4.9,10.9.1,11-7.6,24.3-17.1,29.8Z" fill="#93009d"/>
      <path id="Path_5" data-name="Path 5" d="M43.4,19.9c-.1-.1-.2-.2-.3-.1l-1.7,1c0-6.2-3.3-8.9-7-8.9a10.209,10.209,0,0,0-4.8,1.3v-2c0-.1-.1-.2-.3-.2-.1,0-.3.1-.2.3v2.3c-.1,0-.2.1-.3.1C22,17.6,16.5,27.2,16.5,35v.3l-2,1.2c-.1.1-.2.2-.1.3,0,.1.1.1.2.1h.1l1.8-1c.2,3.4,1.5,5.9,3.7,7.2,2.8,1.6,6.1.8,8.9-.9v2c0,.1.1.2.3.2.1,0,.3-.1.2-.3V41.8c6.4-4,11.5-12.9,11.8-20.4l2-1.2S43.5,20,43.4,19.9ZM29.5,41.2v-2c0-.1-.1-.2-.3-.2-.1,0-.3.1-.2.3v2.3c-.1.1-.2.1-.3.2-3.2,1.8-6.2,2.2-8.4.9-2.1-1.2-3.3-3.7-3.4-7l2-1.1A1.759,1.759,0,0,0,19,34c-.1-.1-.2-.2-.3-.1l-1.7,1c0-7.7,5.4-17,12-20.9v2c0,.1.1.2.3.2.1,0,.3-.1.2-.3V13.6c6.2-3.3,11.3-.5,11.4,7v.3l-2,1.1c-.1.1-.2.2-.1.3,0,.1.1.1.2.1h.1l1.7-1c-.4,7.5-5.2,15.9-11.3,19.8Z" fill="#aa01b5"/>
    </g>
    <g id="Group_1" data-name="Group 1" transform="translate(16.238 15.276)">
      <path id="Path_1-2" data-name="Path 1" d="M2.316,11.07l-.163-.214c-.016-.021-.122-.162-.277-.4s-.36-.578-.573-.993A11.24,11.24,0,0,1,.679,8,9.071,9.071,0,0,1,.251,6.214,6.28,6.28,0,0,1,.219,5.178,6.982,6.982,0,0,1,.353,4.126,7.123,7.123,0,0,1,.645,3.1a6.665,6.665,0,0,1,.441-.961,4.815,4.815,0,0,1,.331-.559A4.13,4.13,0,0,1,1.8,1.1,3.4,3.4,0,0,1,2.223.716,2.714,2.714,0,0,1,2.678.434a1.573,1.573,0,0,1,.431.1A1.662,1.662,0,0,1,3.5.742a1.953,1.953,0,0,1,.343.321,2.433,2.433,0,0,1,.284.422,3.956,3.956,0,0,1,.377.8,5.1,5.1,0,0,1,.221.928,6.185,6.185,0,0,1,.06,1.014A6.958,6.958,0,0,1,4.678,5.3a13.335,13.335,0,0,1-.543,1.979c-.223.632-.474,1.222-.712,1.731s-.462.939-.632,1.248-.284.5-.3.526ZM2.657,1.1a2.621,2.621,0,0,0-.348.252,3.176,3.176,0,0,0-.323.321,3.75,3.75,0,0,0-.293.382,4.278,4.278,0,0,0-.256.437,5.722,5.722,0,0,0-.378.823,6.114,6.114,0,0,0-.25.88,5.993,5.993,0,0,0-.115.9,5.394,5.394,0,0,0,.027.888,7.989,7.989,0,0,0,.3,1.353,10.16,10.16,0,0,0,.455,1.185c.163.358.331.676.483.941s.287.477.385.623q.318-.549.6-1.132t.515-1.189q.236-.607.43-1.237t.341-1.274a5.982,5.982,0,0,0,.091-.915,5.317,5.317,0,0,0-.052-.872,4.386,4.386,0,0,0-.19-.8,3.4,3.4,0,0,0-.324-.69,2.108,2.108,0,0,0-.218-.33,1.724,1.724,0,0,0-.259-.26,1.47,1.47,0,0,0-.295-.185A1.354,1.354,0,0,0,2.657,1.1Z" transform="translate(4.745 0)" fill="#cf0edb"/>
      <path id="Path_3-2" data-name="Path 3" d="M.392,9.937l.142-.453q.226-.711.5-1.4T1.612,6.75q.311-.653.661-1.27t.734-1.191a5.2,5.2,0,0,1,.634-.736,4,4,0,0,1,.7-.537,3.015,3.015,0,0,1,.729-.322A2.364,2.364,0,0,1,5.8,2.6a1.193,1.193,0,0,1,.638.157,1.364,1.364,0,0,1,.275.208,1.675,1.675,0,0,1,.235.288,3.1,3.1,0,0,1,.065.443,3.561,3.561,0,0,1,0,.465,3.873,3.873,0,0,1-.056.475,3.976,3.976,0,0,1-.116.473,7.4,7.4,0,0,1-.375,1.02,6.67,6.67,0,0,1-.5.91,5.587,5.587,0,0,1-.607.77,4.388,4.388,0,0,1-.693.6,11.033,11.033,0,0,1-.97.559,9.876,9.876,0,0,1-.987.437,8.9,8.9,0,0,1-1,.313,8.132,8.132,0,0,1-1,.185Zm6.15-6.273a1.262,1.262,0,0,0-.184-.177,1.087,1.087,0,0,0-.205-.127,1.006,1.006,0,0,0-.223-.075,1.018,1.018,0,0,0-.237-.021,2.053,2.053,0,0,0-.637.085,2.623,2.623,0,0,0-.629.283,3.483,3.483,0,0,0-.6.468,4.513,4.513,0,0,0-.545.639q-.332.494-.636,1.021T2.071,6.847Q1.8,7.405,1.557,7.99T1.111,9.182a7.712,7.712,0,0,0,.866-.187,8.419,8.419,0,0,0,.861-.29,9.286,9.286,0,0,0,.852-.39q.423-.219.839-.488a3.771,3.771,0,0,0,.6-.514,4.809,4.809,0,0,0,.527-.663,5.752,5.752,0,0,0,.436-.786,6.39,6.39,0,0,0,.327-.882,3.143,3.143,0,0,0,.086-.331,3.1,3.1,0,0,0,.049-.335,2.916,2.916,0,0,0,.012-.331,2.624,2.624,0,0,0-.027-.321Z" transform="translate(6.624 1.023)" fill="#cf0edb"/>
      <path id="Path_4-2" data-name="Path 4" d="M7.07,7.573,6.744,7.7a8.343,8.343,0,0,1-1.027.317,7.566,7.566,0,0,1-1.026.172,7.027,7.027,0,0,1-1.017.025,6.733,6.733,0,0,1-1-.124,2.3,2.3,0,0,1-.685-.308,2.717,2.717,0,0,1-.583-.527,3.511,3.511,0,0,1-.462-.723,4.6,4.6,0,0,1-.32-.9,3.04,3.04,0,0,1-.1-.457A3.557,3.557,0,0,1,.5,4.692a3.953,3.953,0,0,1,.035-.5,4.162,4.162,0,0,1,.1-.509,3.3,3.3,0,0,1,.261-.392,2.793,2.793,0,0,1,.3-.327,2.271,2.271,0,0,1,.324-.254,1.808,1.808,0,0,1,.343-.173,2.837,2.837,0,0,1,.783-.209,2.377,2.377,0,0,1,.752.033,2.317,2.317,0,0,1,.7.268,2.658,2.658,0,0,1,.613.5A10.263,10.263,0,0,1,5.379,4a11.44,11.44,0,0,1,.6.975q.281.51.522,1.065t.441,1.149ZM1.042,3.93a3.451,3.451,0,0,0-.048.363,3.238,3.238,0,0,0-.008.357,2.925,2.925,0,0,0,.031.343,2.55,2.55,0,0,0,.07.324,3.955,3.955,0,0,0,.279.771,3.022,3.022,0,0,0,.4.622,2.341,2.341,0,0,0,.505.452,1.981,1.981,0,0,0,.592.263,6.163,6.163,0,0,0,.86.116,6.4,6.4,0,0,0,.875,0,6.827,6.827,0,0,0,.884-.123,7.453,7.453,0,0,0,.887-.242q-.184-.5-.4-.976T5.5,5.289q-.249-.436-.529-.833A9.474,9.474,0,0,0,4.385,3.7a2.308,2.308,0,0,0-.529-.433,2.008,2.008,0,0,0-.6-.235A2.053,2.053,0,0,0,2.6,3a2.445,2.445,0,0,0-.677.177,1.393,1.393,0,0,0-.242.115,1.707,1.707,0,0,0-.231.166,2.068,2.068,0,0,0-.216.213,2.439,2.439,0,0,0-.2.257Z" transform="translate(0.09 3.305)" fill="#cf0edb"/>
      <path id="Path_5-2" data-name="Path 5" d="M7.225,3.586l-.142.453q-.226.711-.5,1.4T6,6.784q-.313.659-.667,1.285T4.588,9.284a5.467,5.467,0,0,1-.648.76,4.292,4.292,0,0,1-.715.564,3.275,3.275,0,0,1-.756.351,2.567,2.567,0,0,1-.769.12,1.288,1.288,0,0,1-.348-.023,1.255,1.255,0,0,1-.323-.115,1.379,1.379,0,0,1-.291-.2,1.658,1.658,0,0,1-.25-.287A3.036,3.036,0,0,1,.417,10a3.525,3.525,0,0,1-.006-.477,3.876,3.876,0,0,1,.058-.489A4.025,4.025,0,0,1,.59,8.546,7.553,7.553,0,0,1,.983,7.492a6.88,6.88,0,0,1,.525-.94,5.808,5.808,0,0,1,.635-.794,4.587,4.587,0,0,1,.722-.616,11.523,11.523,0,0,1,1-.573A10.215,10.215,0,0,1,4.88,4.122a9.1,9.1,0,0,1,1.013-.316A8.21,8.21,0,0,1,6.9,3.621ZM.917,10.018a1.265,1.265,0,0,0,.194.175,1.113,1.113,0,0,0,.217.123,1.055,1.055,0,0,0,.234.069,1.092,1.092,0,0,0,.248.014,2.225,2.225,0,0,0,.665-.107,2.842,2.842,0,0,0,.653-.306,3.724,3.724,0,0,0,.617-.49A4.74,4.74,0,0,0,4.3,8.837q.339-.505.648-1.043t.585-1.1q.276-.564.518-1.153t.449-1.2a7.835,7.835,0,0,0-.874.191,8.653,8.653,0,0,0-.876.3q-.438.174-.874.4t-.866.5a3.952,3.952,0,0,0-.625.53,5.008,5.008,0,0,0-.55.684,5.939,5.939,0,0,0-.456.811,6.53,6.53,0,0,0-.343.91,3.185,3.185,0,0,0-.09.341A3.108,3.108,0,0,0,.9,9.351a2.9,2.9,0,0,0-.011.339,2.585,2.585,0,0,0,.029.328Z" transform="translate(0 6.997)" fill="#cf0edb"/>
      <path id="Path_6" data-name="Path 6" d="M.443,4.223.769,4.1a8.254,8.254,0,0,1,1.02-.314A7.377,7.377,0,0,1,2.8,3.615a6.755,6.755,0,0,1,.991-.021,6.39,6.39,0,0,1,.965.125,2.174,2.174,0,0,1,.655.3,2.6,2.6,0,0,1,.554.514,3.4,3.4,0,0,1,.435.7,4.5,4.5,0,0,1,.3.867,3,3,0,0,1,.089.442,3.532,3.532,0,0,1,.027.471,3.948,3.948,0,0,1-.035.488,4.173,4.173,0,0,1-.1.494,3.3,3.3,0,0,1-.247.384,2.778,2.778,0,0,1-.281.322,2.237,2.237,0,0,1-.308.253,1.757,1.757,0,0,1-.326.176,2.721,2.721,0,0,1-.747.221,2.243,2.243,0,0,1-.723-.014,2.171,2.171,0,0,1-.672-.246,2.506,2.506,0,0,1-.6-.475,9.837,9.837,0,0,1-.662-.854,11.119,11.119,0,0,1-.592-.957q-.278-.5-.518-1.054T.57,4.61ZM6.3,7.763a3.453,3.453,0,0,0,.046-.353,3.226,3.226,0,0,0,.009-.346,2.9,2.9,0,0,0-.028-.333,2.51,2.51,0,0,0-.066-.313A3.868,3.868,0,0,0,6,5.671a2.922,2.922,0,0,0-.379-.6,2.235,2.235,0,0,0-.481-.44,1.875,1.875,0,0,0-.567-.257,5.853,5.853,0,0,0-.831-.114,6.147,6.147,0,0,0-.852,0,6.649,6.649,0,0,0-.868.122,7.358,7.358,0,0,0-.878.241q.182.5.4.97T2,6.49q.245.429.519.818a9.1,9.1,0,0,0,.575.734,2.182,2.182,0,0,0,.513.415,1.882,1.882,0,0,0,.58.218,1.935,1.935,0,0,0,.625.018,2.339,2.339,0,0,0,.647-.186,1.348,1.348,0,0,0,.23-.116,1.673,1.673,0,0,0,.22-.165,2.047,2.047,0,0,0,.205-.211A2.429,2.429,0,0,0,6.3,7.763Z" transform="translate(6.511 6.473)" fill="#cf0edb"/>
      <path id="Path_7" data-name="Path 7" d="M2.605.47,2.769.7c.015.021.114.163.258.4s.335.579.532.994a11.694,11.694,0,0,1,.577,1.446A9.528,9.528,0,0,1,4.53,5.307,6.422,6.422,0,0,1,4.562,6.36a7.225,7.225,0,0,1-.136,1.074,7.476,7.476,0,0,1-.3,1.054,7.108,7.108,0,0,1-.447.995,4.507,4.507,0,0,1-.3.517,3.9,3.9,0,0,1-.347.445,3.214,3.214,0,0,1-.386.363,2.559,2.559,0,0,1-.415.27,1.542,1.542,0,0,1-.414-.085,1.6,1.6,0,0,1-.378-.195,1.853,1.853,0,0,1-.333-.3,2.3,2.3,0,0,1-.279-.4,3.763,3.763,0,0,1-.388-.788,4.943,4.943,0,0,1-.231-.922A6.113,6.113,0,0,1,.146,7.374,7,7,0,0,1,.247,6.3a13.417,13.417,0,0,1,.539-2c.222-.637.472-1.232.709-1.745s.46-.944.628-1.253.281-.5.3-.526Zm-.343,9.944a2.379,2.379,0,0,0,.31-.233,2.894,2.894,0,0,0,.287-.294,3.409,3.409,0,0,0,.259-.348,3.863,3.863,0,0,0,.225-.4,6.139,6.139,0,0,0,.385-.859,6.452,6.452,0,0,0,.254-.91A6.231,6.231,0,0,0,4.1,6.446a5.534,5.534,0,0,0-.029-.909q-.1-.582-.243-1.132t-.333-1.06a10.158,10.158,0,0,0-.42-.981,8.9,8.9,0,0,0-.505-.892q-.314.549-.589,1.132T1.468,3.8q-.234.61-.425,1.242T.707,6.317a6.03,6.03,0,0,0-.087.926,5.266,5.266,0,0,0,.058.876,4.261,4.261,0,0,0,.2.793,3.246,3.246,0,0,0,.333.678,2.036,2.036,0,0,0,.212.307,1.68,1.68,0,0,0,.249.243,1.45,1.45,0,0,0,.281.174,1.352,1.352,0,0,0,.309.1Z" transform="translate(4.546 10.07)" fill="#cf0edb"/>
    </g>
  </g>
</svg>
