<svg xmlns="http://www.w3.org/2000/svg" xmlns:xlink="http://www.w3.org/1999/xlink" width="302.013" height="306" viewBox="0 0 302.013 306">
  <defs>
    <clipPath id="clip-Custom_Size_1">
      <rect width="302.013" height="306"/>
    </clipPath>
  </defs>
  <g id="Custom_Size_1" data-name="Custom Size – 1" clip-path="url(#clip-Custom_Size_1)">
    <path id="gitbook" d="M132.233,179.832a8.606,8.606,0,1,1-8.618,8.594,8.606,8.606,0,0,1,8.618-8.594m134.955-53.216a8.606,8.606,0,1,1,8.612-8.6,8.606,8.606,0,0,1-8.612,8.6m0-35.208a26.543,26.543,0,0,0-25.206,35.073l-87.909,46.8a26.557,26.557,0,0,0-45.711,3.416L29.389,135.051c-8.349-4.383-14.592-18.118-13.931-30.629.343-6.525,2.6-11.593,6.035-13.552,2.179-1.224,4.8-1.126,7.59.331l.514.282c20.934,11.018,89.415,47.095,92.3,48.429,4.444,2.069,6.917,2.9,14.507-.7L277.973,65.59c2.081-.783,4.505-2.779,4.505-5.8,0-4.187-4.334-5.839-4.346-5.839-8.055-3.856-20.432-9.647-32.5-15.3-25.806-12.083-55.052-25.769-67.894-32.5-11.091-5.8-20.016-.906-21.607.073l-3.085,1.53C95.238,36.332,17.869,74.649,13.462,77.33,5.59,82.129.706,91.69.069,103.552c-.979,18.816,8.606,38.44,22.329,45.626l83.515,43.067a26.6,26.6,0,0,0,52.922-3.4l91.986-49.861A26.609,26.609,0,1,0,267.188,91.4" transform="translate(4.105 43.803)" fill="#fff"/>
  </g>
</svg>
