<svg xmlns="http://www.w3.org/2000/svg" xmlns:xlink="http://www.w3.org/1999/xlink" width="42" height="51" viewBox="0 0 42 51">
  <defs>
    <clipPath id="clip-Custom_Size_1">
      <rect width="42" height="51"/>
    </clipPath>
  </defs>
  <g id="Custom_Size_1" data-name="Custom Size – 1" clip-path="url(#clip-Custom_Size_1)">
    <g id="hierarchy" transform="translate(-3.707 -0.552)">
      <path id="Path_47" data-name="Path 47" d="M44.5,23.7a2.731,2.731,0,0,0-2.6.2,8.307,8.307,0,0,0-3.5,5.2,3.4,3.4,0,0,0-.1,1,2.769,2.769,0,0,0,.1.9,2.449,2.449,0,0,0,.9,1.4l-2-1.2a2.151,2.151,0,0,1-1-1.4,2.769,2.769,0,0,1-.1-.9,3.4,3.4,0,0,1,.1-1,8.307,8.307,0,0,1,3.5-5.2,2.487,2.487,0,0,1,2.6-.2Z" fill="#121212"/>
      <path id="Path_48" data-name="Path 48" d="M35.1,31.1l-2-1.2L36.4,28l2.1,1.1Z" fill="#121212"/>
      <path id="Path_49" data-name="Path 49" d="M42,23.9c2-1.1,3.6-.2,3.6,2.1A7.784,7.784,0,0,1,42,32.2c-1.7,1-3.1.5-3.5-1.1a2.769,2.769,0,0,1-.1-.9,3.4,3.4,0,0,1,.1-1A7.909,7.909,0,0,1,42,23.9Zm-8.9-3.6c.2.1.5.3.7.4.4.2.8.5,1.3.7a4.44,4.44,0,0,1-1.1.8c-.7-.4-1.3-.8-2-1.2a3.377,3.377,0,0,0,1.1-.7Zm-1.1.8c.7.4,1.3.8,2,1.2-.7-.4-1.3-.8-2-1.2Z" fill="#262626"/>
      <path id="Path_50" data-name="Path 50" d="M31.4,21.4l.6-.3c.7.4,1.3.8,2,1.2l-.6.3c-.6-.3-1.2-.7-1.8-1l-.2-.2Z" fill="#fff"/>
      <path id="Path_51" data-name="Path 51" d="M38.4,30.1a2.769,2.769,0,0,0,.1.9l-5.1,3V22.6l.6-.3a7.632,7.632,0,0,0,1.1-.8v9.6l3.4-1.9a2.769,2.769,0,0,0-.1.9Zm-7-3.8V21.4l2,1.2V34l-2-1.2V28.6" fill="#262626"/>
      <path id="Path_52" data-name="Path 52" d="M29.2,32.5a2.736,2.736,0,0,0-2.6.2,8.307,8.307,0,0,0-3.5,5.2,3.4,3.4,0,0,0-.1,1,2.769,2.769,0,0,0,.1.9,2.449,2.449,0,0,0,.9,1.4L22,40a1.77,1.77,0,0,1-.9-1.4,2.769,2.769,0,0,1-.1-.9,3.4,3.4,0,0,1,.1-1,8.307,8.307,0,0,1,3.5-5.2,2.487,2.487,0,0,1,2.6-.2l2,1.2Z" fill="#121212"/>
      <path id="Path_53" data-name="Path 53" d="M26.7,32.8c2-1.2,3.6-.2,3.6,2.1a7.784,7.784,0,0,1-3.6,6.2c-1.7,1-3.1.5-3.5-1.1a2.769,2.769,0,0,1-.1-.9,3.4,3.4,0,0,1,.1-1A7.479,7.479,0,0,1,26.7,32.8Z" fill="#262626"/>
      <path id="Path_54" data-name="Path 54" d="M20.2,39.7l-2-1.2,3-1.7,2,1.2Zm-4.7,2.7-2-1.2,3-1.7,2,1.2Z" fill="#262626"/>
      <path id="Path_55" data-name="Path 55" d="M15.6,43.3a3.4,3.4,0,0,1-.1,1l-2-1.2a3.751,3.751,0,0,0,.1-1,2.769,2.769,0,0,0-.1-.9c.7.4,1.3.8,2,1.2A2.22,2.22,0,0,1,15.6,43.3Z" fill="#fff"/>
      <path id="Path_56" data-name="Path 56" d="M36.5,13.7A2.368,2.368,0,0,0,34,14a8.307,8.307,0,0,0-3.5,5.2,3.4,3.4,0,0,0-.1,1,2.769,2.769,0,0,0,.1.9,2.434,2.434,0,0,0,1,1.4l-2-1.2a2.047,2.047,0,0,1-.9-1.4,2.769,2.769,0,0,1-.1-.9,3.4,3.4,0,0,1,.1-1,8.307,8.307,0,0,1,3.5-5.2,2.487,2.487,0,0,1,2.6-.2l1.8,1.1Z" fill="#121212"/>
      <path id="Path_57" data-name="Path 57" d="M34,14c2-1.1,3.6-.2,3.6,2.1a8.248,8.248,0,0,1-2.5,5.4,4.44,4.44,0,0,1-1.1.8l-.6.3c-1.4.5-2.6,0-2.9-1.4a2.769,2.769,0,0,1-.1-.9,3.4,3.4,0,0,1,.1-1A8.02,8.02,0,0,1,34,14Z" fill="#262626"/>
      <path id="Path_58" data-name="Path 58" d="M27.3,21l-2-1.2L28.5,18l2,1.2Z" fill="#262626"/>
      <path id="Path_59" data-name="Path 59" d="M14.6,41a2.736,2.736,0,0,0-2.6.2,7.936,7.936,0,0,0-3.6,6.2,2.477,2.477,0,0,0,1.1,2.3l-2-1.2a2.7,2.7,0,0,1-1.1-2.3A8.094,8.094,0,0,1,10,40a2.487,2.487,0,0,1,2.6-.2Z" fill="#121212"/>
      <path id="Path_60" data-name="Path 60" d="M18.1,29c.7.4,1.3.8,2,1.2a5.547,5.547,0,0,0-.8.6c-.7-.4-1.3-.8-2-1.2A5.547,5.547,0,0,0,18.1,29Z" fill="#fff"/>
      <path id="Path_61" data-name="Path 61" d="M17.3,29.6c.7.4,1.3.8,2,1.2C18.6,30.4,18,30,17.3,29.6Zm3.5-5.2a3.751,3.751,0,0,0,.1-1c.7.4,1.3.8,2,1.2a3.4,3.4,0,0,1-.1,1C22.1,25.2,21.5,24.8,20.8,24.4Zm.1-1.1c.7.4,1.3.8,2,1.2C22.2,24.1,21.6,23.7,20.9,23.3ZM12,41.2c1.7-1,3.1-.5,3.5,1.1a2.769,2.769,0,0,1,.1.9,3.4,3.4,0,0,1-.1,1A8.307,8.307,0,0,1,12,49.4c-2,1.2-3.6.2-3.6-2.1A7.757,7.757,0,0,1,12,41.2Z" fill="#262626"/>
      <path id="Path_62" data-name="Path 62" d="M23.2,38a3.4,3.4,0,0,0-.1,1,2.769,2.769,0,0,0,.1.9l-3,1.7-.8.5-3.8,2.2a3.751,3.751,0,0,0,.1-1,2.769,2.769,0,0,0-.1-.9l2.9-1.7V31.2a2.01,2.01,0,0,0,.8-.4,5.547,5.547,0,0,0,.8-.6v9.5Z" fill="#262626"/>
      <path id="Path_63" data-name="Path 63" d="M16.5,33.8l-.1-3.9,2.1,1.2v9.6l-2-1.2V36.8" fill="#121212"/>
      <path id="Path_64" data-name="Path 64" d="M16.4,29.9a2.01,2.01,0,0,0,.8-.4c.7.4,1.3.8,2,1.2a5.9,5.9,0,0,1-.8.4C17.8,30.7,17.1,30.3,16.4,29.9Zm6.4-6.3-2-1.2,2.8-1.6,2,1.2Z" fill="#262626"/>
      <path id="Path_65" data-name="Path 65" d="M20.8,22.4c.2.1.5.3.7.4.3.2.5.3.8.5.2.1.3.2.5.3a2.769,2.769,0,0,1,.1.9c-.7-.4-1.3-.8-2-1.2a2.769,2.769,0,0,0-.1-.9ZM26.6,12c-.6-.3-1.2-.7-1.8-1A16.179,16.179,0,0,1,26.6,12Z" fill="#fff"/>
      <path id="Path_66" data-name="Path 66" d="M25.3,10.3c.7.4,1.3.8,2,1.2-.2.2-.5.3-.7.5-.7-.4-1.3-.8-2-1.2.7.4,1.3.8,2,1.2a4.179,4.179,0,0,1-1,.4c-.7-.4-1.3-.8-2-1.2a6.9,6.9,0,0,0,1-.4A3.039,3.039,0,0,0,25.3,10.3Z" fill="#fff"/>
      <path id="Path_67" data-name="Path 67" d="M27.3,21l3.1-1.8a3.751,3.751,0,0,0-.1,1,2.769,2.769,0,0,0,.1.9l-4,2.3-.8.5-2.8,1.6a3.751,3.751,0,0,0,.1-1,2.769,2.769,0,0,0-.1-.9L25.6,22V12.4a6.9,6.9,0,0,0,1-.4,3.039,3.039,0,0,0,.7-.5V21Z" fill="#262626"/>
      <path id="Path_68" data-name="Path 68" d="M23.6,14.9V11.2l2,1.2V22l-2-1.2V18.1" fill="#121212"/>
      <path id="Path_69" data-name="Path 69" d="M21.9,22.2a2.532,2.532,0,0,0-2.6.3,7.784,7.784,0,0,0-3.6,6.2A2.477,2.477,0,0,0,16.8,31l-2-1.2a2.7,2.7,0,0,1-1.1-2.3,7.784,7.784,0,0,1,3.6-6.2,2.786,2.786,0,0,1,2.6-.3Z" fill="#121212"/>
      <path id="Path_70" data-name="Path 70" d="M19.3,22.4c1.7-1,3.1-.5,3.5,1.1a2.769,2.769,0,0,1,.1.9,3.4,3.4,0,0,1-.1,1A7.807,7.807,0,0,1,20.1,30a5.547,5.547,0,0,0-.8.6,5.9,5.9,0,0,1-.8.4c-1.6.5-2.8-.5-2.8-2.4a8.094,8.094,0,0,1,3.6-6.2Z" fill="#262626"/>
      <path id="Path_71" data-name="Path 71" d="M29.2,3.4a2.736,2.736,0,0,0-2.6.2A7.936,7.936,0,0,0,23,9.8a2.477,2.477,0,0,0,1.1,2.3L22,11a2.979,2.979,0,0,1-1.1-2.3,7.784,7.784,0,0,1,3.6-6.2,2.487,2.487,0,0,1,2.6-.2Z" fill="#121212"/>
      <path id="Path_72" data-name="Path 72" d="M26.6,3.7c2-1.2,3.6-.2,3.6,2.1a8.166,8.166,0,0,1-2.9,5.8c-.2.2-.5.3-.7.5a4.179,4.179,0,0,1-1,.4c-1.5.4-2.6-.6-2.6-2.5a7.815,7.815,0,0,1,3.6-6.3Z" fill="#262626"/>
      <path id="Path_73" data-name="Path 73" d="M44.7,23.5h0l-2-1.2a2.883,2.883,0,0,0-2.8.3,8.142,8.142,0,0,0-3.6,5.3l-.9.5V21.7a8.432,8.432,0,0,0,2.5-5.5,2.97,2.97,0,0,0-1.1-2.5c-.2-.1-2.3-1.3-2.2-1.3a2.651,2.651,0,0,0-2.8.3A8.951,8.951,0,0,0,28.2,18l-.6.4V11.8a8.378,8.378,0,0,0,2.9-5.9,2.581,2.581,0,0,0-1.2-2.5c-.2-.1-2.2-1.3-2-1.2a2.844,2.844,0,0,0-2.8.2,8.017,8.017,0,0,0-3.7,6.5A2.581,2.581,0,0,0,22,11.4l1.5.8V15c0,.1.1.2.3.2.1,0,.2-.1.2-.3V12.4a2.016,2.016,0,0,0,1.1.3h.4v8.9L24,20.7V18.2c0-.1-.1-.2-.3-.2-.1,0-.2.1-.2.3v2.5l-1.9,1.1a14.621,14.621,0,0,0-1.5-.9,2.883,2.883,0,0,0-2.8.3,8.134,8.134,0,0,0-3.7,6.4,2.581,2.581,0,0,0,1.2,2.5l1.6.9V34c0,.1.1.2.3.2.1,0,.3-.1.2-.3V31.3a2.053,2.053,0,0,0,1.5.2v8.8L17,39.5l-.3-.2V36.7c0-.1-.1-.2-.3-.2-.1,0-.3.1-.2.3v2.6l-2,1.1-1.6-.9a2.844,2.844,0,0,0-2.8.2,8.134,8.134,0,0,0-3.7,6.4,2.581,2.581,0,0,0,1.2,2.5l2,1.2a2.62,2.62,0,0,0,2.8-.3,8.142,8.142,0,0,0,3.6-5.3l6.7-3.9c.2.1,1.5.9,1.8,1a2.756,2.756,0,0,0,2.6-.4,8.163,8.163,0,0,0,3.7-6.5A2.641,2.641,0,0,0,29.3,32l-2-1.2a2.844,2.844,0,0,0-2.8.2,8.394,8.394,0,0,0-3.6,5.3l-.5.3V29.9A8.276,8.276,0,0,0,23,25.4l6.7-3.9,1.4.8V26c0,.1.1.2.3.2.1,0,.3-.1.2-.3V22.5a1.946,1.946,0,0,0,1.5,0V33.2l-1.5-.9v-4c0-.1-.1-.2-.3-.2-.1,0-.3.1-.2.3v4.2c0,.1,0,.2.1.2l2,1.2h.2l4.2-2.4,1.5.9a2.772,2.772,0,0,0,2.9-.2,8.163,8.163,0,0,0,3.7-6.5,2.191,2.191,0,0,0-1-2.3Zm-8.3,4.7,1.5.9-2.6,1.5V28.8ZM32.1,13a2.976,2.976,0,0,1,1.5-.5,1.884,1.884,0,0,1,.8.2l.9.5a4.759,4.759,0,0,0-1.4.5,8.15,8.15,0,0,0-3.5,5l-1.6-.9A7.561,7.561,0,0,1,32.1,13Zm-3.6,5.3,1.5.9-2.4,1.4V18.8ZM21.2,8.7a7.737,7.737,0,0,1,3.5-6,2.976,2.976,0,0,1,1.5-.5,1.884,1.884,0,0,1,.8.2l.9.6a2.654,2.654,0,0,0-1.4.5A8.017,8.017,0,0,0,22.8,10a3.194,3.194,0,0,0,.3,1.4l-.8-.5a2.413,2.413,0,0,1-1.1-2.2Zm2,1.2a7.737,7.737,0,0,1,3.5-6A2.483,2.483,0,0,1,29,3.6a2.389,2.389,0,0,1,1,2.1,8.2,8.2,0,0,1-2.8,5.6c-2,1.6-3.9,1.1-4-1.4ZM14.8,29.6a2.336,2.336,0,0,1-.9-2.1,7.737,7.737,0,0,1,3.5-6,2.976,2.976,0,0,1,1.5-.5,1.884,1.884,0,0,1,.8.2l.9.5a4.759,4.759,0,0,0-1.4.5,8.163,8.163,0,0,0-3.7,6.5,3.194,3.194,0,0,0,.3,1.4ZM7.6,48.4a2.336,2.336,0,0,1-.9-2.1,7.737,7.737,0,0,1,3.5-6,2.149,2.149,0,0,1,2.3-.2l.8.5a4.759,4.759,0,0,0-1.4.5,8.134,8.134,0,0,0-3.7,6.4,3.194,3.194,0,0,0,.3,1.4l-.9-.5Zm4.3.9c-1.8,1.1-3.2.3-3.2-1.8a7.737,7.737,0,0,1,3.5-6c1.8-1,3.2-.3,3.2,1.8A7.624,7.624,0,0,1,11.9,49.3ZM15.7,42a2.73,2.73,0,0,0-.9-1.2l1.7-1,.1.1,1.4.8L15.7,42Zm13.4-9.3a2.226,2.226,0,0,1,.9,2.1,7.737,7.737,0,0,1-3.5,6c-1.4.8-2.8.6-3.2-1-.5-2.2,1.1-5.5,3.4-6.9a2.928,2.928,0,0,1,2.4-.2Zm-4.3-.9a2.407,2.407,0,0,1,2.3-.3l.9.5a4.759,4.759,0,0,0-1.4.5,8.267,8.267,0,0,0-3.5,5l-1.6-.9a7.212,7.212,0,0,1,3.3-4.8Zm-3.6,5.3,1.5.9-2.2,1.3V37.5Zm1.7,1.3V39a2.2,2.2,0,0,0,.1.8l-7,4.1v-.6a2.2,2.2,0,0,0-.1-.8l2.8-1.6.1-.1V31.4a5.908,5.908,0,0,0,1.2-.6v9c0,.1,0,.2.1.2h.3l2.5-1.6Zm-.3-12.9A8.276,8.276,0,0,1,20,30c-2,1.7-4.1,1.3-4.1-1.3a7.737,7.737,0,0,1,3.5-6,2.27,2.27,0,0,1,2.2-.3,1.521,1.521,0,0,1,1,1.3,1.949,1.949,0,0,1,.1.8v.1C22.7,24.9,22.6,25.2,22.6,25.5Zm.4-2.3a2.73,2.73,0,0,0-.9-1.2l1.6-.9c.1.1,1.6.9,1.5.9L23,23.2Zm.1,1.9v-.5a1.952,1.952,0,0,0-.1-.7v-.1l2.7-1.5c.1,0,.1-.2.1-.2V12.7a4.453,4.453,0,0,0,1.2-.6v9c0,.2.2.3.4.2l2.7-1.6v1.4l-7,4Zm7.2-3.6c.1,0,.1,0,.1.1Zm.3-1.3a7.779,7.779,0,0,1,3.5-6c1.8-1.1,3.2-.2,3.2,1.9a7.863,7.863,0,0,1-2.4,5.2C32.9,23.2,30.6,22.9,30.6,20.2Zm3.1,13.4V22.8a4.129,4.129,0,0,0,1.1-.7h.1v9.1c0,.2.2.3.4.2l2.9-1.7v.6a2.2,2.2,0,0,0,.1.8l-4.6,2.5Zm3-5.8A7.9,7.9,0,0,1,40,22.9a2.407,2.407,0,0,1,2.3-.3l.9.5a4.759,4.759,0,0,0-1.4.5,8.267,8.267,0,0,0-3.5,5l-1.6-.8ZM41.9,32c-1.8,1-3.2.3-3.2-1.8a7.476,7.476,0,0,1,3.5-6c1.8-1.1,3.2-.2,3.2,1.8A7.737,7.737,0,0,1,41.9,32Z" fill="#93009d"/>
    </g>
  </g>
</svg>
