<?xml version="1.0" encoding="UTF-8"?>
<svg id="Layer_5" data-name="Layer 5" xmlns="http://www.w3.org/2000/svg" viewBox="0 0 840.78 946.88">
  <defs>
    <style>
      .cls-1 {
        fill: none;
        stroke: #fff;
        stroke-miterlimit: 10;
        stroke-width: 28px;
      }
    </style>
  </defs>
  <path class="cls-1" d="M434.5,469.73s-156.05,1.46-176.27-1.93c-20.23-3.39-61.67-7.04-118.65-50.89s-75.79-116.73-75.79-157.79c10.89-6.16,41.12-21.65,61.64-24.68,20.52-3.03,57.22-10.76,117.06,18.76,59.84,29.53,98.72,83.83,98.72,83.83l93.28,132.69Z"/>
  <path class="cls-1" d="M435.47,470.58s0-.08-.03-.08c-4.19-.04-156.26-1.41-176.21,1.93s-61.67,7.04-118.66,50.89c-56.99,43.85-75.8,116.73-75.8,157.79,10.89,6.16,41.13,21.65,61.64,24.68,20.52,3.03,57.23,10.76,117.08-18.76,59.85-29.53,98.73-83.83,98.73-83.83l93.24-132.61Z"/>
  <path class="cls-1" d="M438.4,469.73s156.05-1.46,176.27,1.93c20.23,3.39,61.67,7.04,118.65,50.89,56.98,43.85,75.79,116.73,75.79,157.79-10.89,6.16-41.12,21.65-61.64,24.68-20.52,3.03-57.22,10.76-117.06-18.76-59.84-29.53-98.72-83.83-98.72-83.83l-93.28-132.69Z"/>
  <path class="cls-1" d="M438.44,469.65s0,.08,.03,.08c4.19,.04,156.26,1.41,176.21-1.93s61.67-7.04,118.66-50.89c56.99-43.85,75.8-116.73,75.8-157.79-10.89-6.16-41.13-21.65-61.64-24.68-20.52-3.03-57.23-10.76-117.08,18.76-59.85,29.53-98.73,83.83-98.73,83.83l-93.24,132.61Z"/>
  <path class="cls-1" d="M528,815.65c50.29-75.43,31.99-171.12-6.03-225.85-38.02-54.74-84.97-119.14-84.97-119.14l-.39,.37s-46.95,64.41-84.97,119.14c-38.02,54.74-56.32,150.42-6.03,225.85,32,48,91.17,81.98,91.17,81.98,0,0,59.22-34.35,91.22-82.35Z"/>
  <path class="cls-1" d="M527.97,125.39c50.29,75.43,31.99,171.12-6.03,225.85-38.02,54.74-84.97,119.14-84.97,119.14l-.39-.37s-46.95-64.41-84.97-119.14-56.32-150.42-6.03-225.85c32-48,91.17-81.98,91.17-81.98,0,0,59.22,34.35,91.22,82.35Z"/>
</svg>