<svg xmlns="http://www.w3.org/2000/svg" width="38.274" height="38.091" viewBox="0 0 38.274 38.091">
  <g id="mallet" transform="translate(-0.575 -0.6)">
    <g id="Group_2" data-name="Group 2" transform="translate(16.955 16.715)">
      <g id="Group_1" data-name="Group 1">
        <path id="Path_5" data-name="Path 5" d="M40.885,42.213a1.607,1.607,0,0,1-1.139-.488L21.188,23.167a1.611,1.611,0,0,1,2.279-2.279L42.106,39.527a1.574,1.574,0,0,1,0,2.279A2.422,2.422,0,0,1,40.885,42.213Z" transform="translate(-20.7 -20.4)" fill="#fff"/>
      </g>
    </g>
    <g id="Group_4" data-name="Group 4" transform="translate(2.223 35.435)">
      <g id="Group_3" data-name="Group 3">
        <path id="Path_6" data-name="Path 6" d="M18.308,46.656H4.228a1.628,1.628,0,0,1,0-3.256H18.308a1.628,1.628,0,0,1,0,3.256Z" transform="translate(-2.6 -43.4)" fill="#fff"/>
      </g>
    </g>
    <g id="Group_6" data-name="Group 6" transform="translate(0.575 0.6)">
      <g id="Group_5" data-name="Group 5">
        <path id="Path_7" data-name="Path 7" d="M9.874,27.866c-2.116,0-4.965-2.686-5.779-3.5C2.63,22.9.514,20.459.6,18.506a1.561,1.561,0,0,1,.488-1.384l15.3-15.464A3.529,3.529,0,0,1,18.827.6,3.571,3.571,0,0,1,21.35,1.658l5.29,5.29A3.513,3.513,0,0,1,27.7,9.472a3.212,3.212,0,0,1-1.058,2.442L11.257,27.377a1.607,1.607,0,0,1-1.139.488ZM3.851,18.75a10.423,10.423,0,0,0,2.523,3.256A13.942,13.942,0,0,0,9.63,24.529L24.443,9.716c.081-.081.081-.081.081-.163a.617.617,0,0,0-.163-.326l-5.29-5.29a.383.383,0,0,0-.488-.081Z" transform="translate(-0.575 -0.6)" fill="#fff"/>
      </g>
    </g>
  </g>
</svg>
