<svg xmlns="http://www.w3.org/2000/svg" xmlns:xlink="http://www.w3.org/1999/xlink" width="42" height="51" viewBox="0 0 42 51">
  <defs>
    <clipPath id="clip-Custom_Size_1">
      <rect width="42" height="51"/>
    </clipPath>
  </defs>
  <g id="Custom_Size_1" data-name="Custom Size – 1" clip-path="url(#clip-Custom_Size_1)">
    <g id="server-coding" transform="translate(-2.333 1.2)">
      <path id="Path_6" data-name="Path 6" d="M8.753,40.905,3,37.542V29.4L20.347,39.489v8.142L13.62,43.737" transform="translate(-0.023 -3.173)" fill="#121212"/>
      <path id="Path_7" data-name="Path 7" d="M20.347,37.742,3,27.652,26.365,14.2,43.711,24.289Z" transform="translate(-0.023 -1.426)" fill="#191919"/>
      <path id="Path_8" data-name="Path 8" d="M45.965,25.6v8.142L22.6,47.195V39.052Z" transform="translate(-2.276 -2.736)" fill="#262626"/>
      <path id="Path_9" data-name="Path 9" d="M24.7,42.01l9.027-5.31.089,3.363L24.7,45.285Z" transform="translate(-2.518 -4.013)" fill="#171717"/>
      <path id="Path_10" data-name="Path 10" d="M44.834,31.08c.531-.354.974-.089.974.62a2.4,2.4,0,0,1-.974,1.77.632.632,0,0,1-1.062-.531A2.274,2.274,0,0,1,44.834,31.08Zm-3.186,1.77c.531-.354.974-.089.974.62a2.258,2.258,0,0,1-.974,1.77.632.632,0,0,1-1.062-.531A2.518,2.518,0,0,1,41.648,32.85Zm-3.186,1.859c.531-.354.974-.089.974.62a2.4,2.4,0,0,1-.974,1.77.632.632,0,0,1-1.062-.531,2.831,2.831,0,0,1,1.062-1.859Z" transform="translate(-3.978 -3.348)" fill="#171717"/>
      <path id="Path_11" data-name="Path 11" d="M43.865,25.416c0-.089,0-.177-.089-.177L41.564,24l-.443.266L43.246,25.5l-7.965,4.6L20.412,38.691c-2.478-1.5-13.01-7.523-16.993-9.912L5.544,27.54,5.1,27.275,2.889,28.6c-.089,0-.089.089-.089.177v8.142c0,.089,0,.177.089.177l5.664,3.275a.2.2,0,1,0,.177-.354L3.154,36.744V29.133l16.993,9.912v7.611L13.686,42.94a.2.2,0,0,0-.177.354l6.726,3.894h.177L43.777,33.735c.089,0,.089-.089.089-.177V25.416ZM20.589,46.657V39.045L43.423,25.77v7.611Z" transform="translate(0 -2.552)"/>
      <path id="Path_12" data-name="Path 12" d="M33.87,35.827H33.6l-9.116,5.222c-.089,0-.089.089-.089.177v3.363c0,.177.177.266.354.177l9.116-5.222c.089,0,.089-.088.089-.177V36C33.958,35.915,33.958,35.915,33.87,35.827Zm-9.027,8.408V41.4l8.673-5.045V39.19ZM43.251,30.782A2.523,2.523,0,0,0,42.1,32.729c0,.8.62,1.151,1.328.708a2.523,2.523,0,0,0,1.151-1.947A.844.844,0,0,0,43.251,30.782Zm0,2.39c-.443.266-.708.089-.708-.354a2.243,2.243,0,0,1,.885-1.593c.443-.266.708-.089.708.443A2.065,2.065,0,0,1,43.251,33.172Zm-3.186-.531a2.523,2.523,0,0,0-1.151,1.947c0,.8.62,1.151,1.328.708a2.523,2.523,0,0,0,1.151-1.947C41.393,32.641,40.773,32.287,40.065,32.641Zm0,2.3c-.443.266-.708.089-.708-.354a2.243,2.243,0,0,1,.885-1.593c.443-.266.708-.089.708.443A2.065,2.065,0,0,1,40.065,34.942ZM36.879,34.5a2.523,2.523,0,0,0-1.151,1.947c0,.8.62,1.151,1.328.708a2.523,2.523,0,0,0,1.151-1.947C38.206,34.411,37.587,34.057,36.879,34.5Zm0,2.3c-.443.266-.708.089-.708-.354a2.243,2.243,0,0,1,.885-1.593c.443-.266.708-.089.708.443A1.825,1.825,0,0,1,36.879,36.8Z" transform="translate(-2.483 -3.316)"/>
      <path id="Path_13" data-name="Path 13" d="M20.347,35.432,3,25.342V17.2L20.347,27.289Z" transform="translate(-0.023 -1.771)" fill="#121212"/>
      <path id="Path_14" data-name="Path 14" d="M35.834,7.487l7.877,4.6L20.347,25.542,3,15.452,26.365,2l4.6,2.744" transform="translate(-0.023 -0.023)" fill="#262626"/>
      <path id="Path_15" data-name="Path 15" d="M45.965,13.4v8.142L22.6,34.995V26.852Z" transform="translate(-2.276 -1.334)" fill="#262626"/>
      <path id="Path_16" data-name="Path 16" d="M24.7,29.722,33.727,24.5l.089,3.363L24.7,33.085Z" transform="translate(-2.518 -2.61)" fill="#171717"/>
      <path id="Path_17" data-name="Path 17" d="M42.466,17.788c.531-.354.974-.089.974.62a2.4,2.4,0,0,1-.974,1.77.632.632,0,0,1-1.062-.531A2.274,2.274,0,0,1,42.466,17.788ZM39.28,19.647c.531-.354.974-.089.974.62a2.4,2.4,0,0,1-.974,1.77.632.632,0,0,1-1.062-.531A2.518,2.518,0,0,1,39.28,19.647Zm-3.186,1.859c.531-.354.974-.089.974.62a2.258,2.258,0,0,1-.974,1.77.632.632,0,0,1-1.062-.531A2.464,2.464,0,0,1,36.094,21.505ZM30.606,11.328c3.186,1.859,3.186,4.779,0,6.638a12.386,12.386,0,0,1-11.417,0C16,16.107,16,13.186,19.19,11.328A12.937,12.937,0,0,1,30.606,11.328Z" transform="translate(-1.61 -0.943)" fill="#171717" stroke="#171717" stroke-width="1"/>
      <path id="Path_18" data-name="Path 18" d="M24.919,19.515A11.428,11.428,0,0,1,19.078,18.1a4.254,4.254,0,0,1-2.478-3.54c0-1.328.885-2.567,2.478-3.54a12.935,12.935,0,0,1,11.682,0c1.593.974,2.478,2.213,2.478,3.54s-.885,2.567-2.478,3.54a11.428,11.428,0,0,1-5.841,1.416Zm0-9.381a11.3,11.3,0,0,0-5.576,1.328c-1.416.885-2.213,1.947-2.213,3.1a3.722,3.722,0,0,0,2.3,3.1,12.559,12.559,0,0,0,11.24,0c1.416-.885,2.213-1.947,2.213-3.1a3.722,3.722,0,0,0-2.3-3.1,13.023,13.023,0,0,0-5.664-1.328Z" transform="translate(-1.587 -0.9)"/>
      <g id="Group_1" data-name="Group 1" transform="translate(2.8 1.8)">
        <path id="Path_19" data-name="Path 19" d="M43.865,12.066a.309.309,0,0,0-.089-.177c-12.125-7.08-6.2-3.54-7.877-4.6a.2.2,0,0,0-.177.354l7.523,4.337-.354.177-22.568,13.1c-8.673-5.045-16.993-9.912-16.9-9.824L26.342,2.243,30.855,4.9a.17.17,0,0,0,.266-.089.17.17,0,0,0-.089-.266L26.342,1.8h-.266L2.889,15.252c-.089,0-.089.089-.089.177v8.142c0,.089,0,.177.089.177L20.235,33.838h.177L43.777,20.386c.089,0,.089-.089.089-.177V12.066ZM3.243,15.783c21.241,12.39,15.222,8.85,16.9,9.824v7.611l-16.9-9.735v-7.7ZM20.589,33.218V25.607C51.919,7.553,41.122,13.748,43.423,12.42v7.611L20.589,33.218Z" transform="translate(-2.8 -1.8)" fill="#93009d"/>
        <path id="Path_20" data-name="Path 20" d="M33.5,22.932h-.266l-9.116,5.222c-.089,0-.089.089-.089.177v3.363c0,.089,0,.177.089.177H24.3l9.116-5.222c.088,0,.088-.089.088-.177V23.109C33.59,23.02,33.59,22.932,33.5,22.932Zm-.354,3.363-8.673,4.956V28.419l8.673-4.956v2.832Zm9.735-8.408a2.523,2.523,0,0,0-1.151,1.947.837.837,0,0,0,1.328.8,2.523,2.523,0,0,0,1.151-1.947A.845.845,0,0,0,42.883,17.887Zm0,2.39c-.443.266-.708.089-.708-.354a2.243,2.243,0,0,1,.885-1.593.412.412,0,0,1,.708.354A2.429,2.429,0,0,1,42.883,20.277ZM39.7,19.746a2.523,2.523,0,0,0-1.151,1.947c0,.8.62,1.151,1.328.708a2.523,2.523,0,0,0,1.151-1.947A.8.8,0,0,0,39.7,19.746Zm0,2.3c-.443.266-.708.089-.708-.354a2.243,2.243,0,0,1,.885-1.593c.443-.266.708-.089.708.354A2.083,2.083,0,0,1,39.7,22.047Zm-3.186-.531a2.523,2.523,0,0,0-1.151,1.947.8.8,0,0,0,1.328.708,2.523,2.523,0,0,0,1.151-1.947A.844.844,0,0,0,36.511,21.516Zm0,2.39c-.443.266-.708.089-.708-.354a2.243,2.243,0,0,1,.885-1.593c.443-.266.708-.089.708.354A1.859,1.859,0,0,1,36.511,23.905Zm-9.647-6.815a.325.325,0,0,0,.089-.266l-2.567-3.983a.2.2,0,0,0-.354.177L26.6,17a.325.325,0,0,0,.266.089Zm1.77-2.213c.089,0,.266,0,.266-.089l.8-2.124v-.177c-.089-.089-.089-.089-.177-.089l-3.717.443c-.089,0-.177.089-.177.266,0,.089.089.177.266.177l3.363-.443-.708,1.77a.17.17,0,0,0,.089.266Zm-6.372,0c-.089,0-.266,0-.266.089l-.8,2.124v.177c0,.089.089.089.177.089s.531-.089,3.717-.443c.089,0,.177-.089.177-.266s-.089-.177-.177-.177l-3.363.443.708-1.77C22.439,15.055,22.439,14.878,22.262,14.878Z" transform="translate(-4.916 -3.019)" fill="#aa01b5"/>
      </g>
    </g>
  </g>
</svg>
