<svg xmlns="http://www.w3.org/2000/svg" width="161.945" height="288.929" viewBox="0 0 161.945 288.929">
  <g id="face-detection" transform="translate(-607.156 -187.902)">
    <path id="Path_84" data-name="Path 84" d="M472.495,301.677c2.017,19.968,1.815,20.17,1.412,48.81-7.664,47.2-162.567,7.664-157.726-41.146-.605-44.171,1.815-63.736,13.514-87.939a25.8,25.8,0,0,1,26.019-14.32c33.683,3.429,74.426,28.036,103.873,54.861,8.27,9.48,12.1,22.993,12.909,39.734Z" transform="translate(294.931 99.184)" fill="rgba(240,240,240,0.64)"/>
    <path id="Path_85" data-name="Path 85" d="M387.432,257.626l8.673,34.49c1.21,19.766-26.22,31.061-44.575,20.573a5.826,5.826,0,0,1-3.025-6.051c1.008-10.488-1.21-20.976-5.647-31.868A25.647,25.647,0,0,1,324.1,257.626Zm-11.093-99.234s12.1-18.556,34.288-7.664a8.479,8.479,0,0,0,1.008.4,38.381,38.381,0,0,1,23.2,34.692c0,10.286-2.219,18.556-7.664,25.414l-64.744-38.726Z" transform="translate(316.231 40.601)" fill="#fff"/>
    <path id="Path_86" data-name="Path 86" d="M338.544,216.734s-.4,33.885,12.1,53.248A20.449,20.449,0,0,0,369,279.26c16.741-.605,31.465-8.068,42.356-20.976l23.4-27.027-1.412-23.4s-28.842-11.7-29.448-12.1c-.605-.2-39.129-30.658-39.129-30.658l-21.38,3.429L333.3,186.48Z" transform="translate(299.77 59.507)" fill="#fff"/>
    <path id="Path_87" data-name="Path 87" d="M337.127,231.954c-9.278-14.32-12.1-28.036-6.656-40.541a35.441,35.441,0,0,0,2.622-10.085c3.832-29.246,27.834-36.91,55.466-27.229a54.055,54.055,0,0,0,11.295,2.622c25.817,3.227,42.154,17.548,44.575,50.827,2.017,34.692-13.514,55.87-34.288,65.954a15.46,15.46,0,0,1,6.253-14.119c5.446-4.236,8.875-10.286,9.681-18.556A2.547,2.547,0,0,0,422.646,238c-5.042,2.017-10.892,2.824-17.346,3.025a18.544,18.544,0,0,1-13.715-5.446c-7.261-7.261-13.312-16.337-18.556-27.027a35.014,35.014,0,0,0-8.068-11.295c-5.647-4.639-11.5-7.059-17.951-6.454a9.724,9.724,0,0,0-8.471,7.059c-2.622,9.076-2.622,20.775-1.412,34.087Z" transform="translate(301.97 44.285)" fill="#f0f0f0"/>
    <path id="Path_91" data-name="Path 91" d="M315.253,370.838c-.605-45.987,2.42-65.148,13.715-88.746a27.377,27.377,0,0,1,16.741-14.32,148.045,148.045,0,0,1-3.631-31.465c-9.681-15.329-11.9-29.246-6.454-41.953a43.4,43.4,0,0,0,2.622-9.48c4.034-30.658,29.448-38.927,58.088-28.842a17.04,17.04,0,0,0,3.429,1.008c3.429-4.034,15.934-17.144,35.9-7.059a3.408,3.408,0,0,1,1.008.4,40.1,40.1,0,0,1,24.405,36.507c0,10.69-2.42,18.959-7.664,26.22,1.815,40.944-20.573,58.693-34.692,65.753l3.227,12.707a261.246,261.246,0,0,1,40.137,30.456,2,2,0,0,1-2.622,3.025,278.085,278.085,0,0,0-37.314-28.641c-.807,7.059-5.042,13.514-12.1,17.749-10.69,6.656-25.01,7.059-35.5,1.008a8.193,8.193,0,0,1-4.034-8.068c.2-2.219.2-4.639.2-7.059a21.843,21.843,0,0,1-16.136-10.085,71.032,71.032,0,0,1-7.866-18.354,24.54,24.54,0,0,0-14.119,12.1c-11.093,22.993-13.917,41.549-13.312,86.931v.2c-2.622,26.422,48.407,52.844,95.805,59.1,26.019,3.429,54.861.4,57.887-18.153v-1.412c.4-27.229.4-27.632-1.613-47.2a2.363,2.363,0,0,1,1.815-2.219,2.034,2.034,0,0,1,2.219,1.815c1.815,19.766,1.815,20.371,1.614,47.6v1.815c-2.42,14.724-18.354,22.993-43.566,22.993a162.241,162.241,0,0,1-18.959-1.21c-42.356-5.244-102.058-30.859-99.234-63.131ZM457.045,187.093a36.665,36.665,0,0,0-21.985-32.876,8.492,8.492,0,0,1-1.008-.4h-.2c-11.9-5.849-22.388-3.429-29.649,4.437a15.567,15.567,0,0,0,3.025.4c27.431,3.429,42.356,19.161,45.785,47.8,2.824-5.446,4.236-11.7,4.034-19.363Zm-29.851,81.888c17.144-13.312,23.195-33.885,22.388-55.265a7.564,7.564,0,0,0-.2-2.017c0-1.008-.2-2.017-.2-3.025-2.824-28.036-16.337-42.759-42.558-45.987a57.781,57.781,0,0,1-11.7-2.622c-26.019-9.278-49.012-2.622-52.844,25.615a43.747,43.747,0,0,1-2.824,10.69c-4.437,10.286-2.824,20.976,2.219,31.061-.4-7.664-.2-18.153,1.815-25.817a11.676,11.676,0,0,1,10.085-8.471c6.656-.605,13.11,1.614,19.564,7.059a32.526,32.526,0,0,1,8.673,11.9c5.244,10.69,11.295,19.564,18.153,26.422a16.267,16.267,0,0,0,12.1,4.841c6.656-.2,12.3-1.21,16.741-3.025a4.5,4.5,0,0,1,6.051,4.841c-.807,8.068-4.034,15.127-10.488,19.968a13.173,13.173,0,0,0-5.244,9.278,73.546,73.546,0,0,0,8.27-5.446ZM376.77,311.943c9.278,5.244,21.783,4.841,31.263-1.008,7.463-4.639,10.69-11.5,10.286-17.548L415.5,282.294a52.166,52.166,0,0,1-7.059,6.253,58.717,58.717,0,0,1-33.481,11.9c0,2.42,0,4.841-.2,7.261a4.232,4.232,0,0,0,2.017,4.236Zm-28.842-55.265c1.412,10.286,4.437,22.59,10.286,31.263a18.389,18.389,0,0,0,12.505,8.068,15.472,15.472,0,0,0,4.034.2,55.457,55.457,0,0,0,40.339-19.564,18.475,18.475,0,0,1,7.059-15.127c5.244-4.034,8.068-9.48,8.875-17.144a.9.9,0,0,0-.605-.807c-5.042,2.017-10.892,3.025-18.153,3.227a20.374,20.374,0,0,1-15.127-6.051c-7.261-7.059-13.514-16.337-18.959-27.632-2.219-4.639-4.639-8.068-7.664-10.488-5.446-4.639-10.892-6.656-16.539-6.051a7.871,7.871,0,0,0-6.656,5.446c-3.227,12.505-1.412,28.641-1.21,33.28a157.853,157.853,0,0,0,1.815,21.38Z" transform="translate(292 41.652)" fill="#9d0cfe"/>
  </g>
</svg>
