<svg xmlns="http://www.w3.org/2000/svg" viewBox="0 0 520 520" id="RobotHandshake"><path fill="#ba53ff" d="M260.9 475.1c-3.2 0-6.5-.7-9-2.2L7.2 331.7c-2.6-1.5-4-3.5-4-5.6 0-2.1 1.4-4.1 3.9-5.6l243.1-141.3c5-2.9 12.8-2.9 17.9 0l244.7 141.3c2.5 1.5 3.9 3.5 3.9 5.6 0 2.1-1.4 4.1-3.9 5.6L269.8 473c-2.5 1.4-5.7 2.1-8.9 2.1zm-1.7-296.5c-3 0-5.9.6-8.2 1.9L7.9 321.8c-2 1.2-3.1 2.7-3.1 4.3 0 1.6 1.1 3.1 3.2 4.3l244.7 141.2c4.5 2.6 11.8 2.6 16.4 0l243.1-141.3c2-1.2 3.1-2.7 3.1-4.3 0-1.6-1.1-3.1-3.2-4.3L267.4 180.5c-2.3-1.3-5.3-1.9-8.2-1.9zm253.3 152.5z" class="colorf0f0f0 svgShape"></path><path fill="#ffffff" d="M13 106.2c-1.8 9.4-.7 17.9 4.6 23.9L67.5 195l52.6-114.3s-9.5-6.9-19.7-14.3M82.5 53.6c-3.9-2.8-6.6-4.7-6.7-4.9C59.7 37.3 32 62 19.2 88.5" class="colorffffff svgShape"></path><path fill="#ffffff" d="M167.1 104.9c23 6.4 65.9 13.9 75.4 21.4 9.5 7.5 35.7 17.3 45.1 24.9 8.5 6.8 26.5 37.9 30.5 42.5.4.5.9 1 1.4 1.4l20.9 17.2c5.7 4.7 5.9 13.4.4 18.3-16.2 14.2-44 46.2-45.4 98-.1 4.3-2.5 8.1-6.2 10.1s-8.9 3.7-15.3 2.8c-2.5-.4-5.1.1-7.3 1.3-3.9 2.1-11.3 4.5-22.5 1.8-2.4-.6-4.8-.4-7.1.4h-.1c-4.7 1.6-13.5 3.7-23.2.7-2.3-.7-4.7-.8-7-.2-5.5 1.5-17.8 1.9-34.9-16.3-.2-.2-.4-.5-.6-.7L103 243.9c-.5-.7-1-1.4-1.3-2.1-3.3-6.4-19.9-38.7-28.5-42.6-1-.4-2-.9-3.1-1.3-3-1.2-6.4-2.3-9.6-3.3-1.6-.5-3-1.3-4.3-2.3-6.6-5.6-10.5-15.3-10.5-28.3-.1-30.4 21.3-67.4 47.7-82.6 7.7-4.4 14.9-6.5 21.4-6.6h1.7c.5 0 1.1 0 1.7.1 1.3.1 2.5.4 3.7.8.2.1.4.1.6.2.2.1.4.1.7.2 2.7 1 5.1 2.7 7.1 4.8 1.5 1.6 3.4 3.4 5.7 5.4" class="colorffffff svgShape"></path><path fill="#ffffff" d="M167.1 104.9c23 6.4 65.9 13.9 75.4 21.4 9.5 7.5 35.7 17.3 45.1 24.9 8.5 6.8 26.5 37.9 30.5 42.5.4.5.9 1 1.4 1.4l20.9 17.2c5.7 4.7 5.9 13.4.4 18.3-16.1 14.2-44 46.2-45.4 98-.1 4.3-2.5 8.1-6.2 10.1s-8.9 3.7-15.3 2.8c-2.5-.4-5.1.1-7.3 1.3-3.9 2.1-11.3 4.5-22.5 1.8-2.4-.6-4.8-.4-7.1.4h-.1c-4.7 1.6-13.5 3.7-23.2.7-2.3-.7-4.7-.8-7-.2-5.5 1.5-17.8 1.9-34.9-16.3-.2-.2-.4-.5-.6-.7L103 243.9c-.5-.7-1-1.4-1.4-2.1-3.3-6.4-19.9-38.7-28.5-42.6-1-.4-2-.9-3.1-1.3-3-1.2-6.4-2.3-9.6-3.3-1.6-.5-3-1.3-4.3-2.3-6.6-5.6-10.5-15.3-10.5-28.3 0-8.1 1.5-16.7 4.2-25.3 6.7-21 20.9-41.7 37.8-53.7 1.9-1.3 3.8-2.6 5.7-3.7 7.7-4.4 14.9-6.5 21.4-6.6h1.7c.5 0 1.1 0 1.7.1 1.3.1 2.5.3 3.7.8.2.1.4.1.6.2.2.1.4.1.7.2 2.7 1 5.1 2.7 7.1 4.8 1.5 1.6 3.4 3.4 5.7 5.4" class="colorffffff svgShape"></path><path fill="#9d0cfe" d="M232.7 122.7c1.3 0 2.4.2 3.5.5.7-.2 1.4-.3 2.2-.4-9.5-4.3-27.6-8.5-45.2-12.6-9.6-2.2-18.7-4.3-25.9-6.3-.5-.1-1.1.2-1.2.7-.1.5.2 1.1.7 1.2 7.3 2 16.3 4.1 26 6.3 14.2 3.4 29.7 7 39.9 10.6z" class="color0c60fe svgShape"></path><path fill="#ba53ff" d="M71.9 171.6C64.1 160.5 56.7 149.4 50 139c6.7-21 20.9-41.7 37.8-53.7 25.5 34 75.6 95.8 110 105.5 0 0 64.5 77.2-9 77.5-32 .1-67.8-33.3-98.6-72.3" class="colorf0f0f0 svgShape"></path><path d="M157.2 163.1c-25.5-23.2-51.7-55.9-68.5-78.4-.3-.4-.9-.5-1.4-.2-16.7 11.8-31.3 32.6-38.2 54.2-.1.3-.1.6.1.8 7.3 11.5 14.7 22.5 21.9 32.7.3.5.9.6 1.4.2.5-.3.6-.9.2-1.4-7.1-10-14.4-20.9-21.6-32.2 6.7-20.7 20.6-40.5 36.5-52.2 16.9 22.4 42.7 54.7 68.1 77.8.5-.5 1-.9 1.5-1.3zm51.6 41c-1.1-.2-2.2-.6-3.2-1.2-.1 0-.1-.1-.2-.1 9.4 13.7 22.5 36.9 15.7 51.4-4.1 8.7-14.9 13.2-32.4 13.2h-.2c-27 0-59.9-24.2-97.7-72-.3-.4-1-.5-1.4-.2-.4.3-.5 1-.2 1.4 38.2 48.3 71.6 72.7 99.3 72.7h.2c18.3-.1 29.8-4.9 34.2-14.4 6.8-14.6-4.7-36.6-14.1-50.8z" fill="#000000" class="color000000 svgShape"></path><path fill="#ffffff" d="m352.1 221.9-.8 30.6-54.9 73.1-.6 3.1c-40-23.3-54.7-75.1-54.7-75.1s-1.6-15.5-12.8-34.4c-11.2-18.8-44.7-20.7-44.7-20.7-13.5 12.4-47.1 21.1-57.6 5.1-1.9-2.9-2.9-5.5-3.3-7.9-1.4-10.8 11.6-17 22.1-23.5 12.8-7.9 18.6-16.4 18.6-16.4 13.8-13.7 26.3-10.6 31.9-10.3 5.6.3 13.8 6.9 31.5 1.1 17.7-5.8 23.8-.9 37.7 7.3 13.9 8.1 50.4 36.3 50.4 36.3l37.2 31.7z" class="colorffffff svgShape"></path><path fill="#ffffff" d="m352.1 221.9-.8 30.6-54.9 73.1-.6 3.1c-40-23.3-54.7-75.1-54.7-75.1s-1.6-15.5-12.8-34.4c-11.2-18.8-44.7-20.7-44.7-20.7-13.5 12.4-47.1 21.1-57.6 5.1-1.9-2.9-2.9-5.5-3.3-7.9-1.4-10.8 11.6-17 22.1-23.5 12.8-7.9 18.6-16.4 18.6-16.4 13.8-13.7 26.3-10.6 31.9-10.3 5.6.3 13.8 6.9 31.5 1.1 17.7-5.8 23.8-.9 37.7 7.3 13.9 8.1 50.4 36.3 50.4 36.3l37.2 31.7z" class="colorffffff svgShape"></path><path fill="#ffffff" d="M167.1 104.9c19.2 5.4 52.1 11.4 68.1 17.6 6.9 2.6 14 5.3 21.1 8.4 20 8.6 37.3 21.7 48.8 40.2l8.6 16.3c2.5 3.5 1.9 8.4-1.4 11.2-2.7 2.3-6.5 2.7-9.6.9l-55.3-31.8c-17.3-9.9-37.4-13.8-57.1-10.8l-35.5 5.3c-25.3-23.5-51-55.6-66.9-76.9 1.9-1.3 3.8-2.6 5.7-3.7 7.7-4.4 14.9-6.5 21.4-6.6h1.7c.5 0 1.1 0 1.6.1 1.3.1 2.5.3 3.7.8.2.1.4.1.6.2.2.1.4.1.7.2 2.7 1 5 2.7 7.1 4.8 1.5 1.6 3.4 3.4 5.7 5.4" class="colorffffff svgShape"></path><path fill="#9d0cfe" d="M306.8 201.7c-1.6 0-3.2-.4-4.7-1.2l-55.3-31.8c-17-9.8-37.1-13.6-56.5-10.7l-35.5 5.3c-.3 0-.6 0-.8-.3-25-23.2-50.3-54.7-67-77.1-.2-.2-.2-.5-.2-.7 0-.3.2-.5.4-.7 1.8-1.3 3.6-2.5 5.8-3.7 7.7-4.4 15-6.7 21.9-6.7h2.3c.4 0 .8 0 1.2.1 1.4.1 2.7.4 3.9.8l.2.1c.1 0 .2.1.3.1l.3.1c.2.1.4.1.6.2 2.7 1 5.2 2.7 7.4 5 1.6 1.6 3.5 3.5 5.6 5.4.4.4.4 1 .1 1.4-.4.4-1 .4-1.4.1-2.1-1.9-4.1-3.8-5.7-5.5-2-2.1-4.2-3.6-6.7-4.6-.2-.1-.3-.1-.4-.1l-.2-.1c-.1 0-.2-.1-.4-.1l-.2-.1c-1.1-.4-2.3-.6-3.5-.7-.4 0-.7-.1-1.1-.1H115c-6.5 0-13.5 2.2-20.9 6.4-1.7 1-3.3 2-4.8 3 16.6 22.1 41.3 52.9 65.8 75.6l35-5.2c19.8-3 40.4.9 57.8 10.9l55.3 31.8c2.7 1.5 6.1 1.2 8.4-.8 2.9-2.5 3.4-6.8 1.2-9.9l-.1-.1-8.6-16.3c-10.6-17.1-26.9-30.5-48.3-39.8-7.1-3.1-14.3-5.8-21.1-8.4-9.9-3.8-26.2-7.6-42-11.3-9.6-2.2-18.7-4.3-26-6.4-.5-.1-.8-.7-.7-1.2.1-.5.7-.8 1.2-.7 7.2 2 16.3 4.1 25.9 6.3 15.9 3.7 32.3 7.5 42.3 11.3 6.7 2.5 14 5.3 21.1 8.4 21.8 9.4 38.4 23.1 49.2 40.6l8.6 16.3c2.8 3.9 2.1 9.4-1.6 12.5-1.5 1.8-3.7 2.6-5.9 2.6z" class="color0c60fe svgShape"></path><path fill="#ffffff" d="M167.1 104.9c19.2 5.4 52.1 11.4 68.1 17.6 6.9 2.6 14 5.3 21.1 8.4 20 8.6 37.3 21.7 48.8 40.2l8.1 15.4.2.3.3.6c2.5 3.5 1.9 8.4-1.4 11.2-2.7 2.3-6.5 2.7-9.6.9l-22-12.7-33.3-19.2a88.88 88.88 0 0 0-57.1-10.8l-18.9 2.8-16.5 2.5c-25.3-23.5-51-55.6-66.9-76.9 1.9-1.3 3.8-2.6 5.7-3.7 7.7-4.4 14.9-6.5 21.4-6.6h1.7c.5 0 1.1 0 1.6.1 1.3.1 2.5.3 3.7.8.2.1.4.1.6.2.2.1.4.1.7.2 2.7 1 5 2.7 7.1 4.8 1.5 1.6 3.4 3.4 5.7 5.4" class="colorffffff svgShape"></path><path fill="#9d0cfe" d="M306.8 201.7c-1.6 0-3.2-.4-4.7-1.2l-55.3-31.8c-17-9.8-37.1-13.6-56.5-10.7l-35.5 5.3c-.3 0-.6 0-.8-.3-25-23.2-50.3-54.7-67-77.1-.2-.2-.2-.5-.2-.7 0-.3.2-.5.4-.7 1.8-1.3 3.6-2.5 5.8-3.7 7.7-4.4 15-6.7 21.9-6.7h2.3c.4 0 .8 0 1.2.1 1.4.1 2.7.4 3.9.8l.2.1c.1 0 .2.1.3.1l.3.1c.2.1.4.1.6.2 2.7 1 5.2 2.7 7.4 5 1.6 1.6 3.5 3.5 5.6 5.4.4.4.4 1 .1 1.4-.4.4-1 .4-1.4.1-2.1-1.9-4.1-3.8-5.7-5.5-2-2.1-4.2-3.6-6.7-4.6-.2-.1-.3-.1-.4-.1l-.2-.1c-.1 0-.2-.1-.4-.1l-.2-.1c-1.1-.4-2.3-.6-3.5-.7-.4 0-.7-.1-1.1-.1H115c-6.5 0-13.5 2.2-20.9 6.4-1.7 1-3.3 2-4.8 3 16.6 22.1 41.3 52.9 65.8 75.6l35-5.2c19.8-2.9 40.4.9 57.8 10.9l55.3 31.8c2.7 1.5 6.1 1.2 8.4-.8 2.9-2.5 3.4-6.8 1.2-9.9l-.1-.1-.5-.9-8.1-15.4c-10.6-17.1-26.9-30.5-48.3-39.8-7.1-3.1-14.3-5.8-21.1-8.4-9.9-3.8-26.2-7.6-42-11.3-9.6-2.2-18.7-4.3-26-6.4-.5-.1-.8-.7-.7-1.2.1-.5.7-.8 1.2-.7 7.2 2 16.3 4.1 25.9 6.3 15.9 3.7 32.3 7.5 42.3 11.3 6.7 2.5 14 5.3 21.1 8.4 21.8 9.4 38.4 23.1 49.2 40.6l8.6 16.3c2.8 3.9 2.1 9.4-1.6 12.5-1.5 1.8-3.7 2.6-5.9 2.6z" class="color0c60fe svgShape"></path><path fill="#ffffff" d="M104.4 245.7s-3.4 2.1-8.3 4.1c-2.5-1.8-4.6-4.3-5.7-7.3-1.4-3.7-1.4-7.9-1.6-11.9-.2-4-.7-8.2-2.9-11.5-1.6-2.4-3.8-4-6.3-5.4 2-1.9 3.6-3.1 3.9-3.3 7.8 11.2 16 27.3 18.2 31.6.4.8.8 1.5 1.3 2.1l1.4 1.6zM435.1 240.2c-10.6-6.2-25.4-5.3-41.6 4.1-32.2 18.6-58.3 63.8-58.2 100.8.1 18.4 6.6 31.4 17.1 37.5l-41.6-24.2c-10.5-6.1-17-19-17.1-37.5-.1-37.1 25.9-82.2 58.2-100.8 16.2-9.4 31-10.3 41.6-4.1l41.6 24.2z" class="colorffffff svgShape"></path><path fill="#9d0cfe" d="M352.3 383.6c-.2 0-.3 0-.5-.1l-41.6-24.2c-11.3-6.5-17.5-20.2-17.6-38.4-.1-37.3 26.2-82.9 58.7-101.7 16.1-9.3 31.2-10.7 42.6-4.1l41.6 24.1h.1c.5.3.6.9.4 1.4-.3.5-.9.6-1.4.4-10.8-6.2-25.2-4.8-40.5 4.1-31.9 18.5-57.8 63.3-57.7 100 .1 17.4 5.9 30.4 16.5 36.6.5.3.6.9.4 1.4-.3.3-.6.5-1 .5zM378.1 213c-7.9 0-16.6 2.7-25.7 7.9-31.9 18.4-57.8 63.3-57.7 99.9.1 17.5 5.9 30.5 16.6 36.6l32.3 18.8c-6-7.4-9.2-18.1-9.3-31.2-.1-37.3 26.2-82.9 58.7-101.7 11.6-6.7 22.7-9.3 32.3-7.7L393 216.9c-4.4-2.6-9.5-3.9-14.9-3.9z" class="color0c60fe svgShape"></path><path fill="#ffffff" d="M435.1 240.2c-10.2-6-24.4-5.3-40 3.2-.5.3-1.1.6-1.6.9-13.9 8-26.6 21-36.5 36-10.4 15.6-17.8 33.5-20.5 50.7-.8 4.8-1.2 9.6-1.2 14.2.1 18.4 6.6 31.4 17.1 37.5l-41.6-24.2c-10.5-6.1-17-19-17.1-37.5 0-4.6.4-9.3 1.1-14.1 2.7-17.2 10.2-35.1 20.5-50.7 10-15 22.7-28 36.6-36 .5-.3 1.1-.6 1.6-.9 15.6-8.5 29.7-9.2 40-3.2l41.6 24.1z" class="colorffffff svgShape"></path><path fill="#ffffff" d="M393.9 378.5c-32.3 18.6-58.5 3.7-58.6-33.4-.1-37.1 26-82.2 58.2-100.8s58.5-3.7 58.6 33.4" class="colorffffff svgShape"></path><path fill="#9d0cfe" d="M367.7 387.5c-5.7 0-11.1-1.3-15.7-4-11.3-6.5-17.6-20.2-17.7-38.4-.1-37.3 26.2-82.9 58.7-101.7 16-9.2 31.1-10.7 42.5-4.1 11.3 6.5 17.6 20.1 17.6 38.4 0 .6-.4 1-1 1s-1-.4-1-1c0-17.5-6-30.5-16.6-36.6-10.8-6.2-25.1-4.7-40.5 4.1-31.9 18.4-57.8 63.3-57.7 100 0 17.5 6 30.5 16.6 36.7 10.8 6.2 25.1 4.7 40.5-4.1.5-.3 1.1-.1 1.4.4.3.5.1 1.1-.4 1.4-9.4 5.2-18.5 7.9-26.7 7.9z" class="color0c60fe svgShape"></path><path fill="#ffffff" d="M442.7 319.9c-10.4 24.3-28.3 46.8-48.8 58.6-32.3 18.6-58.5 3.7-58.6-33.4-.1-37.1 26-82.2 58.2-100.8s58.5-3.7 58.6 33.4" class="colorffffff svgShape"></path><path fill="#ba53ff" d="M393.6 274.1c17.9-10.4 32.5-2 32.6 18.6.1 20.6-14.4 45.7-32.4 56.1-17.9 10.4-32.5 2-32.6-18.6 0-14.2 6.8-30.4 16.9-42.6 4.6-5.6 9.9-10.3 15.5-13.5z" class="colorf0f0f0 svgShape"></path><path d="M379.2 354.1c-3.3 0-6.3-.8-9-2.3-6.4-3.7-10-11.4-10-21.7 0-13.9 6.5-30.5 17.1-43.2 4.8-5.8 10.2-10.5 15.7-13.7 9-5.2 17.6-6 24.1-2.3 6.4 3.7 10 11.4 10 21.7.1 20.9-14.7 46.4-32.9 56.9-5.2 3.1-10.3 4.6-15 4.6zm14.9-79.2c-5.3 3.1-10.6 7.6-15.2 13.2-10.3 12.4-16.7 28.5-16.7 42 0 9.6 3.2 16.7 9 20 5.8 3.4 13.7 2.5 22-2.3 17.6-10.2 31.9-34.9 31.9-55.2 0-9.6-3.2-16.7-9-20-5.8-3.3-13.6-2.5-22 2.3z" fill="#000000" class="color000000 svgShape"></path><path fill="#ffffff" d="M71.9 222.5c2.5-3.6 5.5-6.7 7.8-8.8 2-1.9 3.6-3.1 3.9-3.3 7.8 11.2 16 27.3 18.2 31.6.4.8.8 1.5 1.3 2.1l1.3 1.6s-3.4 2.1-8.3 4.1c-8.5 3.4-21.3 6.1-27.3-4.7M132.4 268c-.9 3.9-4.7 7.8-9.3 10.6-3.3 2-7 3.5-10.1 3.8-7.4.9-18-7.5-19.6-17.6-.8-5 2.2-9.2 5.5-12.2 3.4-3.2 7-5 7-5 19.9-7.8 28 13.6 26.5 20.4zm14.2 38.7c-.6.4-1.2.8-1.7 1.2-16.5 10.1-24.7-5.9-24.7-5.9s-7.5-11.4.2-19.3c0-.1 0-.1.1-.1.4-.4.7-.7 1.2-1.1 9.6-8 19.9-9.4 26-3.4 0 0 16.7 16.2-1.1 28.6zm22.3 22.6c-1.4.8-2.8 1.5-3.9 1.9-4.7 1.6-15 2.1-19.3-8.5-2.8-7 .1-12.1 2.4-14.7 1.2-1.4 2.2-2.1 2.2-2.1s4.2-3.5 11.5-4.6c7.3-1.1 13.6 7.9 15.3 15.3 1.4 5.4-3.7 10.1-8.2 12.7z" class="colorffffff svgShape"></path><path fill="#9d0cfe" d="M18.7 89.4c.1.1.3.1.4.1.4 0 .7-.2.9-.6 10-20.4 27.4-37.8 41.5-41.4 5.3-1.4 9.9-.7 13.7 2 .2.1 2.8 2 6.7 4.9.4.3 1.1.2 1.4-.2s.2-1.1-.2-1.4c-3.9-2.8-6.6-4.8-6.7-4.9-4.3-3-9.4-3.8-15.3-2.3C46.4 49.3 28.4 67.2 18.3 88c-.3.5-.1 1.1.4 1.4zm416.9 149.9-.1-.1-41.6-24.1c-11-6.4-25.5-5.2-40.9 3.2l-1.6.9c-.2.1-.3.2-.5.3l-35.2-30.1s-.5-.4-1.3-1c.4 1 .7 2.1.8 3.2l33.9 29c-12.7 7.9-24.6 19.9-34.6 34.9-12.5 18.9-21.8 42.8-21.8 65.4 0 1.7.1 3.3.2 4.9-35.9-23.3-50.1-70-50.7-72.3-.2-1.4-2.1-16.4-13-34.7-11.4-19.1-44.1-21.1-45.5-21.2-.3 0-.5.1-.7.3-8.5 7.8-26.7 15.1-41.4 13.3-6.8-.8-11.8-3.5-14.8-8-1.8-2.7-2.8-5.2-3.1-7.5-1.2-8.9 8.5-14.7 17.9-20.3 1.3-.8 2.5-1.5 3.8-2.3 7-4.3 11.9-8.8 15-12-.8.2-1.7.3-2.7.3h-.4c-3 2.9-7.3 6.5-13 10-1.2.8-2.5 1.5-3.7 2.2-9.9 5.9-20.2 12-18.9 22.2.4 2.7 1.5 5.4 3.4 8.3 3.2 4.9 8.8 8 16.2 8.9 15.1 1.9 33.7-5.5 42.6-13.5 3.8.3 33.3 3.2 43.5 20.2 11 18.4 12.7 33.8 12.7 34v.2c.1.5 14.7 50.4 52.9 74.3.2 1.4.4 2.8.6 4.1-.9 2.3-2.6 4.2-4.9 5.5-3.1 1.7-8.2 3.6-14.7 2.7-1.1-.2-2.2-.2-3.3-.1-2.4-1.2-21.1-11.5-36.5-40-.3-.5-.9-.7-1.4-.4s-.7.9-.4 1.4c13.6 25.2 29.5 36.2 35.4 39.7-.6.2-1.2.5-1.7.8-4.1 2.2-11.2 4.3-21.8 1.7-1.1-.3-2.2-.4-3.2-.4-2.4-1.5-22.5-14.4-24.8-32.1-.1-.5-.6-.9-1.1-.9-.5.1-.9.6-.9 1.1 2.2 16.2 17.8 28.2 23.7 32.2-2.4.6-12.2 4.9-23.9 1.2-.8-.3-1.6-.4-2.4-.5-2.2-2.2-20.6-21.1-19.6-32.9 0-.5-.4-1-.9-1.1-.5-.1-1 .4-1.1.9-1 11.3 13.6 27.7 18.7 33-.8.1-1.6.2-2.3.4-16.4 4.6-34.2-16.4-34.3-16.5 3.2-2.4 7.2-6.7 5.9-12.1-1.7-7.2-8.1-17.3-16.4-16-4.3.7-7.5 2.1-9.5 3.2l-.1-.2c2.2-2.7 3.5-5.6 3.7-8.7.7-9.1-7-16.7-7.4-17-4.7-4.6-11.5-5.2-18.8-2.1l-.3-.4c2.2-2.2 3.6-4.6 4.1-6.8.9-4.3-1.6-13.7-8-19.1-3.7-3.1-9.9-6.1-19.2-2.7-.1-.1-2.3-2.9-2.3-2.8-1.9-2.4-20.1-40.5-30.2-45-1-.4-2-.9-3.2-1.3-8.6-3.4-10.7-2.9-13.6-5.4-6.6-5.7-10.2-15.2-10.2-27.5 0-7.9 1.4-16.2 4.2-25 6.8-21.2 21.1-41.6 37.4-53.2 1.7-1.3 3.6-2.5 5.6-3.6 7.4-4.2 14.4-6.4 20.9-6.4 6.2.2 10.4 1.3 14.7 5.8 1.6 1.7 3.6 3.6 5.7 5.5.4.4 1 .3 1.4-.1.4-.4.3-1-.1-1.4-2.1-1.9-4-3.7-5.6-5.4-4.5-4.8-9.6-6.4-16.2-6.4-.8 0-1.6 0-2.3.1l-11.6-8.4c-.4-.3-1.1-.2-1.4.2-.3.4-.2 1.1.2 1.4l9.9 7.1c-5.3.9-10.9 2.9-16.6 6.2-2 1.2-4 2.4-5.8 3.7-16.5 12.1-31.1 32.9-38 54.5-2.8 8.8-4.3 17.3-4.3 25.3l-26.5-34.4c-4.7-5.3-6.2-13.3-4.4-23.1.1-.5-.3-1.1-.8-1.2-.5-.1-1.1.3-1.2.8-2 10.4-.3 19 4.8 24.7l28.1 36.5c.6 11.5 4.3 20.4 10.8 26 3.3 2.8 5.4 2.3 14.2 5.7 1.1.4 2.1.8 3.1 1.3 2.4 1.1 5.7 4.7 9.3 9.9-3.8 3-8.1 7.4-11.2 11.8-.3.5-.2 1.1.2 1.4.5.3 1.1.2 1.4-.2 2.9-4.2 7.1-8.4 10.7-11.3 9.8 14.3 17.1 30.3 19 32.9.1.1.5.6.5.7-1.3.8-3.9 2.1-7.1 3.4-8.8 3.5-20.5 5.6-26.1-4.2-.3-.5-.9-.6-1.4-.4-.5.3-.7.9-.4 1.4 3 5.4 8.1 8.1 14.8 8.1 4 0 8.7-1 13.8-3 3.6-1.4 6.4-2.9 7.6-3.7l.2.2c-1.4.8-3.8 2.4-6.2 4.6-4.5 4.1-6.5 8.7-5.8 13.1 1.6 10.3 11.9 18.5 19.6 18.5.4 0 .8 0 1.2-.1 2.4-.3 5.1-1.1 7.7-2.4-.4.3-.7.6-1 .9 0 0-.1 0-.1.1-7.9 8.2-.9 19.6-.4 20.5.3.7 3.9 7.2 11 9.2 1.3.4 2.7.6 4.1.6 4.5 0 8.8-1.9 12.4-4.5-2.2 2.8-4.9 8.1-2.1 15.2 3.1 7.8 9.4 10 14.7 10 2.2 0 4.3-.4 5.8-.9 1.7-.6 3.8-1.7 5.3-2.7.1.1 18.7 22.2 36.5 17.2 5.5-1.5 7.3 1.8 16.9 1.8 5.2 0 9.9-1.1 13.3-2.3 2.1-.8 4.3-1 6.6-.4 11.2 2.7 18.8.4 23.2-1.9 2-1.1 4.3-1.5 6.7-1.2 7 1 12.5-1 15.9-2.9 1.9-1 3.4-2.4 4.5-4.1 2.5 10.9 8 19.1 15.9 23.7.1.1 41.6 24.2 41.7 24.3 4.7 2.7 10 4 15.7 4 8.2 0 17.3-2.7 26.7-8.2 20-11.5 38.4-33.6 49.2-59.1.2-.5 0-1.1-.5-1.3-.5-.2-1.1 0-1.3.5-10.7 25.1-28.8 46.8-48.4 58.2-32 18.5-57 3.3-57.1-32.6-.1-31.3 19.3-70.7 47.4-92.9 14.4-11.3 34.9-20.4 50.8-11.2 10.7 6.1 16.6 19.2 16.6 36.6 0 .6.4 1 1 1s1-.5 1-1c.4-18.1-5.9-31.7-17.1-38.3zm-322.7 42.1c-6.8.8-17-7.2-18.5-16.8-.8-4.7 2.4-8.8 5.2-11.3 3-2.8 6.3-4.6 6.7-4.8 6.9-2.7 13-1.9 17.8 2.2 5.7 4.9 8.2 13.4 7.3 17.2-.7 3.3-4 7-8.8 9.9-3.2 1.9-6.7 3.2-9.7 3.6zm31.5 25.6c-4.2 2.5-8.7 4.1-13.5 2.8-6.4-1.8-9.8-8.2-9.8-8.3 0 0 0-.1-.1-.1-.3-.4-6.9-10.8.1-18.1.2-.2.7-.7 1.1-1 9.3-7.7 19-9.1 24.7-3.4.1.1 7.4 7.3 6.8 15.4-.4 5.6-4.5 9.8-9.3 12.7zm24 21.4c-1.3.8-2.7 1.4-3.8 1.8-4.5 1.5-14.1 1.8-18-8-2.5-6.3-.1-10.9 2.3-13.7 1.1-1.3 2-1.9 2.1-2 0 0 4.1-3.3 11-4.4.4-.1.7-.1 1.1-.1 6.3 0 11.6 8.2 13.1 14.6 1.4 6-5.6 10.5-7.8 11.8zm240.4-91.7h-.1c-9.5 2.5-18.7 7.9-26.4 14-26.6 21-48 60.4-48 94.4 0 6.8.9 13 2.6 18.4 1.4 4.6 3.6 9 6.6 12.7l-32.3-18.8c-10.6-6.1-16.5-19.1-16.6-36.6 0-22.3 9.3-45.8 21.5-64.3 10.4-15.7 22.9-28 36.2-35.7 1.3-.5 22.8-14.4 40.6-4.1l32.4 18.8c-5.4-.7-11.2-.2-16.5 1.2z" class="color0c60fe svgShape"></path><path fill="#ffffff" d="M312.3 198.7c-2.7 2.3-6.5 2.7-9.6.9l-22-12.7-33.3-19.2a88.88 88.88 0 0 0-57.1-10.8l-18.9 2.8c-1.9-1.7-3.8-3.3-5.8-4.9-7.5-6.2-16.1-13.8-15.3-23.9.7-8.1 8-14.3 15.5-16 7.6-1.7 15.4 0 22.9 1.7 14.2 3.3 27.3 6.9 41.8 6 1.5-.1 3.1-.2 4.6-.2 6.9 2.6 14 5.3 21.1 8.4 20 8.6 37.3 21.7 48.8 40.2l8.1 15.4.2.4.3.6c2.6 3.6 2 8.5-1.3 11.3z" class="colorffffff svgShape"></path><path d="M306.8 201.7c-1.6 0-3.2-.4-4.7-1.2l-55.3-31.8c-17-9.8-37.1-13.6-56.5-10.7l-18.9 2.8c-.3 0-.6 0-.8-.2-2-1.7-3.9-3.4-5.8-4.9-8.4-6.9-16.5-14.6-15.6-24.7.8-8.8 8.8-15.2 16.3-16.9 7.9-1.8 16.1.1 23.3 1.7 1.7.4 3.4.8 5 1.2 12.3 2.9 23.9 5.6 36.5 4.8 1.5-.1 3-.2 4.7-.2.1 0 .2 0 .4.1 6.8 2.5 14 5.3 21.1 8.4 21.8 9.4 38.4 23.1 49.2 40.6l8.6 16.3c2.8 3.9 2.1 9.4-1.6 12.5-1.5 1.4-3.7 2.2-5.9 2.2zM203.2 155c15.6 0 31.1 4.1 44.7 11.9l55.3 31.8c2.7 1.5 6.1 1.2 8.4-.8 2.9-2.5 3.4-6.8 1.2-9.9l-.1-.1-.5-1-8.1-15.4c-10.6-17.1-26.9-30.5-48.3-39.8-7-3-14.2-5.8-20.9-8.3-1.5 0-3 .1-4.4.2-13 .8-24.7-2-37.1-4.9-1.7-.4-3.3-.8-5-1.2-7-1.6-15-3.4-22.4-1.7-6.8 1.5-14.1 7.2-14.8 15.1-.8 9.2 6.9 16.4 14.9 23 1.7 1.4 3.6 3 5.5 4.6l18.5-2.7c4.3-.5 8.7-.8 13.1-.8z" fill="#000000" class="color000000 svgShape"></path><path fill="#ffffff" d="m336.4 357.5-26.8-15.6" class="colorffffff svgShape"></path><path d="M336.4 358.5c-.2 0-.3 0-.5-.1l-26.8-15.6c-.5-.3-.6-.9-.4-1.4.3-.5.9-.6 1.4-.4l26.8 15.6c.5.3.6.9.4 1.4-.2.3-.6.5-.9.5z" fill="#000000" class="color000000 svgShape"></path><path fill="#ffffff" d="M399.4 241.2 357.8 217" class="colorffffff svgShape"></path><path d="M399.4 242.2c-.2 0-.3 0-.5-.1l-41.6-24.2c-.5-.3-.6-.9-.4-1.4.3-.5.9-.6 1.4-.4l41.6 24.2c.5.3.6.9.4 1.4-.2.3-.5.5-.9.5z" fill="#000000" class="color000000 svgShape"></path><path fill="#ffffff" d="m345.3 235.3-8-4.7" class="colorffffff svgShape"></path><path d="M345.3 236.3c-.2 0-.3 0-.5-.1l-8-4.7c-.5-.3-.6-.9-.4-1.4.3-.5.9-.6 1.4-.4l8 4.7c.5.3.6.9.4 1.4-.2.3-.5.5-.9.5z" fill="#000000" class="color000000 svgShape"></path><path fill="#ffffff" d="M378.9 254.8 356.8 242" class="colorffffff svgShape"></path><path d="M378.9 255.8c-.2 0-.3 0-.5-.1l-22.1-12.8c-.5-.3-.6-.9-.4-1.4.3-.5.9-.6 1.4-.4l22.1 12.8c.5.3.6.9.4 1.4-.2.3-.5.5-.9.5z" fill="#000000" class="color000000 svgShape"></path><path fill="#ffffff" d="m321.8 247.1 41.6 24.2" class="colorffffff svgShape"></path><path d="M363.4 272.3c-.2 0-.4 0-.5-.1L321.3 248c-.5-.3-.6-.9-.4-1.4.3-.5.9-.6 1.4-.4l41.6 24.1c.3.2.5.5.5.9 0 .6-.4 1.1-1 1.1z" fill="#000000" class="color000000 svgShape"></path><path fill="#ffffff" d="m351.2 289.7-41.6-24.2" class="colorffffff svgShape"></path><path d="M351.2 290.7c-.2 0-.3 0-.5-.1l-41.6-24.2c-.5-.3-.6-.9-.4-1.4.3-.5.9-.6 1.4-.4l41.6 24.2c.5.3.6.9.4 1.4-.2.3-.6.5-.9.5z" fill="#000000" class="color000000 svgShape"></path><path fill="#ffffff" d="m328.2 301.8-27.9-16.2" class="colorffffff svgShape"></path><path d="M328.2 302.8c-.2 0-.3 0-.5-.1l-27.8-16.2c-.5-.3-.6-.9-.4-1.4.3-.5.9-.6 1.4-.4l27.8 16.2c.5.3.6.9.4 1.4-.2.3-.6.5-.9.5z" fill="#000000" class="color000000 svgShape"></path><path fill="#ffffff" d="m336.3 332-41.7-24.2" class="colorffffff svgShape"></path><path d="M336.3 333c-.2 0-.3 0-.5-.1l-41.6-24.2c-.5-.3-.6-.9-.4-1.4.3-.5.9-.6 1.4-.4l41.6 24.2c.5.3.6.9.4 1.4-.2.3-.6.5-.9.5z" fill="#000000" class="color000000 svgShape"></path></svg>