<svg xmlns="http://www.w3.org/2000/svg" viewBox="0 0 24 24" id="Security"><path fill="none" stroke="#ffffff" stroke-linecap="round" stroke-linejoin="round" d="M12 23.5c7.4-3.8 8.5-6.3 8.5-14v-6L12 .5l-8.5 3v6c0 7.7 1.1 10.3 8.5 14z" class="colorStroke303c42 svgStroke"></path><path fill="none" stroke="#ffffff" stroke-linecap="round" stroke-linejoin="round" d="M9 9.5v-1c0-1.7 1.3-3 3-3s3 1.3 3 3v1m-6.5 0h7c.3 0 .5.2.5.5v5c0 .3-.2.5-.5.5h-7c-.3 0-.5-.2-.5-.5v-5c0-.3.2-.5.5-.5z" class="colorStroke303c42 svgStroke"></path><circle cx="12" cy="12" r=".5" fill="none" stroke="#ffffff" stroke-linecap="round" stroke-linejoin="round" class="colorStroke303c42 svgStroke"></circle><path fill="none" stroke="#ffffff" stroke-linecap="round" stroke-linejoin="round" d="M12 12.5v1" class="colorStroke303c42 svgStroke"></path></svg>