<svg xmlns="http://www.w3.org/2000/svg" width="196.088" height="293.898" viewBox="0 0 196.088 293.898">
  <g id="website-coding" transform="translate(-41.034 -4.027)">
    <path id="Path_93" data-name="Path 93" d="M71.8,176.434v0Z" transform="translate(-17.002 -40.056)" fill="#fff"/>
    <path id="Path_94" data-name="Path 94" d="M53.75,224.824,53.6,173l13.764,7.973.451,151.334c0,3.385,1.2,5.792,3.159,6.92L57.21,331.254c-1.956-1.128-3.159-3.535-3.159-6.92l-.226-75.141" transform="translate(-12.491 -42.113)" fill="#f0f0f0"/>
    <path id="Path_96" data-name="Path 96" d="M67.365,146.474,53.6,138.426,235.4,33.5l13.764,7.973Z" transform="translate(-12.491 -7.539)" fill="#fff"/>
    <path id="Path_97" data-name="Path 97" d="M71.8,134.81l.075,14.216L253.672,44.1l.451,151.334c0,6.92-4.814,15.194-10.831,18.729L83.158,306.6c-5.942,3.46-10.831.677-10.906-6.168Z" transform="translate(-17.002 -10.166)" fill="#fff"/>
    <path id="Path_98" data-name="Path 98" d="M242.766,16.41c6.017-3.46,10.831-.677,10.906,6.168l.075,14.216L71.875,141.87,71.8,127.654c0-6.92,4.814-15.269,10.831-18.729L242.766,16.41Z" transform="translate(-17.002 -2.934)" fill="#fff"/>
    <path id="Path_99" data-name="Path 99" d="M200.773,19.5,224.466,5.814c3.009-1.73,5.716-1.88,7.747-.752l13.764,7.973c-1.956-1.128-4.739-.978-7.747.752L78.1,106.3c-5.942,3.46-10.831,11.809-10.831,18.729l.075,11.734v2.557L53.575,131.2,53.5,116.983c0-6.92,4.814-15.269,10.831-18.654l120.8-69.8" transform="translate(-12.466 -0.312)" fill="#f0f0f0"/>
    <path id="Path_100" data-name="Path 100" d="M53.575,158.689H53.5V144.474ZM88.25,137.328c2.633-1.5,4.739-.226,4.739,2.783a10.313,10.313,0,0,1-4.739,8.2c-2.633,1.5-4.814.376-4.889-2.708a10.932,10.932,0,0,1,4.889-8.274Zm18.578-10.756c2.633-1.5,4.739-.226,4.739,2.783a10.313,10.313,0,0,1-4.739,8.2c-2.633,1.5-4.814.376-4.814-2.708a10.674,10.674,0,0,1,4.814-8.274Zm18.5-10.681c2.633-1.5,4.739-.226,4.739,2.783a10.313,10.313,0,0,1-4.739,8.2c-2.633,1.5-4.814.376-4.814-2.708a10.642,10.642,0,0,1,4.814-8.274Zm.075,162.767L84.263,302.352" transform="translate(-12.466 -27.802)" fill="#fff"/>
    <path id="Path_101" data-name="Path 101" d="M94.142,356.662a.9.9,0,0,1-.677-.376.761.761,0,0,1,.3-1.053l41.068-23.768a.774.774,0,1,1,.752,1.354L94.518,356.587A.564.564,0,0,1,94.142,356.662Z" transform="translate(-22.345 -81.361)"/>
    <path id="Path_102" data-name="Path 102" d="M262.305,250.2,173.4,301.5" transform="translate(-42.183 -61.246)" fill="#fff"/>
    <path id="Path_103" data-name="Path 103" d="M173.142,301.991a.9.9,0,0,1-.677-.376.761.761,0,0,1,.3-1.053l88.905-51.3a.774.774,0,0,1,.752,1.354l-88.905,51.3A.564.564,0,0,1,173.142,301.991Z" transform="translate(-41.925 -60.988)"/>
    <path id="Path_104" data-name="Path 104" d="M242.726,226.2,94.4,311.8" transform="translate(-22.603 -55.298)" fill="#fff"/>
    <path id="Path_105" data-name="Path 105" d="M150.253,278.192a24.336,24.336,0,0,0,3.911-.527L94.518,312.115a.678.678,0,0,1-.376.075.9.9,0,0,1-.677-.376.761.761,0,0,1,.3-1.053Zm92.591-51.673-60.1,34.675c1.354-1.279,2.633-2.633,3.911-3.986l55.509-32.042a.761.761,0,0,1,1.053.3A1.105,1.105,0,0,1,242.844,226.519Z" transform="translate(-22.345 -55.015)"/>
    <path id="Path_106" data-name="Path 106" d="M220.387,219.2,94.4,291.934" transform="translate(-22.603 -53.563)" fill="#fff"/>
    <path id="Path_107" data-name="Path 107" d="M131.374,269.361c.376.376.677.752,1.053,1.128L94.518,292.377a.678.678,0,0,1-.376.075.9.9,0,0,1-.677-.376.761.761,0,0,1,.3-1.053l37.608-21.662ZM220.5,219.644l-16.171,9.327c.376-.752.752-1.58,1.053-2.332l14.291-8.274a.761.761,0,0,1,1.053.3.732.732,0,0,1-.226.978Z" transform="translate(-22.345 -53.33)"/>
    <path id="Path_108" data-name="Path 108" d="M288.353,202.1l-9.853,5.641" transform="translate(-68.231 -49.325)" fill="#fff"/>
    <path id="Path_109" data-name="Path 109" d="M278.242,208.235a.9.9,0,0,1-.677-.376.761.761,0,0,1,.3-1.053l9.853-5.641a.774.774,0,0,1,.752,1.354l-9.853,5.641A.818.818,0,0,1,278.242,208.235Z" transform="translate(-67.973 -49.067)"/>
    <path id="Path_110" data-name="Path 110" d="M242.726,178,94.4,263.6" transform="translate(-22.603 -43.352)" fill="#fff"/>
    <path id="Path_111" data-name="Path 111" d="M124.529,244.91c.15.527.226,1.053.376,1.5L94.518,263.939a.678.678,0,0,1-.376.075.9.9,0,0,1-.677-.376.761.761,0,0,1,.3-1.053Zm118.315-66.491-31.064,17.9c.15-.677.226-1.279.376-1.956l29.936-17.3a.761.761,0,0,1,1.053.3.93.93,0,0,1-.3,1.053Z" transform="translate(-22.345 -43.094)"/>
    <path id="Path_112" data-name="Path 112" d="M242.726,153.9,94.4,239.5" transform="translate(-22.603 -37.379)" fill="#fff"/>
    <path id="Path_113" data-name="Path 113" d="M93.777,238.636l30.086-17.375a14.651,14.651,0,0,0-.15,1.88L94.529,239.99a.678.678,0,0,1-.376.075.9.9,0,0,1-.677-.376.809.809,0,0,1,.3-1.053Zm149.078-84.317-29.936,17.3c-.075-.527-.15-1.128-.226-1.655l29.409-17a.761.761,0,0,1,1.053.3.93.93,0,0,1-.3,1.053Z" transform="translate(-22.356 -37.121)"/>
    <path id="Path_114" data-name="Path 114" d="M242.726,129.8,94.4,215.471" transform="translate(-22.603 -31.406)" fill="#fff"/>
    <path id="Path_115" data-name="Path 115" d="M93.767,214.536l35.351-20.459c-.3.752-.527,1.429-.827,2.181L94.444,215.815a.678.678,0,0,1-.376.075.7.7,0,0,1-.3-1.354Zm149.078-84.317-34.675,20.007c-.3-.451-.526-.827-.827-1.279l34.75-20.083a.761.761,0,0,1,1.053.3.833.833,0,0,1-.3,1.053Z" transform="translate(-22.347 -31.148)"/>
    <path id="Path_116" data-name="Path 116" d="M242.726,105.8,94.4,191.4" transform="translate(-22.603 -25.458)" fill="#fff"/>
    <path id="Path_117" data-name="Path 117" d="M93.777,190.461,143.946,161.5c-.752.978-1.5,1.956-2.181,3.009l-47.236,27.3a.678.678,0,0,1-.376.075.9.9,0,0,1-.677-.376.833.833,0,0,1,.3-1.053Zm149.078-84.317-48.213,27.83a11.252,11.252,0,0,0-2.181-.451l49.718-28.657a.761.761,0,0,1,1.053.3A.979.979,0,0,1,242.855,106.144Z" transform="translate(-22.356 -25.2)"/>
    <path id="Path_118" data-name="Path 118" d="M121.026,175.1,94.4,190.444" transform="translate(-22.603 -42.633)" fill="#fff"/>
    <path id="Path_119" data-name="Path 119" d="M94.142,190.938a.9.9,0,0,1-.677-.376.761.761,0,0,1,.3-1.053l26.626-15.344a.774.774,0,0,1,.752,1.354L94.518,190.863A.564.564,0,0,1,94.142,190.938Z" transform="translate(-22.345 -42.375)"/>
    <path id="Path_120" data-name="Path 120" d="M257.547,81.7,154.2,141.346" transform="translate(-37.424 -19.485)" fill="#fff"/>
    <path id="Path_121" data-name="Path 121" d="M153.942,141.84a.9.9,0,0,1-.677-.376.761.761,0,0,1,.3-1.053L256.912,80.765a.774.774,0,0,1,.752,1.354L154.318,141.765a.818.818,0,0,1-.376.075Z" transform="translate(-37.166 -19.227)"/>
    <path id="Path_122" data-name="Path 122" d="M178.078,148.771c24.746-14.291,44.829-2.858,44.979,25.573.075,28.507-19.932,63.031-44.678,77.322s-44.9,2.858-44.979-25.573,19.932-63.031,44.678-77.322Z" transform="translate(-32.269 -34.582)" fill="#fff"/>
    <path id="Path_126" data-name="Path 126" d="M213.623,167.308c-.075-28.958-20.76-40.842-46.107-26.175-24.9,14.366-45.13,49.342-45.054,78,.075,29.033,20.76,40.917,46.107,26.25,24.9-14.441,45.13-49.417,45.054-78.074Zm-45.806,76.72c-24.295,13.99-43.776,2.933-43.851-24.972-.075-28.131,19.782-62.5,44.3-76.645,24.069-13.915,43.7-3.084,43.851,24.9C212.194,195.439,192.337,229.887,167.817,244.028Z" transform="translate(-22.083 -27.545)" fill="#9d0cfe"/>
    <path id="Path_127" data-name="Path 127" d="M171.877,227.234l-14.065.9,13.614-14.818a4.941,4.941,0,0,0,.827-1.2,4.667,4.667,0,0,0,.376-1.354c0-.376-.075-.827-.451-.978a.564.564,0,0,0-.376-.075,1,1,0,0,0-.6.226,5.269,5.269,0,0,0-.752.6L155.1,227.309a6.736,6.736,0,0,0-1.128,1.73,5.133,5.133,0,0,0-.376,1.73v.376a1.533,1.533,0,0,0,.3,1.128,1.2,1.2,0,0,0,.9.3L170,231.6h.075l.15-.075h.15a1.913,1.913,0,0,0,.527-.15,3.071,3.071,0,0,0,1.2-1.354,2.927,2.927,0,0,0,.527-1.73,1.516,1.516,0,0,0-.226-.827.683.683,0,0,0-.527-.226Zm40.692-32.343a.951.951,0,0,0-.827-.3h-.15l-15.419.978a1.2,1.2,0,0,0-.6.226,3.71,3.71,0,0,0-1.279,1.354,2.927,2.927,0,0,0-.527,1.73,1.516,1.516,0,0,0,.226.827c.075.075.15.15.527.15h.15l13.915-.978-13.689,14.968a5.19,5.19,0,0,0-.827,1.279,3.052,3.052,0,0,0-.376,1.279c0,.451.15.827.376.9h.15a.564.564,0,0,0,.376.075,1,1,0,0,0,.6-.226,3.047,3.047,0,0,0,.752-.6l15.344-16.773a10.384,10.384,0,0,0,1.2-1.73,4.232,4.232,0,0,0,.376-1.73v-.376A1.727,1.727,0,0,0,212.569,194.891Zm-23.016-5.416c-.075-.075-.15-.075-.3-.075a1.961,1.961,0,0,0-.827.226,4.292,4.292,0,0,0-1.053.978,3.717,3.717,0,0,0-.6,1.354l-10.154,40.391a3.309,3.309,0,0,0-.15.752c0,.752.3.9.3.9h.15a.452.452,0,0,0,.3.075,1.213,1.213,0,0,0,.677-.226,3.5,3.5,0,0,0,1.053-1.053,3.886,3.886,0,0,0,.6-1.429L189.7,191.055a6.7,6.7,0,0,0,.15-.827.72.72,0,0,0-.3-.752Z" transform="translate(-37.275 -46.177)" fill="#9d0cfe"/>
  </g>
</svg>
