<svg xmlns="http://www.w3.org/2000/svg" xmlns:xlink="http://www.w3.org/1999/xlink" width="36" height="36" viewBox="0 0 36 36">
  <defs>
    <linearGradient id="linear-gradient" x1="0.907" y1="1.512" x2="0.355" y2="-3.91" gradientUnits="objectBoundingBox">
      <stop offset="0" stop-color="#fff"/>
      <stop offset="1" stop-color="#fff"/>
    </linearGradient>
    <clipPath id="clip-Custom_Size_1">
      <rect width="36" height="36"/>
    </clipPath>
  </defs>
  <g id="Custom_Size_1" data-name="Custom Size – 1" clip-path="url(#clip-Custom_Size_1)">
    <g id="Group_1" data-name="Group 1" transform="translate(0.597 4.346)">
      <path id="Path_1" data-name="Path 1" d="M5.641,234.433a1.14,1.14,0,0,1,.806-.333H34.254a.569.569,0,0,1,.4.972l-5.493,5.493a1.14,1.14,0,0,1-.806.333H.551a.569.569,0,0,1-.4-.972Z" transform="translate(0 -213.591)" fill="url(#linear-gradient)"/>
      <path id="Path_2" data-name="Path 2" d="M5.641.333A1.171,1.171,0,0,1,6.447,0H34.254a.569.569,0,0,1,.4.972L29.164,6.466a1.14,1.14,0,0,1-.806.333H.551a.569.569,0,0,1-.4-.972Z" transform="translate(0)" fill="url(#linear-gradient)"/>
      <path id="Path_3" data-name="Path 3" d="M29.164,116.633a1.14,1.14,0,0,0-.806-.333H.551a.569.569,0,0,0-.4.972l5.493,5.493a1.14,1.14,0,0,0,.806.333H34.254a.569.569,0,0,0,.4-.972Z" transform="translate(0 -106.111)" fill="url(#linear-gradient)"/>
    </g>
  </g>
</svg>
