<svg xmlns="http://www.w3.org/2000/svg" width="513.588" height="509.145" viewBox="0 0 513.588 509.145">
  <g id="world-hologram_1_" data-name="world-hologram (1)" transform="translate(-3.212 -5.43)">
    <path id="Path_1" data-name="Path 1" d="M512.8,360l-125-72.2v1.7L512,361.2c2.1,1.2,3.2,2.7,3.2,4.3s-1.1,3.1-3.1,4.3L269,511.2c-4.5,2.6-11.9,2.6-16.4,0L8,369.9c-4.3-2.5-4.3-6.2-.1-8.6L126,292.6a12.5,12.5,0,0,1,.3-1.9L7.1,360c-5.2,3-5.2,8.1.1,11.2L251.9,512.4c5,2.9,12.8,2.9,17.9,0L512.9,371.1c2.5-1.5,3.9-3.5,3.9-5.6s-1.4-4.1-4-5.5Z" fill="#ba53ff"/>
    <path id="Path_2" data-name="Path 2" d="M289.6,500.8a.6.6,0,0,1-.4-.1l-15.3-8.8a.738.738,0,0,1,.7-1.3l15.3,8.8a.714.714,0,0,1,.3,1A.622.622,0,0,1,289.6,500.8Zm204-118.6a.6.6,0,0,1-.4-.1l-8.3-4.8a.738.738,0,1,1,.7-1.3l8.3,4.8a.714.714,0,0,1,.3,1A.548.548,0,0,1,493.6,382.2ZM229.4,499.3a.548.548,0,0,1-.6-.4.693.693,0,0,1,.3-1l15.3-8.8a.738.738,0,1,1,.7,1.3l-15.3,8.8C229.7,499.2,229.6,499.3,229.4,499.3Zm-40.8-23.8a.548.548,0,0,1-.6-.4.693.693,0,0,1,.3-1l6.8-3.9a.738.738,0,1,1,.7,1.3l-6.8,3.9A.6.6,0,0,1,188.6,475.5Zm-40.8-23.7a.548.548,0,0,1-.6-.4.693.693,0,0,1,.3-1l5.9-3.5a.738.738,0,1,1,.7,1.3l-5.9,3.5A.6.6,0,0,1,147.8,451.8ZM107,428.1a.548.548,0,0,1-.6-.4.693.693,0,0,1,.3-1l8.3-4.8a.738.738,0,1,1,.7,1.3l-8.3,4.8A.6.6,0,0,1,107,428.1ZM66.2,404.4a.755.755,0,0,1-.7-.4.693.693,0,0,1,.3-1l12.8-7.3a.738.738,0,1,1,.7,1.3l-12.8,7.3A.367.367,0,0,1,66.2,404.4ZM25.4,380.7a.548.548,0,0,1-.6-.4.693.693,0,0,1,.3-1l8.3-4.8a.738.738,0,1,1,.7,1.3l-8.3,4.8c-.2,0-.3.1-.4.1Z" fill="#ba53ff"/>
    <path id="Path_3" data-name="Path 3" d="M402.9,301.7c51.6,29.8,51.8,78.1.6,107.8-51.2,29.8-134.6,29.8-186.2,0s-51.9-78.1-.6-107.8C267.9,271.9,351.3,271.9,402.9,301.7Z" fill="#ba53ff" opacity="0.43"/>
    <path id="Path_4" data-name="Path 4" d="M313.1,398.9,115.5,283.4m251,145.3-14.9-8.2M184.4,407.7,396.3,284.5M149,428.3l13.7-8" fill="#fff"/>
    <path id="Path_5" data-name="Path 5" d="M313.1,419.3c-48.7,13.3-108.7,8.2-149.1-15.1-26-15-38.9-34.7-38.9-54.3l.2-50.3c-.1,19.6,12.9,39.3,38.9,54.3,51.6,29.8,134.9,29.8,186.2,0,25.5-14.8,38.2-34.2,38.3-53.5l-.2,50.3c-.1,19.4-12.8,38.7-38.3,53.5-12.8,6.8-25.2,12.3-37.1,15.1Z" fill="#ba53ff"/>
    <path id="Path_6" data-name="Path 6" d="M349.8,246.1c51.6,29.8,51.8,78.1.6,107.8-51.2,29.8-134.6,29.8-186.2,0s-51.9-78.1-.6-107.8c51.2-29.8,134.6-29.8,186.2,0Z" fill="rgba(255,255,255,0.29)"/>
    <path id="Path_7" data-name="Path 7" d="M129.1,318c.5,1.2,1.1,2.4,1.7,3.6C130.2,320.3,129.6,319.2,129.1,318ZM151,345c2,1.5,4.1,3.1,6.3,4.5A71.663,71.663,0,0,1,151,345Zm6.3,4.6c1.5,1,3,2,4.6,2.9C160.3,351.5,158.7,350.6,157.3,349.6Z" fill="#fff"/>
    <path id="Path_8" data-name="Path 8" d="M364.9,271.1V296c0,15.9-10.5,31.8-31.4,43.9-42,24.4-110.3,24.4-152.6,0-21.3-12.3-31.9-28.4-31.9-44.5V270.5c0,16.1,10.6,32.2,31.9,44.5,42.3,24.4,110.6,24.4,152.6,0C354.4,302.9,364.8,287,364.9,271.1Z" fill="#ba53ff"/>
    <path id="Path_9" data-name="Path 9" d="M333,226.6c42.3,24.4,42.5,64,.5,88.4s-110.3,24.4-152.6,0-42.5-64-.5-88.4S290.8,202.2,333,226.6Z" fill="rgba(255,255,255,0.21)"/>
    <path id="Path_10" data-name="Path 10" d="M429.7,70.3,324.3,276.9l-65,36.2-68.6-36.8L89,70.3m340.7,0-47.2,92.5" fill="rgba(255,255,255,0.31)"/>
    <path id="Path_11" data-name="Path 11" d="M264.6,237.8l59.7,39-65,36.2-68.6-36.7s47.8-29.2,63.7-38.6a10.068,10.068,0,0,1,10.2.1Zm-113-105.7a108.767,108.767,0,0,0,164.6,75.6,105.375,105.375,0,0,0,21.4-17.3A108.581,108.581,0,0,0,367.7,120a107.294,107.294,0,0,0-1.3-21.8,108.524,108.524,0,0,0-53.7-77.6A108.254,108.254,0,0,0,242.1,7.7a107.771,107.771,0,0,0-24.3,6.8,101.188,101.188,0,0,0-22.1,12.2,109.76,109.76,0,0,0-41.8,60.6A108.416,108.416,0,0,0,151.6,132.1Z" fill="#3b94d9"/>
    <path id="Path_12" data-name="Path 12" d="M208.4,119.7c1.5-1.8,2-4.4,4-5.7,3.2-2.1,7.5.8,11.2-.3,1.9-.6,3.8-2.3,5.7-1.5,1.6.7,2,2.7,2.9,4.2a7.061,7.061,0,0,0,5.8,3.7c1.1.1,2.3-.2,3.4.3,2.2.9,2.6,3.9,4.5,5.3a7.812,7.812,0,0,0,4.5,1.2c2.4.1,4.8.3,7.2.4a11.839,11.839,0,0,1,5.6,1.3,7.621,7.621,0,0,1,3.2,6.1,12.936,12.936,0,0,1-2.1,6.8,11.182,11.182,0,0,0-1.6,3.3c-.3,1.7.4,3.5,1,5.1.5,1.7.7,3.7-.5,5-1,1-2.5,1.2-3.7,1.9a4.865,4.865,0,0,0-3.3,2,9.223,9.223,0,0,0-1.6,3.3c-.5,1.4-.8,2.8-1.2,4.2-1,4.4-1.3,9.1-3.7,13a14.186,14.186,0,0,1-3.9,4.2,8.745,8.745,0,0,0-1,.8,3.552,3.552,0,0,0-.4.9c-.9,2.7-1.4,5.7-.4,8.3.1.2.2.4.4.4a22.11,22.11,0,0,0,6.2,9.2,1.991,1.991,0,0,1,.8,1.2c.2.8-.7,1.6-1.5,1.7a4.751,4.751,0,0,1-2.4-.6,29.25,29.25,0,0,1-8-5.5c-4.2-4.2-6.6-9.8-8.2-15.5a224.814,224.814,0,0,1-5.6-22.9,8.507,8.507,0,0,0-.9-3.1,5.657,5.657,0,0,0-3.4-2.4c-1.3-.5-2.7-.7-4.1-1.1a2.01,2.01,0,0,1-.8-.4c-.5-.4-.7-1.2-1.2-1.6-.5-2-2.6-3.2-4.1-4.6a30.022,30.022,0,0,1-6.5-8.9,7.389,7.389,0,0,1-.9-3.3,5.374,5.374,0,0,1,.5-2.1,24.09,24.09,0,0,1,3.5-6.5,4.054,4.054,0,0,0,.5-.9,2.719,2.719,0,0,0,0-.9c-.3-2.2-1.3-4.3.1-6Z" fill="#00ccb3"/>
    <path id="Path_13" data-name="Path 13" d="M247,206.3c-8.2-4.1-13.3-9.6-16.7-21.7l-.5-1.6c-5-17.8-4.7-19.3-5.2-21.6-.4-2.7-.8-3.8-5.3-4.9-2.7-.7-3.4-.9-4.2-2.3a2.182,2.182,0,0,0-.4-.5.55.55,0,0,1-.3-.5,6.127,6.127,0,0,0-2.5-2.9,30.146,30.146,0,0,1-8-10.3,6.724,6.724,0,0,1-.5-6.1,26.487,26.487,0,0,1,3.7-6.8c.4-.5.4-.5.3-1-.3-2.2-1.5-4.8.3-6.9,1.5-1.7,1.9-4.4,4.2-5.9,3.6-2.4,8.1.5,11.4-.4,1.9-.6,4-2.4,6.4-1.5,2.1.8,2.6,3.2,3.4,4.7a6.181,6.181,0,0,0,5,3.2c1.1.1,2.4-.2,3.7.3,2.6,1,3.1,4.2,4.7,5.5,1.4,1.1,3.1.9,11.1,1.5a13.57,13.57,0,0,1,6.1,1.4,8.456,8.456,0,0,1,3.7,6.9,14.424,14.424,0,0,1-2.6,7.8c-1.9,3-1.4,3.4-.3,7.1.8,2.6.5,4.7-.7,6a6.3,6.3,0,0,1-2.6,1.5c-1.6.6-1.3.7-1.8.7a4.143,4.143,0,0,0-2.5,1.6,9.313,9.313,0,0,0-1.4,3c-2.3,6.9-1.9,12.3-4.9,17.4-2.2,3.5-4.5,4.5-4.9,5.1a4.875,4.875,0,0,0-.3.7c-1,3.1-1.2,5.5-.5,7.5a1.024,1.024,0,0,1,.5.6c.9,2.9,2.7,5.6,5.9,8.7a2.99,2.99,0,0,1,1.1,1.7,2.6,2.6,0,0,1-2.4,2.9,7.5,7.5,0,0,1-3-.9Zm-30.8-54c1.3,1.4-.1,1.3,3.5,2.2,2.3.6,4.6,1.3,5.9,3.4,1.4,2.4-.1,2.4,6.1,24.6.5,1.3,2.2,10.6,8.4,16.7a28.925,28.925,0,0,0,7.7,5.3c.8.4,1.9.9,2.5.2,0-.1.1-.1.1-.2-.1-.6-4.9-4.2-6.8-9.8a1.794,1.794,0,0,1-.5-.7c-1-2.4-.8-5.4.4-9,.5-1.5,1-1.6,1.8-2.3,6.7-4.7,5.5-12.2,8.4-20.8a11.062,11.062,0,0,1,1.8-3.6,6.429,6.429,0,0,1,3.8-2.4c2.4-1.3,5.1-.8,3.2-6.5-1.3-3.8-1-5,.8-7.9l.3-.5c3.3-5.4,2-9.8-.8-11.5-1.8-1.1-3.5-1-12.3-1.6-4.3-.3-5.5-1.2-7.2-4.2-1.9-3.3-2.4-2.5-5.2-2.6a8.107,8.107,0,0,1-6.7-4.2c-.8-1.5-1.2-3.3-2.3-3.8-1.3-.5-3.2,1-5.1,1.5-3.9,1.2-8.2-1.6-10.9.2-1.6,1.1-2.2,3.7-3.8,5.5-1.3,1.5.5,4.7.1,6.5a2.4,2.4,0,0,1-.7,1.2,21.346,21.346,0,0,0-3.4,6.3,5.84,5.84,0,0,0-.4,1.8,7.416,7.416,0,0,0,.8,2.8,28.2,28.2,0,0,0,7.5,9.7,7.411,7.411,0,0,1,3,3.7ZM208.4,119.7Z"/>
    <path id="Path_14" data-name="Path 14" d="M242,7.7a108.829,108.829,0,0,0-88.2,79.6,113.806,113.806,0,0,1,6.6,14.7,27.441,27.441,0,0,0,2.5,5.8c.3.5,1.1.1.9-.4a25.809,25.809,0,0,1-1.1-7.8,1.493,1.493,0,0,1,2.6-.9,18.991,18.991,0,0,1,3.5,7.8,17.188,17.188,0,0,0,1,3.9c2,4.4,8.2,4.5,12.9,3.2a9.256,9.256,0,0,1,2.3-.4,6.859,6.859,0,0,1,3.6,1.3c3.6,2,7.3,4,10.9,6,1.6.9,3.5,1.8,5.3,1.3.1,0,.2-.1.3-.1a2.044,2.044,0,0,0-1-3.9,5.7,5.7,0,0,1-1.3-.1,2.232,2.232,0,0,1-1.9-2,25.613,25.613,0,0,0-.3-3.9.731.731,0,0,0-1.3-.4.908.908,0,0,1-.7.3c-3.4-.4-5.8-4.5-4.7-7.6a.689.689,0,0,0-.6-1,5.135,5.135,0,0,0-4,1.6,12.282,12.282,0,0,0-2.3,4,.841.841,0,0,1-1.1.4c-3.8-2.2-5.5-7.8-3.3-11.7,2.6-4.5,8.4-5.6,13.8-5.8a2.764,2.764,0,0,1,2.5,1.3c.1.1.1.2.2.3a2.732,2.732,0,0,0,4.8-2.3c-.4-1.8-.4-3.7,1-4.9,1.6-1.4,4.4-1.4,5.3-3.3a16.455,16.455,0,0,0,.4-3.1c.6-3.8,6-4.8,7.4-8.4.3-.9.4-1.9.8-2.8a2.042,2.042,0,0,1,2.3-1.3,12.132,12.132,0,0,1,1.4,1c1.3.9,3.2,0,4.3-1.1,1.2-1.1,2.2-2.5,3.8-2.9,1.9-.4,3.9.8,5.8.2,2.1-.7,2.7-3.1,3.7-5.2a4.615,4.615,0,0,0-.3-4.8c-2.6-3.7-5.1-7.4-7.7-11a4.509,4.509,0,0,1,0-5.2c.1-.2.3-.4.4-.6a6.1,6.1,0,0,0-1.4-8.5c-2.2-1.6-4.3-4.4-2.2-6.7a3.805,3.805,0,0,1,1.3-.9,15.11,15.11,0,0,1,11.8-.2,6.09,6.09,0,0,1,2.6,1.8c1.2,1.6.9,3.7.7,5.7a28.158,28.158,0,0,0,.2,5.8,2.653,2.653,0,0,0,3.1,2.3l5.8-.9a8.841,8.841,0,0,0,4.5-2.3,35.374,35.374,0,0,1,13.1-8c1.3-.4,2.8-.9,3.4-2.2.4-.9.2-1.9.5-2.8.4-1.2,1.5-2,2.4-2.9a10.936,10.936,0,0,0,2.8-9.2A113.559,113.559,0,0,0,242,7.7Z" fill="#00ccb3"/>
    <path id="Path_15" data-name="Path 15" d="M188.2,115.5a7.731,7.731,0,0,0-3.1-1.1,7.189,7.189,0,0,0-1.9.4h-.1c-5,1.4-11.7,1.2-14.1-3.8a13.525,13.525,0,0,1-.9-3.3c-.1-.3-.1-.6-.2-.9a18.338,18.338,0,0,0-3.3-7.4c-.2-.2-.4-.2-.5-.1-.1,0-.3.1-.3.4a23.494,23.494,0,0,0,1.1,7.5,1.5,1.5,0,0,1-.8,1.8,1.536,1.536,0,0,1-1.9-.5,21.73,21.73,0,0,1-2.4-5.4l-.2-.7A123.049,123.049,0,0,0,153,87.9a1.7,1.7,0,0,1-.1-.7,109.977,109.977,0,0,1,89-80.4,107.534,107.534,0,0,1,39.6,1,1.085,1.085,0,0,1,.8.8,11.636,11.636,0,0,1-3.1,10,4.349,4.349,0,0,1-.7.6c-1.6,1.5-1.6,1.8-1.7,3a4.638,4.638,0,0,1-.4,1.9c-.7,1.7-2.5,2.3-4,2.8a34.148,34.148,0,0,0-12.7,7.8,9.174,9.174,0,0,1-5,2.5L249,38a3.66,3.66,0,0,1-4.2-3.2c-1.1-7.9,1.8-10.6-2.9-12.6a14.006,14.006,0,0,0-11,.2,2.375,2.375,0,0,0-1.5,2.3c.1,1.3,1.5,2.7,2.7,3.6a7.165,7.165,0,0,1,1.6,9.9c-.1.2-.3.4-.4.6a3.45,3.45,0,0,0,0,4.1l7.7,11a5.507,5.507,0,0,1,.3,5.8c-1,2-1.8,4.8-4.3,5.6-2.2.7-4.3-.6-5.9-.2-1.2.3-2.2,1.6-3.3,2.6-1.4,1.3-3.7,2.4-5.6,1.2-.5-.3-.9-.8-1.1-.9-.3-.1-.8.3-1,.8-.3.6-.5,1.9-.8,2.7-1.5,3.8-6.8,5-7.3,8.2-.2.9.1,2.2-.4,3.4a5.484,5.484,0,0,1-3.4,2.6,5.963,5.963,0,0,0-2.1,1.1c-.9.8-1.1,2.1-.7,3.9a3.649,3.649,0,0,1-2.1,4.2,3.594,3.594,0,0,1-4.5-1.1,1.38,1.38,0,0,1-.3-.4,1.816,1.816,0,0,0-1.6-.8c-4.4.2-10.4.9-12.9,5.3a7.876,7.876,0,0,0,2.6,10.1,12.268,12.268,0,0,1,2.4-4.1,5.848,5.848,0,0,1,4.8-1.9,1.826,1.826,0,0,1,1.3.8,1.632,1.632,0,0,1,.2,1.5,5.039,5.039,0,0,0,.6,4.1,4.786,4.786,0,0,0,3.1,2.2,1.735,1.735,0,0,1,1.8-.5,1.828,1.828,0,0,1,1.3,1.5,26.93,26.93,0,0,1,.3,4,1,1,0,0,0,1,1,4.819,4.819,0,0,0,1.2,0c3.6,0,4.4,5.1.9,6-3.4,1.1-5.3-.7-17.3-7.1Zm-3.2-3.2h0a8.7,8.7,0,0,1,4.1,1.4l10.9,6c1.3.7,3.3,1.8,4.7,1.2,1.1-.4.5-2.1-.6-2a6.6,6.6,0,0,1-1.4-.1,3.208,3.208,0,0,1-2.8-3c0-1.1-.1-2.2-.2-3.4a1.8,1.8,0,0,1-1.2.3,6.406,6.406,0,0,1-4.7-3.2,6.846,6.846,0,0,1-.9-5.5,3.888,3.888,0,0,0-2.8,1.3,9.341,9.341,0,0,0-2,3.7,1.573,1.573,0,0,1-1.1,1,1.962,1.962,0,0,1-1.5-.1c-4.3-2.5-6.1-8.7-3.6-13,3-5.2,9.8-6.1,14.6-6.3a3.733,3.733,0,0,1,3.4,1.7c0,.1.1.1.1.2a1.744,1.744,0,0,0,2.1.5,1.8,1.8,0,0,0,1-2c-.6-2.6-.2-4.5,1.3-5.9a10.288,10.288,0,0,1,2.7-1.5c1.1-.4,2-.8,2.3-1.5.3-.6.1-1.9.3-2.9.7-4.3,6.2-5.4,7.4-8.6a17.154,17.154,0,0,1,.8-2.8,2.993,2.993,0,0,1,3.5-1.8,5.522,5.522,0,0,1,1.6,1.2c.8.6,2.2-.1,3.1-1l.7-.7c2.5-2.6,3.7-2.9,6.8-2.3,2.7.5,3.4.4,5-3.1a10.092,10.092,0,0,1,.7-1.5,3.524,3.524,0,0,0-.2-3.7l-7.7-11a5.739,5.739,0,0,1,0-6.4,4.234,4.234,0,0,0,.5-.7,5.12,5.12,0,0,0-1.2-7.1c-1-.7-3.2-2.6-3.5-5a4.477,4.477,0,0,1,1.1-3.2c1.9-2.1,8.4-3.8,14.2-1.4,3.9,1.6,4.3,4,4,8a30.245,30.245,0,0,0,.1,6.1,1.692,1.692,0,0,0,1.9,1.5l5.8-.9a7,7,0,0,0,3.9-2,37.34,37.34,0,0,1,13.4-8.2c1.2-.4,2.4-.8,2.8-1.7.3-.6.1-1.7.4-2.7.5-1.5,1.8-2.4,2.7-3.3a9.507,9.507,0,0,0,2.6-7.6,111.986,111.986,0,0,0-37.9-.6l-.2-1,.2,1a107.756,107.756,0,0,0-87.3,78.5,121.449,121.449,0,0,1,6.5,14.4l.2.7c.1.4.3.7.4,1.1a24.2,24.2,0,0,1-.2-3.8,2.565,2.565,0,0,1,1.7-2.3,2.481,2.481,0,0,1,2.7.8,21,21,0,0,1,3.7,8.2c.1.3.1.6.2.9a12.76,12.76,0,0,0,.7,2.8c1.7,3.6,7.1,4,11.7,2.7h.1a20.024,20.024,0,0,1,2.4-.4Z"/>
    <path id="Path_16" data-name="Path 16" d="M366.4,98.2a99.526,99.526,0,0,1,1.2,21.7,16.977,16.977,0,0,0-2.1,6.7c-.5,3.4-.8,7-3,9.6a24.051,24.051,0,0,0-2.1,2.4c-.5.8-.8,1.6-1.2,2.4-1.1,2.1-3,3.8-3.8,6s-.4,4.6-.3,7a41.4,41.4,0,0,1,0,6.1,6.525,6.525,0,0,1-1.3,3.9c-1.1,1.2-3,1.5-4.6,1.5a15.264,15.264,0,0,1-7.9-1.4,20.6,20.6,0,0,1-4.3-3.5,25.021,25.021,0,0,1-3.4-3.9,32.871,32.871,0,0,1-2.7-5.7c-.7-1.9-1.4-3.8-2.2-5.8a14.04,14.04,0,0,1-1-3.5,42.642,42.642,0,0,1,.2-5c-.1-4-2.7-7.5-5.3-10.6a22.594,22.594,0,0,1-2.3-3.1c-2.2-3.8-2-8.5-1.6-12.9a7.837,7.837,0,0,0-4-1.9,6.632,6.632,0,0,0-2.8.5c-3.3.9-6.5,1.9-9.8,2.8-3.1.9-6.5,1.8-9.5.5a13.612,13.612,0,0,1-3.2-2.1,21.641,21.641,0,0,1-4-4,22.264,22.264,0,0,1-2.6-5.1,29.486,29.486,0,0,1-2.2-6.3,15.916,15.916,0,0,1,3.3-12.8c1.6-2,3.8-3.7,4.4-6.2.1-.6.2-1.2.3-1.7.5-1.9,2.2-3.2,3.7-4.5-.2-.9,1.7-1.4,1.4-2.3-.1-.3-.3-.4-.6-.5-1.7-.8-4.1-.1-5.3-1.6a4.771,4.771,0,0,1-.6-2.9,8.534,8.534,0,0,1,.6-3.1c.8-1.7,2.8-2.6,4.6-3.1,1-.3,2.1-.4,3.2-.7a2.251,2.251,0,0,0,1.3-3.4,6.589,6.589,0,0,0-2.3-2.1,2.585,2.585,0,0,1-1.2-1.1c-.2-.8.5-1.5.3-2.3a1.486,1.486,0,0,0-1.9-.9,8.422,8.422,0,0,0-2.1,1.1,1.972,1.972,0,0,1-2.2.1,2.319,2.319,0,0,1-.8-2c-.1-1.1-.2-2.4.6-3.2.4-.4.9-.6,1.3-1,1-1.1.5-3.1,1.5-4.1a4.45,4.45,0,0,1,2.3-.7,7.413,7.413,0,0,1,2.1.1,1.825,1.825,0,0,1,1.4,1.4c.1.6-.1,1.3.3,1.8.3.3.8.3,1.1.6a3.1,3.1,0,0,1,.5,1.7c.3,1.6,2.4,2.3,4,1.8a8.408,8.408,0,0,0,3.7-3.3,4.011,4.011,0,0,0,.9-1.7c.1-.4,0-.9.1-1.4a4.191,4.191,0,0,1,.4-1.5,1.417,1.417,0,0,0-1.5-2,4.678,4.678,0,0,1-3.3-.2c.2-1,.5-1.9.7-2.9.1-.3.2-.7.3-1a8.344,8.344,0,0,1,.8-1.2c1-1.3,2.1-2.6,3.1-3.9a8.379,8.379,0,0,1,2.1-2.1,34.932,34.932,0,0,0,3.4-1.5C340.4,36.4,361,64.2,366.4,98.2Z" fill="#00ccb3"/>
    <path id="Path_17" data-name="Path 17" d="M336.2,161.3c-3.5-3.5-4.4-4.8-6.3-10-2.5-6.7-3-7.8-3.2-9.5a40.164,40.164,0,0,1,.2-5c-.1-5.5-5.5-9.8-7.4-13.2-2.2-3.9-2.1-8.6-1.8-12.9a5.773,5.773,0,0,0-3-1.3c-1-.1-1.2.1-12.3,3.2-7.6,2.2-10,1.1-13.6-1.9-3.9-3.3-4.9-4.8-6.9-9.4a28.446,28.446,0,0,1-2.2-6.6,16.626,16.626,0,0,1,3.5-13.6c2.1-2.5,3.9-3.6,4.3-6.5.1-.3.1-.7.2-1,.5-2.1,2.2-3.5,3.7-4.8a3,3,0,0,1,1.2-1.5c-1.5-.6-4,0-5.4-1.8a5.2,5.2,0,0,1-.8-3.6,8.627,8.627,0,0,1,.7-3.4c1.6-3.4,6.1-3.7,8.5-4.3a1.154,1.154,0,0,0,.7-1.8c-1.5-2.1-3.1-1.9-3.6-3.4-.3-1.1.4-2.1.3-2.4,0-.1-.4-.2-.7-.1a5.423,5.423,0,0,0-1.8,1,3.26,3.26,0,0,1-3.3.1,3.811,3.811,0,0,1-1.3-2.7c-.1-.9-.3-2.8.8-4a1.555,1.555,0,0,1,.8-.6c.5-.4.7-.4.9-1.9a3.81,3.81,0,0,1,1.1-2.6,4.3,4.3,0,0,1,2.9-.9,6.7,6.7,0,0,1,2.4.2,2.929,2.929,0,0,1,2.1,2.2,1.387,1.387,0,0,1,0,.9v.5h.2c1.2.4,1.5,1.1,1.6,2.3a1.225,1.225,0,0,0,.7,1.2,2.8,2.8,0,0,0,2,.2,8.113,8.113,0,0,0,3.2-2.9c.8-1.1.8-1.2.8-1.9a4.829,4.829,0,0,1,.6-2.5c.1-.2-.1-.6-.4-.5a5.8,5.8,0,0,1-3.9-.3,1,1,0,0,1-.5-1.1c.9-3.8.8-3.9,1.9-5.4,4.5-5.8,4.5-6.1,7.3-7a5.226,5.226,0,0,0,1.5-.7A1.376,1.376,0,0,1,313,20a109.251,109.251,0,0,1,54.2,78.3,115.056,115.056,0,0,1,1.3,21.9c0,.2-.1.3-.2.5-2.9,4.6-1.2,11.7-5.2,16.3-.3.3-.6.7-.9,1-1.7,1.7-1.3,1.6-2.3,3.6a17.029,17.029,0,0,1-1.8,2.6c-2.3,3-2.7,4-2.3,8.8a44.005,44.005,0,0,1,.1,7.3,6.9,6.9,0,0,1-1.6,4.5c-1.4,1.5-3.6,1.8-5.3,1.8-6.4.1-8.9-1.3-12.8-5.3Zm-17-51.9a.975.975,0,0,1,.4.9c-.8,9.8,1,11.8,3.7,15.2,7.8,9.4,4.9,12.1,5.3,16.1.2,1.6.9,3.1,3.1,9,1.9,5,2.6,6,5.9,9.3,3.4,3.4,5.2,4.9,11.5,4.6,3.8-.1,4.7-1.2,5-4.5.6-6.6-1-9.7.3-13.4a12.794,12.794,0,0,1,2.3-3.7c2.4-3.2,1.8-3.2,2.9-4.9a26.138,26.138,0,0,1,2.2-2.4c3.4-4,1.8-10.8,4.8-15.9a108.8,108.8,0,0,0-1.2-21.3,107.057,107.057,0,0,0-52.7-76.6c-.9.5-2.1.7-2.9,1.2a8.549,8.549,0,0,0-1.9,1.9c-3.4,4.3-3.5,4.4-3.7,4.8a20.629,20.629,0,0,0-.7,2.8,3.851,3.851,0,0,0,1.8-.2,2.387,2.387,0,0,1,2.6,3.4c-.9,1.6.5,2-1.5,4.7a9.681,9.681,0,0,1-4.1,3.6c-2.1.8-4.9-.3-5.3-2.5,0-.2-.1-.4-.1-.6s0-.5-.1-.5a2.274,2.274,0,0,1-1.2-.6c-.8-.8-.5-1.9-.6-2.3,0-.2-.3-.5-.7-.6a4.735,4.735,0,0,0-1.7-.1c-1.8.1-1.9.3-2.1,1.9-.3,2-.8,2.5-1.7,3.2a2.181,2.181,0,0,0-.5.4c-.5.5-.4,1.5-.3,2.4,0,.4.1,1.1.4,1.3a1.429,1.429,0,0,0,1.2-.2,12.289,12.289,0,0,1,2.3-1.1,2.483,2.483,0,0,1,3.1,1.7,4.678,4.678,0,0,1-.2,1.7c-.1.2-.2.5-.1.6,0,.1.4.3.6.4a9.109,9.109,0,0,1,2.7,2.5,3.166,3.166,0,0,1-1.9,4.9,13.636,13.636,0,0,0-1.7.4c-5.4,1.1-5.8,2.5-6,5.5-.1,2.5.3,2.8,2.6,3,1.4.1,3.3.4,3.7,1.7.4,1.4-1,2.1-1.4,2.5a.91.91,0,0,1-.4.8c-3.9,3.1-3.2,3.7-3.7,5.7-.6,2.8-3,4.6-4.6,6.6a14.626,14.626,0,0,0-3.1,11.9,33.849,33.849,0,0,0,2.1,6.1c1.8,4.3,2.6,5.6,6.3,8.6,3,2.5,4.7,3.5,11.7,1.5l9.8-2.8c3.2-1.1,4.6-.9,7.8,1.4ZM293.4,69.2Z"/>
    <path id="Path_18" data-name="Path 18" d="M276.2,27.8c.2.2.3.4.6.5a.854.854,0,0,0,.7,0c.2-.1.3-.4.5-.4.3-.1.6.2.8,0,.1-.1.1-.3.2-.5a1.22,1.22,0,0,1,.9-.8,3.854,3.854,0,0,1,2.6.2,2.129,2.129,0,0,1,1.1,1.2,2.036,2.036,0,0,1-.5,1.8,2.7,2.7,0,0,1-.7.8,3.719,3.719,0,0,1-2.2,1,20.083,20.083,0,0,1-2.5.1H277a3.762,3.762,0,0,1-2.1.1,1.387,1.387,0,0,1-.7-.8,3.6,3.6,0,0,1-.2-1.1,2.462,2.462,0,0,1,.1-1.2,2.365,2.365,0,0,1,1.1-1.3c.2-.2.3-.3.5-.1.2.1.5.4.5.5Z" fill="#00ccb3"/>
    <path id="Path_19" data-name="Path 19" d="M273.4,31.4a5.664,5.664,0,0,1-.2-2.9,4.355,4.355,0,0,1,1.4-1.8,1.272,1.272,0,0,1,1.7-.2,1.88,1.88,0,0,1,.7.8l.1.1a1.389,1.389,0,0,1,1-.5,2.411,2.411,0,0,1,1.6-1.3c3-.8,6.6,1.5,4.3,4.8-1.5,2.2-3.6,2.5-6.3,2.3a4.485,4.485,0,0,0-1.1.1C275.2,33.1,274,32.8,273.4,31.4Zm2.2-2.9c-.5.4-.5.6-.4,1.3.2,1.8.6.7,2.7.8,1.3.1,3,.1,4-.8a2.4,2.4,0,0,0,.9-1.7c-.1-.5-1.3-1.1-2.5-.8a.349.349,0,0,0-.2.1,1.335,1.335,0,0,1-1.6,1.3,1.561,1.561,0,0,1-2,.3.937.937,0,0,1-.9-.5ZM275.3,28ZM275.3,28Z"/>
    <g id="Group_1" data-name="Group 1">
      <path id="Path_20" data-name="Path 20" d="M412.8,274.7c-4.7-2.7-12-2.7-16.6,0-2.4,1.4-3.7,3.3-3.7,5.4a5.7,5.7,0,0,0,2.2,4.3l-6.6,3.8c-3.5-13.2-12.7-25.5-27-36A58.029,58.029,0,0,0,346.8,235l29.5-57.9a.962.962,0,1,0-1.7-.9L324,275.4,265.2,237a10.923,10.923,0,0,0-11.3-.1c-8.2,4.8-25.1,15.1-37.8,22.8-4.3,2.6-23,14-24.9,15.3L89.9,69.9a.985.985,0,0,0-1.8.8l80.4,162.8a60.933,60.933,0,0,0-15.6,18.2c-14.4,10.6-23.7,23-27.1,36.4l-8.7-5.1c3.4-2.8,3.3-7.2-1.4-9.9s-12-2.7-16.6,0c-5,2.9-5,7.9.1,10.8,4.4,2.6,11.4,2.7,16.1.3l10.1,5.9a49,49,0,0,0-1,9.3l-.1,30.1c-.9,1.4-1.8,2.8-2.6,4.3-6.6,12.1-8.4,25.1-5.2,37.7a.982.982,0,1,0,1.9-.5c-3.3-13-1.2-25.9,5.9-37.9l-.1,16.6c-.1,20.9,13.9,40.5,39.4,55.2,27.1,15.6,61.6,22.3,92.8,22.4h1.2a216.392,216.392,0,0,0,55.9-7.2c12.7-3.1,25.8-9,37.3-15.2,24.9-14.5,38.7-33.8,38.7-54.4l.1-17.2a51.375,51.375,0,0,1,7.7,26.4c0,21.4-14.4,41.6-40.5,56.8-54.6,31.7-143.7,31.7-198.7,0-14.8-8.5-25.9-18.6-32.9-29.8a1.012,1.012,0,0,0-1.7,1.1c7.2,11.5,18.5,21.8,33.6,30.5,1.2.7,2.4,1.3,3.7,2l-11.6,6.8a.215.215,0,0,1-.2-.2c-4.7-2.7-12-2.7-16.6,0-5,2.9-5,7.9.1,10.8,4.7,2.7,12,2.7,16.6,0,4.4-2.6,4.7-6.5,1.9-9.3l12-7c26.9,13.9,60.8,20.9,94.7,20.9,33.7,0,67.4-6.9,94.1-20.7l13.1,7.2c-3.7,3.1-2.8,7.4,1.4,9.8,4.7,2.7,12,2.7,16.6,0,5-2.9,5-7.9-.1-10.8a18.221,18.221,0,0,0-16.1-.3l-12.8-7.1c1.3-.7,2.7-1.4,4-2.2,26.8-15.6,41.6-36.4,41.5-58.5,0-10.5-3.4-20.6-9.7-30.1l.1-29.2v-.3a46.205,46.205,0,0,0-1.1-9.9l7.9-4.6a16.7,16.7,0,0,0,8.1,1.9,17.267,17.267,0,0,0,8.3-2c2.4-1.4,3.7-3.3,3.7-5.4-.1-2.1-1.5-4-3.9-5.4Zm-312.7,7.7c-3.7-2.1-3.7-5.2,0-7.3a16.309,16.309,0,0,1,14.6,0c3.7,2.1,3.7,5.2,0,7.3C110.7,284.7,104.2,284.7,100.1,282.4ZM147.8,436a16.309,16.309,0,0,1-14.6,0c-3.7-2.1-3.7-5.2,0-7.3a16.309,16.309,0,0,1,14.6,0C151.4,430.8,151.5,433.9,147.8,436Zm233.8-6.4c3.7,2.1,3.7,5.2,0,7.3a16.309,16.309,0,0,1-14.6,0c-3.7-2.1-3.7-5.2,0-7.3A15.7,15.7,0,0,1,381.6,429.6Zm-126.7-191a8.716,8.716,0,0,1,9.2.1l58.3,38.1-63.1,35.1-66.6-35.7c8.2-4.9,48.1-29.3,62.2-37.6Zm-85.5-3.2,20.4,41.3a.781.781,0,0,0,.4.4c8.2,4.4,60.5,32.4,68.6,36.7a.908.908,0,0,0,1,0l65-36.2c.2-.1.3-.3.4-.4l20.6-40.4c10.4,9,18.2,20.7,18,34.5-.2,18.7-14.5,33.3-30.9,42.8-27.8,16.1-67.2,21.5-102.9,16.1-17.8-2.7-34.7-8.1-48.7-16.1-16.6-9.6-31.3-24.3-31.4-43.4v-.1C150.1,257.9,156.9,245.7,169.4,235.4Zm194.5,47.9V296c0,16.2-11,31.5-30.9,43-41.7,24.2-109.7,24.2-151.6,0-20.3-11.7-31.4-27.2-31.4-43.6V282.8c4.7,14.3,17.1,25.3,30,32.8.1.1.2.1.3.2,42.5,24.5,111.4,24.5,153.6,0,.1,0,.1-.1.2-.1,13-7.4,25-18.3,29.8-32.4ZM151,255.8a39.809,39.809,0,0,0-3,14.7v24.9c0,17.2,11.4,33.3,32.4,45.4,21.2,12.3,49.1,18.4,76.9,18.4s55.6-6.1,76.7-18.4c20.5-11.9,31.8-27.8,31.9-44.8V270.9a38.013,38.013,0,0,0-3-14.8c16,12.8,24.7,28,24.7,44,0,23.2-17.7,41.2-37.8,52.9-47.7,27.7-123.7,29.5-175.2,5.2-24.4-11.5-48.3-31.5-48.3-58.5.1-16,8.7-31.2,24.7-43.9ZM313,403.9a1,1,0,0,0-1,1l-.1,13.7a188.124,188.124,0,0,1-26.3,5.1l.2-48.3a203.69,203.69,0,0,0,26.3-5l-.1,13.5a1,1,0,0,0,2,0l.1-14a157.875,157.875,0,0,0,26.3-9.6l-.2,47.9a140.562,140.562,0,0,1-26.3,9.9l.1-13.2A.945.945,0,0,0,313,403.9Zm-85.6-28.7-.2,33.8a1,1,0,0,0,2,0l.2-33.5a227.5,227.5,0,0,0,26.2,1.7l-.2,48.3a214.516,214.516,0,0,1-54.4-7.3l.2-48.2A224.824,224.824,0,0,0,227.4,375.2Zm30.2,2a233.154,233.154,0,0,0,25.1-1.4,5.019,5.019,0,0,0,1.2-.2l-.2,48.3a230.126,230.126,0,0,1-26.2,1.5l.1-48.2ZM126.1,349.9l.2-36.8c3,10.1,9.1,18.9,16.6,26.2l-.2,47.5c-10.9-11.2-16.6-23.8-16.6-36.9Zm18.6,38.8.2-47.6c14.8,13.6,34.8,22.7,54.3,28.2l-.2,48.2a159.676,159.676,0,0,1-26.2-9.9l.1-28.9a1,1,0,0,0-2,0l-.1,27.9c-2.2-1.1-4.3-2.2-6.3-3.4a95.572,95.572,0,0,1-19.8-14.5Zm205,14.6c-2.6,1.4-5,2.7-7.5,3.9l.2-47.9c2.9-1.4,5.7-2.9,8.5-4.5h.1A107.122,107.122,0,0,0,368.8,342l-.2,47.6a113.6,113.6,0,0,1-18.9,13.7Zm37.9-89.4-.2,36.7c0,13.1-5.9,25.7-16.9,36.9l.2-47.5C378.3,332.8,384.5,324,387.6,313.9Zm24.3-30.2a16.309,16.309,0,0,1-14.6,0c-1.8-1-2.8-2.3-2.8-3.7,0-1.3,1-2.6,2.7-3.6a15.7,15.7,0,0,1,14.6,0c1.8,1,2.8,2.3,2.8,3.7,0,1.3-1,2.6-2.7,3.6ZM430.1,69.4a.883.883,0,0,0-1.3.4l-47.2,92.5a.883.883,0,0,0,.4,1.3.749.749,0,0,0,.5.1,1.05,1.05,0,0,0,.9-.5l47.2-92.5a1.062,1.062,0,0,0-.5-1.3Z"/>
      <path id="Path_21" data-name="Path 21" d="M259,224.9a109.57,109.57,0,0,0,108.3-127C357.8,37.5,301.2-2.6,241.9,6.8a109.685,109.685,0,0,0-91.3,125.5c8.5,54,55.3,92.6,108.4,92.6ZM154.8,87.6A107.742,107.742,0,0,1,242.2,8.7,105.641,105.641,0,0,1,259,7.4,107.724,107.724,0,0,1,365.4,98.3a112.426,112.426,0,0,1,1.3,21.6,107.6,107.6,0,0,1-29.8,69.8,105.165,105.165,0,0,1-21.2,17.2A107.887,107.887,0,0,1,154.8,87.6Z"/>
    </g>
  </g>
</svg>
